<svg width="1000" height="261" viewBox="0 0 1000 261" fill="none" xmlns="http://www.w3.org/2000/svg">
<path d="M156.163 21.3431C156.064 21.5683 155.796 22.0466 155.543 22.4406C155.303 22.8205 154.669 23.8335 154.147 24.6918C153.625 25.536 152.653 27.0556 152.004 28.0686C151.018 29.5882 149.989 31.2766 148.311 34.0906C148.184 34.3017 147.649 35.174 147.099 36.0182C146.084 37.6082 145.45 38.6071 143.081 42.4201C140.488 46.5989 140.022 47.3446 139.275 48.5406C138.867 49.2019 138.091 50.426 137.57 51.2843C137.048 52.1285 136.357 53.2541 136.019 53.7887C135.681 54.3093 135.018 55.3365 134.553 56.0822C134.088 56.8138 133.524 57.7143 133.298 58.066C132.918 58.657 132.904 58.7414 133.087 59.0369C133.538 59.7967 135.709 63.1876 136.442 64.3132C136.879 64.9745 137.993 66.7332 138.923 68.2246C140.615 70.9402 142.236 73.5009 143.293 75.1612C143.786 75.921 145.139 78.0737 145.872 79.2556C146.098 79.6214 147.042 81.1128 148.72 83.7862C149.115 84.4052 150.017 85.8263 150.736 86.9519C151.455 88.0775 152.258 89.372 152.526 89.8222C152.794 90.2584 153.555 91.4825 154.218 92.5237C155.613 94.7186 158.32 99.024 159.884 101.486C161.914 104.708 162.295 105.313 162.887 106.228C163.211 106.734 163.578 107.325 163.704 107.565C163.817 107.79 164.113 108.226 164.353 108.535C164.593 108.831 164.79 109.155 164.79 109.239C164.79 109.323 164.593 109.717 164.353 110.097C163.831 110.955 162.732 112.827 161.548 114.881C161.068 115.725 160.265 117.09 159.786 117.906C159.292 118.722 158.728 119.735 158.517 120.157C158.306 120.579 157.953 121.184 157.742 121.494C157.53 121.804 156.98 122.718 156.515 123.534C156.05 124.35 155.204 125.799 154.64 126.77C154.077 127.741 153.513 128.712 153.4 128.951C153.273 129.176 152.949 129.725 152.667 130.147C152.371 130.569 151.906 131.399 151.61 131.976C151.314 132.553 150.975 133.186 150.834 133.383C150.693 133.58 150.115 134.551 149.538 135.564C148.96 136.563 147.86 138.462 147.099 139.785C146.338 141.094 145.435 142.613 145.097 143.162C144.618 143.894 144.491 144.189 144.59 144.358C144.674 144.47 144.815 144.569 144.928 144.569C146.916 144.541 170.471 144.33 177.167 144.287L186.216 144.231L186.555 144.541C186.893 144.85 188.077 146.679 189.346 148.86C189.726 149.522 190.135 150.155 190.234 150.267C190.333 150.38 190.558 150.76 190.727 151.097C190.896 151.449 191.249 152.054 191.503 152.434C191.756 152.828 192.56 154.165 193.307 155.403C194.04 156.641 194.998 158.231 195.435 158.949C195.872 159.652 196.225 160.271 196.225 160.327C196.225 160.384 196.436 160.749 196.704 161.143C197.169 161.861 198.776 164.478 199.679 166.026C200.144 166.828 200.947 168.164 202.216 170.247C202.611 170.908 203.118 171.752 203.344 172.146C203.555 172.526 203.936 173.159 204.189 173.553C204.443 173.933 205.782 176.156 207.164 178.464C208.559 180.771 209.941 183.093 210.251 183.599C210.561 184.12 211.125 185.063 211.505 185.71C211.886 186.343 212.323 186.934 212.464 187.004C212.647 187.103 216.411 187.103 224.178 187.004C239.219 186.807 258.841 186.638 260.392 186.695C261.068 186.709 261.745 186.695 261.914 186.638C262.323 186.512 262.267 186.09 261.801 185.921C261.393 185.766 260.857 184.978 256.078 177.423C255.698 176.846 254.852 175.509 254.189 174.454C253.513 173.398 252.611 171.991 252.188 171.316C251.765 170.641 250.975 169.403 250.426 168.558C248.537 165.618 247.902 164.619 244.59 159.385C244.308 158.934 243.702 157.978 243.236 157.232C242.771 156.5 242.123 155.501 241.799 155.009C241.474 154.531 240.981 153.757 240.699 153.292C240.431 152.828 239.896 151.97 239.515 151.393C239.134 150.816 238.458 149.747 238.007 149.015C237.175 147.692 235.3 144.752 234.102 142.88C233.75 142.332 233.087 141.291 232.622 140.559C231.706 139.124 230.846 137.773 229.239 135.24C227.97 133.257 226.448 130.879 225.404 129.233C224.051 127.108 221.584 123.211 221.246 122.69C221.077 122.423 220.569 121.621 220.104 120.903C219.653 120.2 218.836 118.905 218.286 118.047C217.045 116.091 216.27 114.867 215.015 112.911C214.466 112.053 213.408 110.379 212.647 109.183C211.886 107.987 211.068 106.678 210.815 106.298C210.561 105.904 209.842 104.765 209.194 103.766C208.559 102.753 207.742 101.486 207.375 100.924C207.023 100.361 206.346 99.2914 205.881 98.5457C205.416 97.8 204.64 96.5899 204.161 95.8724C203.668 95.1407 203.273 94.5076 203.273 94.4513C203.273 94.4091 202.878 93.7618 202.385 93.0161C201.892 92.2704 201.243 91.2714 200.933 90.779C200.637 90.3006 200.172 89.569 199.904 89.1609C199.65 88.7529 198.945 87.6695 198.368 86.7409C197.79 85.8122 196.986 84.5459 196.577 83.9269C195.887 82.8435 194.773 81.1128 193.434 79.0023C193.095 78.4536 192.306 77.2436 191.7 76.2868C191.094 75.33 190.586 74.514 190.586 74.4436C190.586 74.3873 190.389 74.0778 190.149 73.7542C189.91 73.4306 189.219 72.3894 188.627 71.4326C185.244 66.1141 182.058 61.0911 181.847 60.7816C180.86 59.3042 180.014 57.9676 179.831 57.6158C179.718 57.3766 179.281 56.6872 178.858 56.0681C178.449 55.449 177.759 54.3797 177.336 53.7043C176.913 53.0149 176.123 51.7627 175.574 50.9184C175.038 50.0742 174.051 48.5265 173.389 47.4713C172.726 46.4301 171.641 44.7276 170.964 43.6864C170.287 42.6452 169.639 41.5759 169.526 41.2945C169.413 41.0272 168.85 40.1126 168.286 39.2825C167.736 38.4524 166.82 37.1016 166.27 36.2574C165.734 35.4273 165.1 34.4565 164.86 34.1047C164.635 33.7529 164.156 32.9932 163.803 32.4304C163.451 31.8676 163 31.1641 162.802 30.8545C162.605 30.559 161.816 29.3209 161.04 28.0968C160.279 26.8727 159.405 25.5079 159.123 25.0717C158.827 24.6215 158.461 24.0165 158.291 23.7069C158.122 23.3974 157.812 22.919 157.601 22.6517C157.389 22.3843 157.079 21.8919 156.91 21.5542C156.558 20.8648 156.388 20.8225 156.163 21.3431Z" fill="white"/>
<path d="M129.408 47.6398C129.14 47.7524 127.9 48.1885 126.659 48.6106C123.488 49.6659 121.542 50.3694 119.822 51.0588C119.005 51.3824 117.835 51.8467 117.215 52.0859C115.255 52.8457 111.365 54.5341 109.321 55.505C108.235 56.0256 106.938 56.6024 106.431 56.8135C105.923 57.0105 105.078 57.4466 104.542 57.7984C104.006 58.1501 103.203 58.5722 102.766 58.7552C101.892 59.1069 100.595 59.8245 100.2 60.1762C100.059 60.3029 99.2417 60.7953 98.3677 61.2737C97.4937 61.7662 96.211 62.5541 95.5062 63.0184C92.1089 65.34 89.3178 67.2816 88.8526 67.6615C88.5566 67.9007 86.9919 69.1529 85.3567 70.4474C82.2132 72.9519 78.2521 76.7508 75.9826 79.4382C75.3342 80.198 74.5166 81.1547 74.1642 81.5346C73.4312 82.3366 71.7819 84.4753 70.8374 85.826C69.2586 88.1194 67.7926 90.3566 67.6798 90.652C67.6093 90.8349 67.2569 91.4259 66.9045 91.9746C66.2561 92.9877 64.8464 95.7876 63.9302 97.9263C63.6482 98.5876 63.169 99.6287 62.8729 100.248C62.5769 100.867 62.0835 102.133 61.7734 103.062C61.4492 103.99 61.0404 105.186 60.8572 105.735C59.9973 108.155 59.0951 111.982 58.4326 115.936C58.3057 116.752 58.1084 117.793 57.9956 118.258C57.6996 119.552 57.2344 126.207 57.2344 129.303C57.2344 132.623 57.6573 138.969 58.0097 140.854C58.1224 141.501 58.4467 143.387 58.7145 145.047C58.9964 146.707 59.4757 149.043 59.7999 150.253C60.11 151.463 60.4484 152.828 60.5611 153.292C60.8431 154.615 61.7029 156.936 61.9567 157.091C62.1258 157.204 62.2809 157.105 62.7038 156.599C62.9857 156.261 64.1275 154.966 65.2411 153.756L67.271 151.533L66.975 150.647C66.2843 148.508 65.3539 143.471 64.7196 138.518C64.2403 134.79 64.2121 134.241 64.2262 128.88C64.2262 124.026 64.2685 122.999 64.5363 120.72C64.7196 119.285 64.9451 117.765 65.0579 117.343C65.1707 116.921 65.3539 115.964 65.4808 115.232C65.8614 112.981 66.4816 110.463 67.0737 108.76C67.3697 107.874 67.7644 106.734 67.9195 106.228C68.582 104.187 68.9485 103.259 69.8225 101.359C71.0771 98.6579 71.8101 97.2087 72.5431 95.9987C72.8814 95.4359 73.1633 94.9153 73.1633 94.8449C73.1633 94.7605 73.5157 94.1977 73.9386 93.5786C74.3615 92.9595 74.7139 92.3967 74.7139 92.3264C74.7139 92.1997 75.2919 91.3696 77.0117 89.0762C77.4909 88.429 78.1253 87.5425 78.4354 87.1064C78.7314 86.6702 79.5208 85.7134 80.1974 84.9818C80.86 84.2501 81.7058 83.2934 82.0723 82.8713C82.9885 81.7738 87.0765 77.7638 88.6271 76.4553C90.9107 74.4996 91.2349 74.2322 92.3908 73.3458C95.0128 71.3338 97.3387 69.7439 99.876 68.2243C100.426 67.9007 101.06 67.4645 101.286 67.2535C101.525 67.0284 102.371 66.5218 103.189 66.1279C104.006 65.7199 104.951 65.1852 105.303 64.946C105.656 64.7068 106.29 64.3269 106.713 64.1018C108.531 63.1591 112.633 61.133 113.479 60.7813C120.09 57.9672 121.74 57.3341 124.925 56.4336C125.644 56.2225 126.589 55.5753 126.589 55.2798C126.589 55.2236 127.42 53.4929 128.435 51.4387C129.436 49.3845 130.226 47.6398 130.183 47.5554C130.071 47.3725 130 47.3865 129.408 47.6398Z" fill="white"/>
<path d="M183.535 47.5596C183.535 47.6441 184.367 49.3888 185.368 51.4289C186.383 53.4831 187.2 55.2138 187.2 55.27C187.2 55.3404 187.383 55.5514 187.595 55.7625C187.891 56.0439 188.568 56.3253 190.034 56.7755C191.161 57.1132 192.388 57.5353 192.768 57.6901C193.163 57.8589 194.361 58.3373 195.447 58.7454C196.532 59.1534 198.139 59.8147 198.999 60.2086C199.873 60.6026 200.634 60.9262 200.676 60.9262C200.958 60.9262 207.978 64.5563 209.966 65.7241C210.614 66.104 211.178 66.4136 211.221 66.4136C211.277 66.4136 211.869 66.7653 212.546 67.2155C213.222 67.6517 214.406 68.4115 215.182 68.918C216.662 69.8748 218.184 70.9441 220.82 72.8999C222.329 74.0114 225.683 76.8395 227.572 78.5982C230.279 81.1168 233.465 84.6062 235.791 87.589C237.031 89.1789 240.287 94.0613 241.274 95.82C243.473 99.7456 245.362 104.121 246.56 108.061C246.87 109.102 247.195 110.115 247.251 110.312C247.674 111.494 248.731 116.799 249.084 119.458C249.817 125.001 249.845 132.501 249.154 138.171C248.928 140.042 248.59 142.336 248.379 143.377C248.308 143.729 248.153 144.573 248.026 145.276C247.688 147.19 246.955 150.454 246.814 150.721C246.462 151.369 246.645 151.664 248.844 154.056C250.014 155.351 251.127 156.603 251.283 156.828C251.734 157.433 251.987 157.18 252.481 155.688C252.861 154.506 253.016 154 253.749 151.326C253.989 150.44 254.68 147.246 255.201 144.503C255.469 143.124 255.963 139.381 256.301 136.201C256.414 135.23 256.47 132.543 256.47 129.448C256.47 124.312 256.456 124.213 255.836 119.036C255.469 115.926 254.511 111.185 253.651 108.202C252.608 104.558 250.296 98.5355 249.027 96.1014C248.844 95.7497 248.336 94.807 247.914 93.9909C246.208 90.6985 244.009 87.2795 241.584 84.0715C240.4 82.5379 237.539 79.1329 236.171 77.6696C233.733 75.0385 228.968 70.7471 225.979 68.4678C225.261 67.919 224.33 67.2155 223.921 66.906C222.469 65.7945 216.944 62.1785 214.745 60.9121C210.502 58.4358 207.964 57.1273 202.565 54.6228C200.93 53.849 196.18 51.8792 195.235 51.5696C194.812 51.4289 193.826 51.035 193.05 50.6832C191.33 49.9234 190.33 49.5576 186.749 48.3476C183.93 47.4049 183.535 47.3064 183.535 47.5596Z" fill="white"/>
<path d="M606.852 61.3313V69.4638L632.183 94.3537L657.5 119.244L659.248 119.286L660.982 119.328V86.3901V53.4661L653.905 53.4942L646.815 53.5364L646.744 71.2084L646.674 88.8664L628.56 71.0396L610.446 53.1987H608.656L606.852 53.1847V61.3313Z" fill="white"/>
<path d="M342.503 54.4072C342.137 55.1529 337.034 64.2985 335.962 66.1276C335.765 66.4793 335.92 66.7748 341.446 76.5394C344.575 82.069 351.285 93.9582 356.346 102.949L365.551 119.312H374.432C381.48 119.312 383.298 119.27 383.242 119.13C383.214 119.045 375.038 104.497 365.072 86.8106C355.119 69.1245 346.859 54.3931 346.718 54.0555L346.45 53.4645H344.716H342.968L342.503 54.4072Z" fill="white"/>
<path d="M811.672 60.4292V67.3939H831.562H851.452L851.128 67.9145C848.915 71.6431 844.827 74.851 840.64 76.1736C837.863 77.06 838.723 77.0038 824.612 77.06L811.672 77.1163V98.2074V119.312H818.791H825.909V105.186V91.0457L832.224 90.9894C837.341 90.9472 838.779 90.8909 839.865 90.694C840.598 90.5673 841.303 90.4266 841.429 90.3844C841.613 90.3422 843.741 93.6768 850.648 104.82L859.642 119.312H867.945C875.811 119.312 876.233 119.298 876.107 119.059C876.036 118.933 871.187 111.11 865.337 101.669L854.694 84.5172L855.765 83.673C861.446 79.1706 865.689 72.3747 867.268 65.2834C867.466 64.397 867.705 63.0885 867.804 62.399C868.001 61.0201 868.043 55.2514 867.86 54.1258L867.762 53.4645H839.71H811.672V60.4292Z" fill="white"/>
<path d="M391.602 60.6403V67.6753H406.234C422.12 67.6753 421.923 67.6612 424.503 68.4773C431.283 70.5878 436.245 76.0189 437.711 82.9132C438.148 84.9393 438.148 88.2598 437.711 90.2859C436.513 95.9562 432.848 100.768 427.731 103.385C426.955 103.779 425.743 104.3 425.052 104.539C422.515 105.383 422.487 105.383 413.789 105.383H405.839V91.3834V77.3837H398.72H391.602V98.3481V119.312L407.784 119.284L423.953 119.242L425.715 118.848C434.61 116.85 441.982 111.855 446.916 104.469C449.496 100.613 451.384 95.5481 452.005 90.8487C452.287 88.6819 452.287 84.5172 452.005 82.3504C451.258 76.6098 448.819 70.8833 445.14 66.2683C441.052 61.1186 434.821 56.9117 428.605 55.1107C424.023 53.7741 424.108 53.7741 406.657 53.6896L391.602 53.6052V60.6403Z" fill="white"/>
<path d="M452.399 53.7086C453.456 55.6784 476.109 95.8203 476.165 95.8203C476.25 95.8203 484.961 80.5402 485.032 80.2869C485.046 80.2025 481.719 74.1805 477.617 66.9063L470.174 53.6804L461.251 53.6382C456.346 53.6241 452.37 53.6523 452.399 53.7086Z" fill="white"/>
<path d="M501.159 71.7275C495.563 81.6891 488.909 93.4658 486.386 97.8978L481.805 105.946L485.371 112.629L488.937 119.312H490.855H492.786L506.008 95.4215C522.628 65.3819 528.506 54.8012 528.901 54.1258L529.211 53.6052H520.274L511.351 53.6193L501.159 71.7275Z" fill="white"/>
<path d="M537.074 60.5744V67.5391H566.888H596.702V60.5744V53.6097H566.888H537.074V60.5744Z" fill="white"/>
<path d="M671.133 60.5744V67.5391H701.229H731.325V60.5744V53.6097H701.229H671.133V60.5744Z" fill="white"/>
<path d="M741.374 75.5869C741.417 97.494 741.417 97.5785 741.713 98.887C742.178 100.899 742.544 101.926 743.531 103.91C744.588 106.063 745.716 107.624 747.619 109.524C752.764 114.66 759.108 117.825 766.565 118.993C768.82 119.345 774.008 119.331 776.263 118.979C782.465 118.008 787.935 115.616 792.713 111.761C798.084 107.428 800.833 102.545 801.383 96.3544C801.467 95.3835 801.524 86.8008 801.524 74.1799V53.6095H794.405H787.286V72.0694C787.286 91.8238 787.286 91.9223 786.582 94.1594C785.017 99.1965 780.83 103.291 775.755 104.768C767.706 107.09 758.995 102.517 756.345 94.5675C755.541 92.1474 755.569 92.9072 755.569 72.4493V53.6095H748.451H741.332L741.374 75.5869Z" fill="white"/>
<path d="M882.016 60.5744V67.5391H911.83H941.643V60.5744V53.6097H911.83H882.016V60.5744Z" fill="white"/>
<path d="M125.544 71.6556C125.361 71.9089 124.882 72.6405 124.473 73.3018C124.064 73.9631 123.176 75.3561 122.5 76.3973C121.823 77.4384 120.611 79.3379 119.821 80.6183C119.018 81.8987 118.257 83.0946 118.13 83.2916C117.989 83.4886 117.425 84.375 116.861 85.2614C116.297 86.1478 115.494 87.4141 115.071 88.0754C114.634 88.7367 113.703 90.1859 112.999 91.3115C112.294 92.4372 111.547 93.605 111.349 93.9145C111.025 94.407 109.503 96.8129 106.232 101.977C105.062 103.82 103.159 106.789 102.384 107.956C102.088 108.407 101.665 109.082 101.425 109.462C100.185 111.46 99.466 112.6 98.7894 113.641C97.8591 115.076 97.7745 115.217 95.5895 118.678C93.7711 121.534 93.0663 122.646 91.558 124.995C91.0928 125.713 90.3598 126.867 89.9369 127.542C89.0911 128.879 87.5405 131.327 87.0471 132.115C86.8638 132.382 86.1308 133.522 85.3978 134.647C84.6789 135.773 83.664 137.335 83.1706 138.137C82.6631 138.925 81.6482 140.529 80.9152 141.682C80.1821 142.836 79.4773 143.962 79.3505 144.173C79.2236 144.384 78.5611 145.425 77.8844 146.466C77.2078 147.507 76.4607 148.675 76.2351 149.069C76.0096 149.449 75.629 150.068 75.3753 150.434C75.1215 150.8 74.5718 151.644 74.1489 152.319C73.726 152.995 72.993 154.134 72.5278 154.852C72.0626 155.584 71.3719 156.667 70.9913 157.258C70.6107 157.863 70.0327 158.764 69.7085 159.27C69.3843 159.777 68.7499 160.79 68.2848 161.521C67.8337 162.253 67.0725 163.463 66.5932 164.195C66.1139 164.926 65.3104 166.193 64.8029 167.009C63.9713 168.345 62.7449 170.259 61.5326 172.144C60.9687 173.017 57.797 177.997 56.4297 180.164C53.7795 184.343 52.7787 185.834 52.3981 186.172C52.0739 186.439 51.9893 186.594 52.1021 186.707C52.2571 186.861 75.8263 186.904 86.6947 186.777C89.6831 186.735 115.465 186.636 143.997 186.552C172.528 186.468 196.308 186.397 196.858 186.383C198.07 186.355 198.169 186.144 197.464 185.173C197.211 184.821 195.97 182.88 194.716 180.868C191.417 175.577 191.347 175.451 189.923 173.213C188.231 170.526 187.23 168.922 186.215 167.29C185.116 165.503 184.496 164.504 180.972 158.918C180.394 157.99 179.731 156.934 179.52 156.555C178.772 155.26 179.971 155.387 167.087 155.274C160.828 155.218 153.864 155.148 151.609 155.119C149.367 155.091 141.854 155.021 134.947 154.965C121.189 154.866 121.696 154.894 122.33 154.092C122.5 153.881 122.739 153.515 122.866 153.29C122.993 153.051 123.359 152.46 123.698 151.954C124.896 150.11 125.883 148.549 130.901 140.515C132.085 138.629 133.142 136.969 134.82 134.366C135.694 133.015 136.85 131.172 137.4 130.286C138.598 128.316 139.246 127.275 141.671 123.462C142.7 121.83 143.827 120.029 144.18 119.452C144.518 118.875 145.138 117.89 145.547 117.271C145.942 116.652 146.619 115.611 147.027 114.949C148.874 112.023 149.396 111.207 149.959 110.362C150.284 109.87 150.551 109.378 150.551 109.279C150.551 109.181 150.34 108.815 150.1 108.477C149.847 108.139 149.41 107.506 149.142 107.056C148.691 106.324 148.127 105.424 146.182 102.441C145.829 101.906 145.195 100.907 144.758 100.218C144.321 99.5425 143.461 98.2059 142.855 97.2632C141.6 95.3215 138.908 91.1427 137.752 89.3417C136.751 87.7659 135.68 86.1056 134.439 84.2062C133.255 82.4052 132.085 80.562 130.831 78.5781C130.337 77.8043 129.59 76.6365 129.167 75.9752C128.744 75.3139 127.927 74.0476 127.349 73.1611C126.771 72.2747 126.306 71.5009 126.306 71.4587C126.306 71.4024 126.207 71.332 126.094 71.2757C125.967 71.2335 125.756 71.3742 125.544 71.6556Z" fill="white"/>
<path d="M318.582 96.9692C312.267 108.197 306.854 117.821 306.558 118.356L306.008 119.312L314.945 119.284L323.868 119.242L331.438 105.805C335.61 98.4184 339.008 92.3402 339.022 92.2979C339.022 92.1995 330.296 76.7927 330.169 76.652C330.113 76.6098 324.897 85.7554 318.582 96.9692Z" fill="white"/>
<path d="M537.074 98.2777V119.312H566.888H596.702V112.348V105.383H574.007H551.312V98.3481V91.313H571.047H590.782V84.278V77.243H563.928H537.074V98.2777Z" fill="white"/>
<path d="M882.016 98.2777V119.312H911.83H941.643V112.348V105.383H918.948H896.253V98.3481V91.313H915.988H935.723V84.278V77.243H908.869H882.016V98.2777Z" fill="white"/>
<path d="M693.688 98.3481V119.312H700.736H707.784V98.3481V77.3837H700.736H693.688V98.3481Z" fill="white"/>
<path d="M606.852 101.204V119.172H613.97H621.089V108.197V97.2085L615.62 91.8337C612.617 88.879 609.417 85.7273 608.501 84.8549L606.852 83.2369V101.204Z" fill="white"/>
<path d="M327.097 163.142C326.378 163.564 325.842 164.535 325.645 165.745C325.433 166.983 325.433 195.165 325.631 196.403C325.884 197.951 326.589 198.922 327.717 199.231C328.478 199.442 342.631 199.428 343.265 199.217C344.365 198.851 344.943 197.881 344.943 196.46C344.943 195.447 344.633 194.574 344.153 194.138C343.406 193.491 343.181 193.463 336.908 193.463H330.987V179.561C330.987 164.253 331.016 164.802 330.127 163.718C329.31 162.748 328.14 162.523 327.097 163.142Z" fill="white"/>
<path d="M497.394 163.004C496.604 163.286 495.617 164.397 495.166 165.509C494.532 167.099 486.328 194.76 486.159 195.858C485.976 197.096 486.102 197.701 486.737 198.7C487.427 199.783 488.555 200.192 489.641 199.741C490.458 199.404 490.853 198.545 491.924 194.873C492.263 193.677 492.671 192.27 492.826 191.735L493.108 190.793H498.648H504.188L504.583 192.228C505.753 196.435 506.528 198.616 507.092 199.207C508.318 200.529 510.278 199.924 511.109 197.983C511.377 197.321 511.363 195.886 511.067 194.732C510.94 194.226 509.108 188.148 506.979 181.225C504.865 174.303 502.99 168.154 502.821 167.577C502.384 166.072 501.876 164.932 501.327 164.172C500.438 162.962 498.846 162.498 497.394 163.004ZM500.692 178.2C501.778 182.069 502.637 185.249 502.623 185.277C502.595 185.291 500.777 185.291 498.564 185.277L494.56 185.235L496.534 177.961C497.859 173.135 498.564 170.757 498.634 170.926C498.69 171.052 499.621 174.331 500.692 178.2Z" fill="white"/>
<path d="M659.051 163.004C658.36 163.299 657.501 164.27 657.219 165.086C656.979 165.775 656.965 166.732 656.965 181.787V197.757L657.303 198.432C657.698 199.234 658.29 199.755 658.952 199.881C660.08 200.092 660.912 199.614 661.504 198.418L661.899 197.616L661.969 186.233L662.04 174.865L667.763 186.374C673.895 198.728 674.092 199.065 675.431 199.67C676.15 200.008 677.109 200.008 677.828 199.67C678.518 199.361 678.786 199.065 679.195 198.179L679.519 197.475L679.561 181.52C679.604 164.045 679.618 164.622 678.786 163.623C677.729 162.37 675.967 162.582 675.163 164.059C674.966 164.425 674.74 165.156 674.656 165.691C674.571 166.268 674.515 171.08 674.515 177.425L674.501 188.189L668.51 176.23C665.211 169.645 662.364 164.073 662.166 163.834C661.49 162.933 660.066 162.553 659.051 163.004Z" fill="white"/>
<path d="M744.631 162.992C743.996 163.273 743.362 164.117 743.108 165.032C742.911 165.749 742.883 167.55 742.883 181.381C742.883 198.181 742.869 197.702 743.616 198.814C744.081 199.489 744.603 199.827 745.322 199.897C746.252 200.01 747.14 199.546 747.633 198.701C748.38 197.435 748.38 197.505 748.38 181.367C748.38 165.229 748.38 165.299 747.633 164.033C747.013 162.978 745.716 162.527 744.631 162.992Z" fill="white"/>
<path d="M813.828 163.004C813.138 163.299 812.278 164.27 811.996 165.086C811.756 165.775 811.742 166.732 811.742 181.787V197.757L812.081 198.432C812.475 199.234 813.067 199.755 813.73 199.881C814.857 200.092 815.689 199.614 816.281 198.418L816.676 197.616L816.746 186.233L816.817 174.865L822.54 186.374C828.672 198.728 828.869 199.065 830.208 199.67C830.927 200.008 831.886 200.008 832.605 199.67C833.296 199.361 833.563 199.065 833.972 198.179L834.296 197.475L834.339 181.52C834.381 164.045 834.395 164.622 833.563 163.623C832.506 162.37 830.744 162.582 829.941 164.059C829.743 164.425 829.518 165.156 829.433 165.691C829.349 166.268 829.292 171.08 829.292 177.425L829.278 188.189L823.287 176.23C819.989 169.645 817.141 164.073 816.944 163.834C816.267 162.933 814.843 162.553 813.828 163.004Z" fill="white"/>
<path d="M908.306 162.93C903.781 163.634 900.13 166.616 898.227 171.175C896.07 176.353 895.83 184.331 897.663 189.931C899.862 196.656 904.711 200.23 911.181 199.892C914.24 199.737 916.693 198.851 919.653 196.839C921.429 195.629 922.092 194.7 922.332 193.082C922.501 191.872 922.515 184.682 922.332 183.486C922.148 182.206 921.683 181.376 920.908 180.94C920.288 180.588 920.259 180.588 916.2 180.546C913.507 180.518 911.928 180.546 911.59 180.644C910.434 180.996 909.715 182.6 910.054 184.077C910.223 184.851 910.603 185.344 911.336 185.738C911.59 185.878 912.478 185.949 914.55 185.977L917.398 186.033V188.903V191.774L916.665 192.252C915.509 192.984 914.311 193.547 913.169 193.898C911.717 194.349 909.137 194.363 907.925 193.912C903.922 192.449 901.864 187.693 902.075 180.447C902.258 174.707 903.851 171.006 906.896 169.248C908.475 168.333 911.111 168.178 912.69 168.896C914.24 169.613 915.001 170.486 916.383 173.173C916.806 173.989 917.313 174.763 917.609 175.002C918.85 176.1 920.555 175.523 921.317 173.778C921.697 172.92 921.599 171.231 921.105 169.867C919.879 166.49 917.215 164.056 913.733 163.155C912.647 162.874 909.546 162.747 908.306 162.93Z" fill="white"/>
<path d="M407.627 163.554C406.739 163.877 406.259 164.356 405.879 165.327C405.639 165.918 405.625 166.931 405.583 180.86C405.555 190.611 405.597 196.028 405.696 196.534C405.921 197.772 406.33 198.476 407.077 198.926L407.74 199.306L415.986 199.348C420.525 199.376 424.43 199.348 424.683 199.306C426.953 198.898 427.235 194.705 425.05 193.804C424.683 193.65 423.217 193.607 417.818 193.607H411.052V188.472V183.35L417.311 183.308C423.387 183.266 423.584 183.252 423.979 182.97C424.19 182.816 424.514 182.408 424.698 182.07C425.332 180.818 424.979 178.946 423.979 178.215C423.584 177.933 423.387 177.919 417.311 177.877L411.052 177.835V173.417V168.999L417.804 168.957C424.416 168.914 424.571 168.914 424.965 168.619C426.516 167.465 426.516 164.876 424.965 163.723C424.571 163.427 424.444 163.427 416.367 163.399C409.755 163.371 408.064 163.399 407.627 163.554Z" fill="white"/>
<path d="M574.403 163.554C573.5 163.877 573.148 164.201 572.767 165.017L572.387 165.819V181.648V197.476L572.725 198.222C572.908 198.616 573.275 199.137 573.529 199.376C574.67 200.375 576.517 199.967 577.236 198.56C577.757 197.519 577.814 196.731 577.814 190.301V184.04H579.181C581.126 184.04 582.015 184.321 583.015 185.25C584.087 186.234 584.876 187.613 586.92 192.045C589.486 197.659 589.725 198.124 590.205 198.771C591.642 200.727 594.264 200.108 594.871 197.659C595.011 197.111 594.997 196.843 594.744 195.858C594.307 194.1 593.531 192.13 592.404 189.836C591.121 187.219 589.88 185.362 588.64 184.138L587.667 183.181L588.132 183.026C589.528 182.534 590.895 181.704 591.84 180.747C592.967 179.607 593.588 178.552 594.053 176.934C594.335 175.963 594.377 175.485 594.377 173.417C594.377 170.659 594.208 169.787 593.306 167.887C592.615 166.452 591.304 165.003 590.106 164.37C588.414 163.469 588.259 163.455 581.267 163.399C576.15 163.371 574.825 163.399 574.403 163.554ZM586.004 169.111C587.794 169.674 588.823 171.376 588.837 173.782C588.837 175.569 588.541 176.442 587.625 177.356C587.033 177.961 586.68 178.172 585.905 178.426C585.031 178.707 584.58 178.749 581.38 178.805L577.814 178.862V173.839V168.816L581.662 168.886C583.946 168.914 585.708 169.013 586.004 169.111Z" fill="white"/>
<path d="M95.9289 192.437C95.5483 192.465 93.9272 192.606 92.3343 192.761C90.7414 192.901 89.3459 193.014 89.2331 193.014C88.3168 192.958 88.3027 193.309 89.1908 193.928C89.5573 194.168 90.2339 194.674 90.6991 195.026C91.1784 195.378 92.4753 196.278 93.603 197.024C94.7307 197.77 95.9289 198.586 96.2813 198.825C99.2697 200.851 107.065 205.03 111.787 207.14C120.273 210.953 128.097 213.514 137.09 215.428C139.374 215.92 145.337 216.806 147.804 217.032C148.353 217.074 149.27 217.186 149.848 217.257C150.426 217.327 151.666 217.44 152.596 217.524C153.527 217.594 154.302 217.721 154.33 217.805C154.401 218.002 161.505 218.002 161.576 217.805C161.604 217.735 162.577 217.58 163.733 217.454C170.189 216.82 170.175 216.82 174.305 216.173C181.494 215.048 191.15 212.163 197.592 209.237C198.466 208.843 199.213 208.519 199.242 208.519C199.27 208.519 200.44 207.97 201.821 207.295C208.334 204.129 215.565 199.683 221.528 195.181C222.078 194.773 222.74 194.294 223.008 194.125C224.094 193.422 223.783 193.352 217.962 192.901L215.791 192.733L214.987 193.281C214.55 193.591 213.845 194.041 213.423 194.266C213 194.505 212.083 195.026 211.379 195.434C206.417 198.332 198.762 201.78 192.419 203.96C187.499 205.649 184.426 206.521 178.957 207.773C174.136 208.871 168.37 209.715 162.182 210.208C159.292 210.447 151.018 210.405 147.945 210.137C144.209 209.814 137.809 208.927 135.328 208.378C133.721 208.027 128.886 206.845 128.351 206.69C123.163 205.086 118.511 203.44 115.946 202.3C115.171 201.948 114.127 201.484 113.62 201.273C111.054 200.162 104.528 196.714 101.751 194.998C101.074 194.576 100.186 194.027 99.7772 193.774C99.3684 193.52 98.72 193.098 98.3394 192.831C97.6346 192.324 97.6205 192.324 95.9289 192.437Z" fill="white"/>
</svg>
