<svg width="927" height="745" viewBox="0 0 927 745" fill="none" xmlns="http://www.w3.org/2000/svg">
<g clip-path="url(#clip0_3155_10919)">
<g clip-path="url(#clip1_3155_10919)">
<path d="M150.773 751.343C135.648 747.153 128.59 728.172 136.928 714.111C141.815 705.871 154.014 701.219 163.593 703.944C174.258 706.976 176.399 708.779 173.543 712.319C171.458 714.901 170.762 714.917 167.352 712.462C156.714 704.8 140.708 713.796 140.708 727.438C140.708 741.079 156.714 750.075 167.352 742.412C170.659 740.032 171.492 740.014 173.327 742.288C175.025 744.393 174.603 745.498 171.251 747.718C166.401 750.932 155.958 752.781 150.773 751.345V751.343ZM184.297 727.437C184.297 703.469 184.479 702.224 187.93 702.224C191.159 702.224 191.562 703.469 191.562 713.429V724.635H204.276H216.99V713.429C216.99 703.469 217.394 702.224 220.622 702.224C224.075 702.224 224.255 703.469 224.255 727.437C224.255 751.404 224.073 752.65 220.622 752.65C217.43 752.65 216.99 751.404 216.99 742.378V732.106H204.276H191.562V742.378C191.562 751.404 191.121 752.65 187.93 752.65C184.477 752.65 184.297 751.404 184.297 727.437ZM238.784 727.437V702.224H255.131C270.266 702.224 271.477 702.501 271.477 705.959C271.477 709.338 270.266 709.694 258.763 709.694H246.05V717.165V724.635H257.855C268.45 724.635 269.661 725.017 269.661 728.37C269.661 731.722 268.45 732.106 257.855 732.106H246.05V738.642V745.179H259.671C272.082 745.179 273.293 745.513 273.293 748.914C273.293 752.387 272.082 752.65 256.039 752.65H238.784V727.437ZM284.19 727.437C284.19 695.247 285.61 694.709 303.424 720.142L315.974 738.061L316.494 720.142C316.97 703.76 317.32 702.224 320.581 702.224C323.95 702.224 324.148 703.623 324.148 727.437C324.148 751.062 323.929 752.65 320.657 752.65C318.314 752.65 313.093 746.736 304.765 734.648L292.364 716.646L291.844 734.648C291.368 751.112 291.02 752.65 287.757 752.65C284.388 752.65 284.19 751.249 284.19 727.437ZM338.678 727.437C338.678 695.247 340.097 694.709 357.911 720.142L370.462 738.061L370.982 720.142C371.457 703.76 371.807 702.224 375.068 702.224C378.437 702.224 378.635 703.623 378.635 727.437C378.635 751.062 378.416 752.65 375.145 752.65C372.801 752.65 367.58 746.736 359.252 734.648L346.85 716.646L346.331 734.648C345.856 751.112 345.506 752.65 342.244 752.65C338.876 752.65 338.678 751.249 338.678 727.437ZM387.716 751.044C387.716 750.162 392.152 739.026 397.574 726.299C410.901 695.017 412.045 695.021 425.196 726.404C430.554 739.19 434.938 750.325 434.938 751.15C434.938 751.974 433.384 752.649 431.483 752.649C429.278 752.649 427.342 750.623 426.129 747.046C424.258 741.526 424.038 741.443 411.264 741.443C398.525 741.443 398.262 741.539 396.241 747.046C394.381 752.115 387.716 755.241 387.716 751.044ZM420.106 732.52C419.771 731.721 417.908 726.678 415.963 721.315C414.018 715.95 411.974 711.565 411.422 711.569C410.871 711.572 409.017 715.144 407.304 719.506C401.168 735.124 400.851 733.973 411.284 733.973C416.469 733.973 420.439 733.319 420.106 732.52ZM444.02 727.437C444.02 703.469 444.201 702.224 447.652 702.224C451.105 702.224 451.284 703.469 451.284 727.437C451.284 751.404 451.103 752.65 447.652 752.65C444.199 752.65 444.02 751.404 444.02 727.437ZM497.674 751.343C482.549 747.153 475.491 728.172 483.83 714.111C488.717 705.871 500.915 701.219 510.495 703.944C521.159 706.976 523.301 708.779 520.444 712.319C518.36 714.901 517.664 714.917 514.254 712.462C503.615 704.8 487.609 713.796 487.609 727.438C487.609 741.079 503.615 750.075 514.254 742.412C517.56 740.032 518.394 740.014 520.228 742.288C521.927 744.393 521.505 745.498 518.153 747.718C513.303 750.932 502.859 752.781 497.674 751.345V751.343ZM531.199 727.437V702.224H547.545C562.68 702.224 563.891 702.501 563.891 705.959C563.891 709.338 562.68 709.694 551.178 709.694H538.464V717.165V724.635H550.27C560.864 724.635 562.075 725.017 562.075 728.37C562.075 731.722 560.864 732.106 550.27 732.106H538.464V738.642V745.179H552.086C564.497 745.179 565.708 745.513 565.708 748.914C565.708 752.387 564.497 752.65 548.453 752.65H531.199V727.437ZM576.605 727.437C576.605 695.247 578.024 694.709 595.838 720.142L608.389 738.061L608.909 720.142C609.384 703.76 609.735 702.224 612.996 702.224C616.364 702.224 616.562 703.623 616.562 727.437C616.562 751.062 616.344 752.65 613.072 752.65C610.728 752.65 605.508 746.736 597.18 734.648L584.778 716.646L584.258 734.648C583.783 751.112 583.434 752.65 580.172 752.65C576.803 752.65 576.605 751.249 576.605 727.437ZM640.173 731.172V709.694H632.908C626.854 709.694 625.644 709.071 625.644 705.959C625.644 702.473 626.854 702.224 643.806 702.224C660.758 702.224 661.968 702.472 661.968 705.959C661.968 709.071 660.758 709.694 654.703 709.694H647.438V731.172C647.438 751.404 647.229 752.65 643.806 752.65C640.384 752.65 640.173 751.404 640.173 731.172ZM671.05 727.437V702.224L681.493 702.329C702.948 702.544 711.794 710.2 707.525 724.853C706.373 728.808 703.81 732.936 701.83 734.026C698.34 735.946 698.401 736.263 703.797 744.328C709.326 752.591 709.335 752.649 705.191 752.635C702.232 752.635 699.811 750.449 696.877 745.164C693.139 738.435 692.033 737.708 685.525 737.708C678.323 737.708 678.314 737.708 678.314 745.179C678.314 751.404 677.709 752.649 674.682 752.649C671.229 752.649 671.05 751.404 671.05 727.437ZM698.604 727.145C706.771 719.545 700.284 709.692 687.114 709.692H678.314V719.964V730.236H686.799C692.144 730.236 696.511 729.093 698.604 727.145ZM716.456 751.043C716.456 750.16 720.892 739.024 726.314 726.297C739.64 695.015 740.785 695.019 753.936 726.402C759.294 739.188 763.678 750.323 763.678 751.148C763.678 751.972 762.123 752.647 760.222 752.647C758.017 752.647 756.081 750.621 754.868 747.044C752.997 741.524 752.777 741.441 740.003 741.441C727.265 741.441 727.001 741.537 724.981 747.044C723.12 752.113 716.456 755.239 716.456 751.043ZM748.845 732.518C748.51 731.719 746.648 726.676 744.702 721.313C742.757 715.948 740.713 711.563 740.162 711.567C739.61 711.57 737.756 715.142 736.043 719.504C729.908 735.122 729.591 733.971 740.024 733.971C745.208 733.971 749.178 733.317 748.845 732.518ZM772.759 727.435C772.759 703.467 772.94 702.222 776.391 702.222C779.813 702.222 780.024 703.467 780.024 723.699V745.177H790.013C798.792 745.177 800.002 745.631 800.002 748.912C800.002 752.315 798.792 752.648 786.38 752.648H772.759V727.435ZM1.70251 563.588C1.21711 562.285 1.03297 519.197 1.29334 467.838L1.76576 374.457L16.5872 373.917C30.0417 373.427 31.6789 372.953 34.3374 368.782C38.4452 362.335 48.6344 362.337 52.7427 368.783C55.4301 373 56.9769 373.426 71.4009 373.919L87.129 374.457V469.705V564.954L44.8572 565.455C12.0257 565.842 2.3883 565.407 1.70251 563.588ZM22.652 543.298C22.652 530.925 23.4591 524.905 25.6225 521.139C31.6696 510.613 44.5978 506.946 55.404 512.692C63.7512 517.131 66.2419 524.184 66.2419 543.383V560.285H74.4151H82.5879V469.705V379.126H69.0659H55.5435L54.9897 387.997C54.4374 396.851 54.4225 396.87 47.3447 397.465C34.2449 398.568 31.7333 396.963 31.7333 387.495V379.126H19.0198H6.30595V469.705V560.285H14.4792H22.652V543.298ZM22.652 461.301C22.652 455.906 23.4089 453.831 25.3765 453.831C27.5794 453.831 28.1006 450.863 28.1006 438.329C28.1006 421.992 29.5922 418.346 36.2739 418.346C38.3717 418.346 41.0688 419.355 42.2675 420.587C43.9627 422.33 44.9312 422.33 46.6263 420.587C47.8254 419.355 50.5221 418.346 52.6199 418.346C59.2203 418.346 60.7932 422.024 60.7932 437.454C60.7932 448.732 61.4167 452.327 63.5173 453.156C65.2934 453.856 66.2419 456.761 66.2419 461.501V468.772H44.4472H22.652V461.301ZM62.6092 461.301C62.6092 457.815 61.3986 457.566 44.4472 457.566C27.4953 457.566 26.2846 457.815 26.2846 461.301C26.2846 464.788 27.4953 465.036 44.4472 465.036C61.3986 465.036 62.6092 464.788 62.6092 461.301ZM40.4337 438.423C39.9553 424.441 39.5704 423.015 36.2739 423.015C32.9774 423.015 32.5924 424.441 32.114 438.423L31.5863 453.831H36.2739H40.9614L40.4337 438.423ZM56.7802 438.423C56.3014 424.441 55.9164 423.015 52.6199 423.015C49.3239 423.015 48.939 424.441 48.4601 438.423L47.9324 453.831H52.6199H57.3075L56.7802 438.423ZM60.4575 543.513C59.7861 529.074 59.0799 526.088 55.3784 522.036C52.3056 518.672 49.1863 517.33 44.4472 517.33C39.7075 517.33 36.5886 518.672 33.5158 522.036C29.8139 526.088 29.1077 529.074 28.4363 543.513L27.6566 560.285H44.4472H61.2377L60.4575 543.513ZM49.5364 380.527C49.0031 371.003 48.8315 370.722 43.5391 370.722C38.2462 370.722 38.0746 371.004 37.5413 380.527L36.9923 390.332H43.5391H50.0855L49.5364 380.527ZM96.1336 563.555C95.6501 562.26 95.4696 530.949 95.7337 493.975L96.2112 426.75H246.051H395.89V495.852V564.954L246.452 565.432C127.564 565.81 96.8338 565.429 96.135 563.556L96.1336 563.555ZM133.443 543.298C133.443 524.487 135.713 518.198 144.412 512.914C154.49 506.792 167.968 510.531 174.062 521.139C176.225 524.905 177.032 530.925 177.032 543.298V560.285H200.644H224.255V543.298C224.255 530.925 225.062 524.905 227.225 521.139C233.272 510.613 246.2 506.946 257.007 512.692C265.354 517.131 267.844 524.184 267.844 543.383V560.285H291.456H315.066V543.383C315.066 524.184 317.557 517.131 325.905 512.692C336.788 506.905 350.757 510.775 355.901 521.004C357.768 524.717 358.656 531.929 358.656 543.383V560.285H375.002H391.348V495.852V431.419H246.05H100.75V495.852V560.285H117.097H133.443V543.298ZM111.648 480.911V468.772H118.005H124.361V459.807C124.361 454.877 125.342 449.834 126.541 448.601C129.258 445.807 135.699 445.692 138.323 448.391C139.745 449.853 140.639 449.853 141.518 448.391C143.151 445.675 150.339 445.806 153.058 448.601C154.257 449.834 155.238 454.877 155.238 459.807V468.772H167.043H178.849V459.807C178.849 454.877 179.83 449.834 181.028 448.601C183.745 445.807 190.186 445.692 192.81 448.391C194.232 449.853 195.126 449.853 196.005 448.391C197.638 445.675 204.826 445.806 207.545 448.601C208.744 449.834 209.725 454.877 209.725 459.807V468.772H220.622H231.52V459.807C231.52 454.877 232.5 449.834 233.699 448.601C236.416 445.807 242.857 445.692 245.481 448.391C246.903 449.853 247.797 449.853 248.676 448.391C250.309 445.675 257.498 445.806 260.216 448.601C261.415 449.834 262.396 454.877 262.396 459.807V468.772H273.293H284.19V459.807C284.19 454.877 285.171 449.834 286.37 448.601C289.087 445.807 295.528 445.692 298.152 448.391C299.574 449.853 300.468 449.853 301.347 448.391C302.979 445.675 310.168 445.806 312.887 448.601C314.086 449.834 315.066 454.877 315.066 459.807V468.772H325.964H336.862V459.807C336.862 454.877 337.842 449.834 339.041 448.601C341.758 445.807 348.199 445.692 350.823 448.391C352.245 449.853 353.139 449.853 354.018 448.391C355.65 445.675 362.839 445.806 365.558 448.601C366.757 449.834 367.738 454.877 367.738 459.807V468.772H374.094H380.451V480.911V493.051H246.05H111.648V480.911ZM375.002 480.911V474.374H246.05H117.097V480.911V487.448H246.05H375.002V480.911ZM129.81 480.911C129.81 478.343 130.627 476.242 131.626 476.242C132.625 476.242 133.443 478.343 133.443 480.911C133.443 483.479 132.625 485.58 131.626 485.58C130.627 485.58 129.81 483.479 129.81 480.911ZM140.708 480.911C140.708 478.343 141.525 476.242 142.524 476.242C143.523 476.242 144.34 478.343 144.34 480.911C144.34 483.479 143.523 485.58 142.524 485.58C141.525 485.58 140.708 483.479 140.708 480.911ZM151.605 480.911C151.605 478.343 152.422 476.242 153.421 476.242C154.42 476.242 155.238 478.343 155.238 480.911C155.238 483.479 154.42 485.58 153.421 485.58C152.422 485.58 151.605 483.479 151.605 480.911ZM162.502 480.911C162.502 478.343 163.32 476.242 164.319 476.242C165.318 476.242 166.135 478.343 166.135 480.911C166.135 483.479 165.318 485.58 164.319 485.58C163.32 485.58 162.502 483.479 162.502 480.911ZM173.4 480.911C173.4 478.343 174.217 476.242 175.216 476.242C176.215 476.242 177.032 478.343 177.032 480.911C177.032 483.479 176.215 485.58 175.216 485.58C174.217 485.58 173.4 483.479 173.4 480.911ZM184.297 480.911C184.297 478.343 185.115 476.242 186.114 476.242C187.112 476.242 187.93 478.343 187.93 480.911C187.93 483.479 187.112 485.58 186.114 485.58C185.115 485.58 184.297 483.479 184.297 480.911ZM195.195 480.911C195.195 478.343 196.012 476.242 197.011 476.242C198.01 476.242 198.827 478.343 198.827 480.911C198.827 483.479 198.01 485.58 197.011 485.58C196.012 485.58 195.195 483.479 195.195 480.911ZM206.092 480.911C206.092 478.343 206.91 476.242 207.908 476.242C208.908 476.242 209.725 478.343 209.725 480.911C209.725 483.479 208.908 485.58 207.908 485.58C206.91 485.58 206.092 483.479 206.092 480.911ZM216.99 480.911C216.99 478.343 217.807 476.242 218.806 476.242C219.805 476.242 220.622 478.343 220.622 480.911C220.622 483.479 219.805 485.58 218.806 485.58C217.807 485.58 216.99 483.479 216.99 480.911ZM227.887 480.911C227.887 478.343 228.704 476.242 229.703 476.242C230.702 476.242 231.52 478.343 231.52 480.911C231.52 483.479 230.702 485.58 229.703 485.58C228.704 485.58 227.887 483.479 227.887 480.911ZM238.784 480.911C238.784 478.343 239.602 476.242 240.601 476.242C241.6 476.242 242.417 478.343 242.417 480.911C242.417 483.479 241.6 485.58 240.601 485.58C239.602 485.58 238.784 483.479 238.784 480.911ZM249.682 480.911C249.682 478.343 250.499 476.242 251.498 476.242C252.497 476.242 253.314 478.343 253.314 480.911C253.314 483.479 252.497 485.58 251.498 485.58C250.499 485.58 249.682 483.479 249.682 480.911ZM260.579 480.911C260.579 478.343 261.397 476.242 262.396 476.242C263.394 476.242 264.212 478.343 264.212 480.911C264.212 483.479 263.394 485.58 262.396 485.58C261.397 485.58 260.579 483.479 260.579 480.911ZM271.477 480.911C271.477 478.343 272.294 476.242 273.293 476.242C274.292 476.242 275.109 478.343 275.109 480.911C275.109 483.479 274.292 485.58 273.293 485.58C272.294 485.58 271.477 483.479 271.477 480.911ZM282.374 480.911C282.374 478.343 283.192 476.242 284.19 476.242C285.19 476.242 286.007 478.343 286.007 480.911C286.007 483.479 285.19 485.58 284.19 485.58C283.192 485.58 282.374 483.479 282.374 480.911ZM293.272 480.911C293.272 478.343 294.089 476.242 295.088 476.242C296.087 476.242 296.904 478.343 296.904 480.911C296.904 483.479 296.087 485.58 295.088 485.58C294.089 485.58 293.272 483.479 293.272 480.911ZM304.169 480.911C304.169 478.343 304.986 476.242 305.985 476.242C306.984 476.242 307.802 478.343 307.802 480.911C307.802 483.479 306.984 485.58 305.985 485.58C304.986 485.58 304.169 483.479 304.169 480.911ZM315.066 480.911C315.066 478.343 315.884 476.242 316.883 476.242C317.882 476.242 318.699 478.343 318.699 480.911C318.699 483.479 317.882 485.58 316.883 485.58C315.884 485.58 315.066 483.479 315.066 480.911ZM325.964 480.911C325.964 478.343 326.781 476.242 327.78 476.242C328.779 476.242 329.596 478.343 329.596 480.911C329.596 483.479 328.779 485.58 327.78 485.58C326.781 485.58 325.964 483.479 325.964 480.911ZM336.862 480.911C336.862 478.343 337.679 476.242 338.678 476.242C339.676 476.242 340.494 478.343 340.494 480.911C340.494 483.479 339.676 485.58 338.678 485.58C337.679 485.58 336.862 483.479 336.862 480.911ZM347.759 480.911C347.759 478.343 348.576 476.242 349.575 476.242C350.574 476.242 351.391 478.343 351.391 480.911C351.391 483.479 350.574 485.58 349.575 485.58C348.576 485.58 347.759 483.479 347.759 480.911ZM358.656 480.911C358.656 478.343 359.474 476.242 360.472 476.242C361.472 476.242 362.289 478.343 362.289 480.911C362.289 483.479 361.472 485.58 360.472 485.58C359.474 485.58 358.656 483.479 358.656 480.911ZM136.72 459.901C136.255 452.464 135.579 451.029 132.535 451.029C129.49 451.029 128.813 452.464 128.349 459.901C127.82 468.363 128.014 468.772 132.535 468.772C137.056 468.772 137.249 468.36 136.72 459.901ZM151.25 459.901C150.785 452.464 150.109 451.029 147.064 451.029C144.02 451.029 143.343 452.464 142.879 459.901C142.35 468.363 142.544 468.772 147.064 468.772C151.586 468.772 151.779 468.36 151.25 459.901ZM191.208 459.901C190.743 452.464 190.067 451.029 187.022 451.029C183.977 451.029 183.3 452.464 182.836 459.901C182.308 468.363 182.501 468.772 187.022 468.772C191.543 468.772 191.736 468.36 191.208 459.901ZM205.738 459.901C205.273 452.464 204.597 451.029 201.552 451.029C198.507 451.029 197.829 452.464 197.365 459.901C196.838 468.363 197.031 468.772 201.552 468.772C206.073 468.772 206.266 468.36 205.738 459.901ZM243.879 459.901C243.414 452.464 242.737 451.029 239.693 451.029C236.648 451.029 235.971 452.464 235.507 459.901C234.978 468.363 235.172 468.772 239.693 468.772C244.214 468.772 244.407 468.36 243.879 459.901ZM258.409 459.901C257.944 452.464 257.267 451.029 254.222 451.029C251.178 451.029 250.501 452.464 250.037 459.901C249.508 468.363 249.702 468.772 254.222 468.772C258.744 468.772 258.937 468.36 258.409 459.901ZM296.55 459.901C296.085 452.464 295.409 451.029 292.364 451.029C289.319 451.029 288.641 452.464 288.177 459.901C287.65 468.363 287.843 468.772 292.364 468.772C296.885 468.772 297.078 468.36 296.55 459.901ZM311.08 459.901C310.615 452.464 309.939 451.029 306.894 451.029C303.848 451.029 303.171 452.464 302.707 459.901C302.18 468.363 302.373 468.772 306.894 468.772C311.415 468.772 311.608 468.36 311.08 459.901ZM349.22 459.901C348.755 452.464 348.079 451.029 345.034 451.029C341.989 451.029 341.313 452.464 340.849 459.901C340.32 468.363 340.514 468.772 345.034 468.772C349.556 468.772 349.748 468.36 349.22 459.901ZM363.75 459.901C363.285 452.464 362.609 451.029 359.564 451.029C356.519 451.029 355.843 452.464 355.379 459.901C354.85 468.363 355.044 468.772 359.564 468.772C364.086 468.772 364.278 468.36 363.75 459.901ZM171.248 543.513C170.577 529.074 169.87 526.088 166.169 522.036C163.096 518.672 159.977 517.33 155.238 517.33C150.498 517.33 147.379 518.672 144.306 522.036C140.605 526.088 139.898 529.074 139.227 543.513L138.447 560.285H155.238H172.028L171.248 543.513ZM262.06 543.513C261.389 529.074 260.682 526.088 256.981 522.036C253.908 518.672 250.789 517.33 246.05 517.33C241.31 517.33 238.191 518.672 235.118 522.036C231.417 526.088 230.71 529.074 230.039 543.513L229.259 560.285H246.05H262.84L262.06 543.513ZM352.872 543.513C352.201 529.074 351.494 526.088 347.793 522.036C344.72 518.672 341.601 517.33 336.862 517.33C332.122 517.33 329.003 518.672 325.93 522.036C322.228 526.088 321.522 529.074 320.851 543.513L320.071 560.285H336.862H353.652L352.872 543.513ZM404.909 563.579C404.427 562.281 404.244 481.798 404.504 384.729L404.972 208.239L425.485 207.71C441.732 207.29 446.216 206.597 447.046 204.373C448.526 200.406 457.351 196.1 464 196.1C470.649 196.1 479.473 200.406 480.954 204.373C481.784 206.597 486.269 207.292 502.515 207.71L523.028 208.239V386.596V564.954L464.407 565.447C418.485 565.834 405.596 565.447 404.91 563.579H404.909ZM433.122 521.359C433.122 484.326 433.327 482.037 437.304 474.3C448.359 452.803 479.073 452.331 490.721 473.479C494.61 480.54 494.816 482.894 494.844 520.598L494.891 560.285H506.696H518.501V386.596V212.908H502.358H486.213L485.056 219.255C482.472 233.414 470.38 241.145 457.663 236.768C449.416 233.93 444.11 227.234 443.542 218.948L443.128 212.915L426.328 212.912L409.527 212.908V386.596V560.285H421.333H433.139V521.359L433.122 521.359ZM424.041 344.575C424.041 330.88 424.143 330.568 428.582 330.568H433.122V302.809C433.122 275.306 433.169 275.003 437.91 270.125C444.265 263.591 452.789 263.522 459.045 269.958L463.668 274.712L468.291 269.958C474.524 263.549 484.276 263.474 490.416 269.79C494.754 274.251 494.874 275.13 494.874 302.474V330.573H499.415C503.855 330.573 503.956 330.883 503.956 344.58V358.587H463.998H424.041V344.58V344.575ZM498.506 344.575V336.171H463.998H429.49V344.575V352.98H463.998H498.506V344.575ZM440.387 344.575C440.387 342.007 441.204 339.906 442.203 339.906C443.202 339.906 444.02 342.007 444.02 344.575C444.02 347.143 443.202 349.244 442.203 349.244C441.204 349.244 440.387 347.143 440.387 344.575ZM451.284 344.575C451.284 342.007 452.102 339.906 453.1 339.906C454.1 339.906 454.917 342.007 454.917 344.575C454.917 347.143 454.1 349.244 453.1 349.244C452.102 349.244 451.284 347.143 451.284 344.575ZM462.182 344.575C462.182 342.007 462.999 339.906 463.998 339.906C464.997 339.906 465.814 342.007 465.814 344.575C465.814 347.143 464.997 349.244 463.998 349.244C462.999 349.244 462.182 347.143 462.182 344.575ZM473.079 344.575C473.079 342.007 473.896 339.906 474.896 339.906C475.894 339.906 476.712 342.007 476.712 344.575C476.712 347.143 475.894 349.244 474.896 349.244C473.896 349.244 473.079 347.143 473.079 344.575ZM483.977 344.575C483.977 342.007 484.794 339.906 485.793 339.906C486.792 339.906 487.609 342.007 487.609 344.575C487.609 347.143 486.792 349.244 485.793 349.244C484.794 349.244 483.977 347.143 483.977 344.575ZM458.55 304.101C458.55 282.095 458.043 277.06 455.544 274.22C451.806 269.972 446.249 269.84 441.892 273.895C438.968 276.616 438.571 280.194 438.571 303.777V330.567H448.56H458.55V304.101ZM489.426 304.101C489.426 282.095 488.919 277.06 486.42 274.22C482.682 269.972 477.126 269.84 472.768 273.895C469.844 276.616 469.447 280.194 469.447 303.777V330.567H479.436H489.426V304.101ZM489.105 519.664C488.467 477.441 487.885 474.932 477.041 467.613C470.699 463.331 457.301 463.331 450.958 467.613C440.115 474.932 439.533 477.441 438.895 519.664L438.31 558.417H464H489.69L489.105 519.664ZM471.099 230.738C473.906 229.246 477.258 225.404 478.548 222.201C483.584 209.699 470.617 196.564 458.384 201.774C450.403 205.173 446.335 214.464 449.446 222.188C451.686 227.746 458.624 233.218 463.636 233.377C464.934 233.425 468.293 232.231 471.099 230.738ZM466.27 219.967C463.239 218.463 462.184 216.326 462.184 211.689C462.184 208.251 463.001 205.438 464 205.438C464.999 205.438 465.816 207.943 465.816 211.005C465.816 215.386 466.784 216.822 470.357 217.744C472.854 218.389 474.897 219.665 474.897 220.581C474.897 222.752 471.382 222.502 466.27 219.967ZM532.033 563.555C531.55 562.26 531.369 530.949 531.633 493.975L532.11 426.75H681.95H831.79V495.852V564.954L682.351 565.432C563.463 565.81 532.733 565.429 532.034 563.556L532.033 563.555ZM569.342 543.298C569.342 524.487 571.612 518.198 580.311 512.914C590.39 506.792 603.867 510.531 609.961 521.139C612.125 524.905 612.931 530.925 612.931 543.298V560.285H636.543H660.154V543.298C660.154 530.925 660.961 524.905 663.124 521.139C669.171 510.613 682.1 506.946 692.906 512.692C701.253 517.131 703.743 524.184 703.743 543.383V560.285H727.355H750.965V543.383C750.965 524.184 753.456 517.131 761.804 512.692C772.687 506.905 786.656 510.775 791.8 521.004C793.667 524.717 794.555 531.929 794.555 543.383V560.285H810.901H827.247V495.852V431.419H681.949H536.649V495.852V560.285H552.996H569.342V543.298ZM547.547 480.911V468.772H553.904H560.261V459.807C560.261 454.877 561.241 449.834 562.44 448.601C565.157 445.807 571.598 445.692 574.222 448.391C575.644 449.853 576.539 449.853 577.417 448.391C579.05 445.675 586.239 445.806 588.957 448.601C590.156 449.834 591.137 454.877 591.137 459.807V468.772H602.034H612.931V459.807C612.931 454.877 613.913 449.834 615.111 448.601C617.828 445.807 624.269 445.692 626.893 448.391C628.315 449.853 629.209 449.853 630.088 448.391C631.72 445.675 638.909 445.806 641.628 448.601C642.827 449.834 643.808 454.877 643.808 459.807V468.772H654.705H665.603V459.807C665.603 454.877 666.583 449.834 667.782 448.601C670.499 445.807 676.94 445.692 679.564 448.391C680.986 449.853 681.88 449.853 682.759 448.391C684.392 445.675 691.581 445.806 694.299 448.601C695.498 449.834 696.479 454.877 696.479 459.807V468.772H707.376H718.273V459.807C718.273 454.877 719.254 449.834 720.453 448.601C723.17 445.807 729.611 445.692 732.235 448.391C733.657 449.853 734.551 449.853 735.43 448.391C737.062 445.675 744.251 445.806 746.97 448.601C748.169 449.834 749.149 454.877 749.149 459.807V468.772H760.955H772.761V459.807C772.761 454.877 773.741 449.834 774.94 448.601C777.657 445.807 784.098 445.692 786.722 448.391C788.144 449.853 789.038 449.853 789.917 448.391C791.55 445.675 798.739 445.806 801.457 448.601C802.656 449.834 803.637 454.877 803.637 459.807V468.772H809.993H816.35V480.911V493.051H681.949H547.547V480.911ZM810.901 480.911V474.374H681.949H552.996V480.911V487.448H681.949H810.901V480.911ZM565.709 480.911C565.709 478.343 566.527 476.242 567.526 476.242C568.525 476.242 569.342 478.343 569.342 480.911C569.342 483.479 568.525 485.58 567.526 485.58C566.527 485.58 565.709 483.479 565.709 480.911ZM576.607 480.911C576.607 478.343 577.424 476.242 578.423 476.242C579.422 476.242 580.239 478.343 580.239 480.911C580.239 483.479 579.422 485.58 578.423 485.58C577.424 485.58 576.607 483.479 576.607 480.911ZM587.504 480.911C587.504 478.343 588.322 476.242 589.32 476.242C590.319 476.242 591.137 478.343 591.137 480.911C591.137 483.479 590.319 485.58 589.32 485.58C588.322 485.58 587.504 483.479 587.504 480.911ZM598.402 480.911C598.402 478.343 599.219 476.242 600.218 476.242C601.217 476.242 602.034 478.343 602.034 480.911C602.034 483.479 601.217 485.58 600.218 485.58C599.219 485.58 598.402 483.479 598.402 480.911ZM609.299 480.911C609.299 478.343 610.116 476.242 611.115 476.242C612.114 476.242 612.931 478.343 612.931 480.911C612.931 483.479 612.114 485.58 611.115 485.58C610.116 485.58 609.299 483.479 609.299 480.911ZM620.197 480.911C620.197 478.343 621.014 476.242 622.013 476.242C623.011 476.242 623.829 478.343 623.829 480.911C623.829 483.479 623.011 485.58 622.013 485.58C621.014 485.58 620.197 483.479 620.197 480.911ZM631.094 480.911C631.094 478.343 631.911 476.242 632.91 476.242C633.909 476.242 634.726 478.343 634.726 480.911C634.726 483.479 633.909 485.58 632.91 485.58C631.911 485.58 631.094 483.479 631.094 480.911ZM641.991 480.911C641.991 478.343 642.809 476.242 643.808 476.242C644.807 476.242 645.624 478.343 645.624 480.911C645.624 483.479 644.807 485.58 643.808 485.58C642.809 485.58 641.991 483.479 641.991 480.911ZM652.889 480.911C652.889 478.343 653.706 476.242 654.705 476.242C655.704 476.242 656.521 478.343 656.521 480.911C656.521 483.479 655.704 485.58 654.705 485.58C653.706 485.58 652.889 483.479 652.889 480.911ZM663.786 480.911C663.786 478.343 664.604 476.242 665.603 476.242C666.601 476.242 667.419 478.343 667.419 480.911C667.419 483.479 666.601 485.58 665.603 485.58C664.604 485.58 663.786 483.479 663.786 480.911ZM674.684 480.911C674.684 478.343 675.501 476.242 676.5 476.242C677.499 476.242 678.316 478.343 678.316 480.911C678.316 483.479 677.499 485.58 676.5 485.58C675.501 485.58 674.684 483.479 674.684 480.911ZM685.581 480.911C685.581 478.343 686.398 476.242 687.397 476.242C688.396 476.242 689.213 478.343 689.213 480.911C689.213 483.479 688.396 485.58 687.397 485.58C686.398 485.58 685.581 483.479 685.581 480.911ZM696.479 480.911C696.479 478.343 697.296 476.242 698.295 476.242C699.293 476.242 700.111 478.343 700.111 480.911C700.111 483.479 699.293 485.58 698.295 485.58C697.296 485.58 696.479 483.479 696.479 480.911ZM707.376 480.911C707.376 478.343 708.193 476.242 709.192 476.242C710.191 476.242 711.008 478.343 711.008 480.911C711.008 483.479 710.191 485.58 709.192 485.58C708.193 485.58 707.376 483.479 707.376 480.911ZM718.273 480.911C718.273 478.343 719.091 476.242 720.09 476.242C721.089 476.242 721.906 478.343 721.906 480.911C721.906 483.479 721.089 485.58 720.09 485.58C719.091 485.58 718.273 483.479 718.273 480.911ZM729.171 480.911C729.171 478.343 729.988 476.242 730.987 476.242C731.986 476.242 732.803 478.343 732.803 480.911C732.803 483.479 731.986 485.58 730.987 485.58C729.988 485.58 729.171 483.479 729.171 480.911ZM740.068 480.911C740.068 478.343 740.886 476.242 741.885 476.242C742.883 476.242 743.701 478.343 743.701 480.911C743.701 483.479 742.883 485.58 741.885 485.58C740.886 485.58 740.068 483.479 740.068 480.911ZM750.965 480.911C750.965 478.343 751.783 476.242 752.782 476.242C753.781 476.242 754.598 478.343 754.598 480.911C754.598 483.479 753.781 485.58 752.782 485.58C751.783 485.58 750.965 483.479 750.965 480.911ZM761.863 480.911C761.863 478.343 762.68 476.242 763.679 476.242C764.678 476.242 765.495 478.343 765.495 480.911C765.495 483.479 764.678 485.58 763.679 485.58C762.68 485.58 761.863 483.479 761.863 480.911ZM772.761 480.911C772.761 478.343 773.578 476.242 774.577 476.242C775.576 476.242 776.393 478.343 776.393 480.911C776.393 483.479 775.576 485.58 774.577 485.58C773.578 485.58 772.761 483.479 772.761 480.911ZM783.658 480.911C783.658 478.343 784.475 476.242 785.474 476.242C786.473 476.242 787.291 478.343 787.291 480.911C787.291 483.479 786.473 485.58 785.474 485.58C784.475 485.58 783.658 483.479 783.658 480.911ZM794.555 480.911C794.555 478.343 795.373 476.242 796.371 476.242C797.371 476.242 798.188 478.343 798.188 480.911C798.188 483.479 797.371 485.58 796.371 485.58C795.373 485.58 794.555 483.479 794.555 480.911ZM572.62 459.901C572.155 452.464 571.478 451.029 568.434 451.029C565.389 451.029 564.712 452.464 564.248 459.901C563.719 468.363 563.913 468.772 568.434 468.772C572.955 468.772 573.148 468.36 572.62 459.901ZM587.15 459.901C586.685 452.464 586.008 451.029 582.964 451.029C579.919 451.029 579.242 452.464 578.778 459.901C578.249 468.363 578.443 468.772 582.964 468.772C587.485 468.772 587.678 468.36 587.15 459.901ZM625.291 459.901C624.826 452.464 624.15 451.029 621.105 451.029C618.06 451.029 617.382 452.464 616.918 459.901C616.391 468.363 616.584 468.772 621.105 468.772C625.626 468.772 625.819 468.36 625.291 459.901ZM639.821 459.901C639.356 452.464 638.68 451.029 635.635 451.029C632.589 451.029 631.912 452.464 631.448 459.901C630.921 468.363 631.114 468.772 635.635 468.772C640.156 468.772 640.349 468.36 639.821 459.901ZM677.961 459.901C677.496 452.464 676.82 451.029 673.775 451.029C670.731 451.029 670.054 452.464 669.59 459.901C669.061 468.363 669.255 468.772 673.775 468.772C678.297 468.772 678.49 468.36 677.961 459.901ZM692.491 459.901C692.026 452.464 691.35 451.029 688.305 451.029C685.261 451.029 684.584 452.464 684.12 459.901C683.591 468.363 683.785 468.772 688.305 468.772C692.827 468.772 693.02 468.36 692.491 459.901ZM730.633 459.901C730.168 452.464 729.492 451.029 726.447 451.029C723.401 451.029 722.724 452.464 722.26 459.901C721.732 468.363 721.926 468.772 726.447 468.772C730.968 468.772 731.161 468.36 730.633 459.901ZM745.163 459.901C744.698 452.464 744.022 451.029 740.976 451.029C737.931 451.029 737.254 452.464 736.79 459.901C736.262 468.363 736.456 468.772 740.976 468.772C745.498 468.772 745.69 468.36 745.163 459.901ZM785.12 459.901C784.655 452.464 783.978 451.029 780.934 451.029C777.889 451.029 777.212 452.464 776.748 459.901C776.219 468.363 776.413 468.772 780.934 468.772C785.455 468.772 785.648 468.36 785.12 459.901ZM799.65 459.901C799.185 452.464 798.508 451.029 795.463 451.029C792.419 451.029 791.742 452.464 791.278 459.901C790.749 468.363 790.943 468.772 795.463 468.772C799.985 468.772 800.178 468.36 799.65 459.901ZM606.532 543.114C606.486 528.575 606.035 526.377 602.129 522.103C596.154 515.562 586.148 515.531 580.205 522.036C576.5 526.092 575.797 529.072 575.122 543.59L574.339 560.438L590.457 559.894L606.575 559.351L606.528 543.114L606.532 543.114ZM697.344 543.114C697.298 528.575 696.846 526.377 692.941 522.103C686.965 515.562 676.96 515.531 671.017 522.036C667.312 526.092 666.609 529.072 665.934 543.59L665.151 560.438L681.269 559.894L697.387 559.351L697.34 543.114L697.344 543.114ZM788.156 543.114C788.11 528.575 787.658 526.377 783.753 522.103C777.777 515.562 767.772 515.531 761.829 522.036C758.124 526.092 757.421 529.072 756.746 543.59L755.963 560.438L772.081 559.894L788.199 559.351L788.152 543.114L788.156 543.114ZM840.807 563.588C840.321 562.285 840.137 519.197 840.398 467.838L840.87 374.457L856.598 373.92C871.022 373.427 872.569 373.002 875.256 368.784C879.364 362.337 889.554 362.335 893.662 368.782C896.32 372.954 897.958 373.428 911.412 373.918L926.233 374.457V469.706V564.954L883.961 565.456C851.13 565.843 841.493 565.407 840.807 563.588ZM861.756 543.298C861.756 530.925 862.563 524.905 864.727 521.139C870.774 510.613 883.702 506.946 894.508 512.692C902.855 517.131 905.346 524.184 905.346 543.383V560.285H913.519H921.692V469.705V379.126H909.078H896.464L895.91 387.997C895.358 396.851 895.343 396.87 888.265 397.465C875.166 398.568 872.653 396.963 872.653 387.495V379.126H859.032H845.41V469.705V560.285H853.583H861.756V543.298ZM861.756 461.301C861.756 455.906 862.513 453.831 864.481 453.831C866.684 453.831 867.205 450.863 867.205 438.329C867.205 421.992 868.696 418.346 875.378 418.346C877.476 418.346 880.173 419.355 881.372 420.587C883.067 422.33 884.035 422.33 885.731 420.587C886.929 419.355 889.626 418.346 891.724 418.346C898.324 418.346 899.897 422.024 899.897 437.454C899.897 448.732 900.521 452.327 902.621 453.156C904.397 453.856 905.346 456.761 905.346 461.501V468.772H883.551H861.756V461.301ZM901.713 461.301C901.713 457.815 900.503 457.566 883.551 457.566C866.599 457.566 865.389 457.815 865.389 461.301C865.389 464.788 866.599 465.036 883.551 465.036C900.503 465.036 901.713 464.788 901.713 461.301ZM879.538 438.423C879.059 424.441 878.674 423.015 875.378 423.015C872.082 423.015 871.697 424.441 871.218 438.423L870.691 453.831H875.378H880.066L879.538 438.423ZM895.884 438.423C895.406 424.441 895.021 423.015 891.724 423.015C888.428 423.015 888.043 424.441 887.564 438.423L887.037 453.831H891.724H896.412L895.884 438.423ZM898.947 543.114C898.901 528.575 898.449 526.377 894.544 522.103C888.568 515.562 878.562 515.531 872.62 522.036C868.915 526.092 868.212 529.072 867.537 543.59L866.754 560.438L882.872 559.894L898.989 559.351L898.943 543.114L898.947 543.114ZM890.457 380.527C889.924 371.003 889.752 370.722 884.459 370.722C879.167 370.722 878.995 371.004 878.462 380.527L877.912 390.332H884.459H891.006L890.457 380.527ZM96.0917 415.896C95.584 414.537 95.4036 404.657 95.6919 393.941L96.2131 374.457H246.053H395.892V395.935V417.412L246.454 417.89C123.831 418.282 96.8496 417.938 96.0932 415.896H96.0917ZM391.35 395.935V379.126H246.052H100.752V395.935V412.743H246.052H391.35V395.935ZM531.989 415.896C531.482 414.537 531.301 404.657 531.589 393.941L532.11 374.457H681.95H831.79V395.935V417.412L682.351 417.89C559.728 418.282 532.747 417.938 531.99 415.896H531.989ZM827.247 395.935V379.126H681.949H536.649V395.935V412.743H681.949H827.247V395.935ZM1.01672 361.851C1.10508 359.539 5.39416 344.622 10.5523 328.7L19.9297 299.753L43.7534 299.233L67.5772 298.714L69.6034 303.902C74.3291 316.001 87.7981 363.074 86.9421 364.499C86.4283 365.354 79.0985 366.053 70.6537 366.053H55.2989L51.3283 357.649C49.0784 352.886 46.0972 349.244 44.449 349.244C42.8008 349.244 39.8195 352.886 37.5692 357.649L33.5986 366.053H17.2288C1.41701 366.053 0.864686 365.909 1.01672 361.851ZM32.8156 356.248C40.6634 340.317 47.3781 339.31 54.6136 352.98L59.556 362.318H70.165C78.6675 362.318 80.7737 361.726 80.7737 359.337C80.7737 355.121 66.0931 307.721 63.8916 304.828C62.5656 303.085 56.8402 302.577 42.8789 302.96L23.6888 303.487L15.0116 331.502C10.2394 346.91 6.32869 360.146 6.32125 360.917C6.32125 361.687 11.5993 362.318 18.0667 362.318C29.509 362.318 29.906 362.155 32.8156 356.248ZM106.342 363.718C106.421 362.434 109.918 350.458 114.116 337.105L121.747 312.826H140.71H159.671L167.303 337.105C171.501 350.458 174.999 362.434 175.076 363.718C175.183 365.509 167.181 366.053 140.71 366.053C114.238 366.053 106.234 365.509 106.342 363.718ZM167.942 359.049C167.942 357.252 165.268 347.377 162.014 337.105L156.098 318.428L140.559 317.894L125.02 317.359L119.199 337C115.998 347.803 112.903 357.919 112.32 359.479C111.4 361.944 114.994 362.318 139.607 362.318C165.397 362.318 167.952 362.021 167.942 359.049ZM752.923 363.718C753.002 362.434 756.499 350.458 760.697 337.105L768.328 312.826H787.291H806.253L813.884 337.105C818.082 350.458 821.579 362.434 821.657 363.718C821.764 365.509 813.762 366.053 787.291 366.053C760.819 366.053 752.815 365.509 752.923 363.718ZM814.523 359.049C814.523 357.252 811.847 347.377 808.591 337.105L802.67 318.428H787.291H771.912L765.99 337.105C762.734 347.377 760.064 357.252 760.058 359.049C760.058 362.017 762.551 362.318 787.291 362.318C812.03 362.318 814.533 362.016 814.523 359.049ZM841.058 364.499C840.202 363.074 853.671 316.001 858.396 303.902L860.423 298.714L884.247 299.233L908.07 299.753L917.448 328.7C922.606 344.622 926.897 359.539 926.983 361.851C927.137 365.91 926.583 366.053 910.771 366.053H894.401L890.431 357.649C888.18 352.886 885.199 349.244 883.551 349.244C881.903 349.244 878.922 352.886 876.672 357.649L872.701 366.053H857.347C848.901 366.053 841.571 365.354 841.058 364.499ZM871.918 356.248C879.766 340.317 886.48 339.31 893.716 352.98L898.658 362.318H910.175C916.509 362.318 921.686 361.687 921.679 360.917C921.679 360.146 917.76 346.91 912.988 331.502L904.311 303.487L884.026 302.96L863.74 302.433L855.248 330.041C850.577 345.225 846.366 358.699 845.888 359.983C845.249 361.704 848.161 362.318 856.975 362.318C868.636 362.318 869.001 362.17 871.918 356.248ZM124.379 304.024C124.425 294.704 126.773 280.143 128.249 280.143C129.109 280.143 129.812 283.084 129.812 286.679C129.812 292.407 130.374 293.216 134.352 293.216C138.763 293.216 138.893 292.843 138.893 280.143C138.893 272.672 139.672 267.069 140.71 267.069C141.749 267.069 142.526 272.713 142.526 280.266V293.464L147.521 292.873C151.643 292.385 152.711 291.14 153.638 285.745L154.761 279.209L154.998 286.212C155.128 290.064 156.104 293.216 157.164 293.216C158.278 293.216 158.852 296.165 158.526 300.219L157.962 307.223L141.162 307.76C124.712 308.286 124.362 308.209 124.377 304.024H124.379ZM152.976 300.219C152.511 298.774 147.959 297.673 141.019 297.329C131.882 296.874 129.812 297.329 129.812 299.663C129.812 301.98 132.188 302.554 141.769 302.554C150.524 302.554 153.525 301.928 152.976 300.219ZM770.339 306.912C768.417 304.935 768.935 293.216 770.944 293.216C771.943 293.216 772.868 290.064 773 286.212L773.237 279.209L774.36 285.745C775.287 291.14 776.355 292.385 780.478 292.873L785.472 293.464V280.266C785.472 272.713 786.249 267.069 787.289 267.069C788.327 267.069 789.105 272.672 789.105 280.143C789.105 292.842 789.235 293.216 793.646 293.216C797.624 293.216 798.186 292.407 798.186 286.679C798.186 276.642 801.17 278.925 802.458 289.947C804.735 309.442 805.784 308.157 787.592 308.157C778.767 308.157 771.003 307.596 770.337 306.912H770.339ZM798.188 299.663C798.188 297.307 796.118 296.875 786.981 297.329C780.041 297.673 775.488 298.774 775.024 300.219C774.475 301.928 777.477 302.554 786.231 302.554C795.812 302.554 798.188 301.98 798.188 299.663ZM23.9208 292.028C21.9703 290.022 22.4209 274.908 24.4704 273.606C25.4691 272.971 26.2864 269.14 26.2864 265.091C26.2864 261.043 27.1038 257.731 28.1025 257.731C29.1017 257.731 29.919 261.093 29.919 265.201C29.919 272.494 30.0678 272.672 36.2757 272.672H42.6325V256.797C42.6325 247.459 43.3805 240.922 44.449 240.922C45.5174 240.922 46.265 247.459 46.265 256.797V272.672H52.6218C58.8274 272.672 58.979 272.495 58.979 265.201C58.979 261.093 59.7959 257.731 60.7951 257.731C61.7938 257.731 62.6111 260.924 62.6111 264.828C62.6111 268.731 63.481 272.819 64.5439 273.912C65.6067 275.005 66.22 279.586 65.9062 284.091L65.3357 292.282L45.2617 292.806C34.2212 293.093 24.6177 292.744 23.9208 292.028ZM60.7951 282.944C60.7951 278.309 60.6741 278.275 44.449 278.275C28.2238 278.275 28.1025 278.322 28.1025 282.944C28.1025 287.578 28.2234 287.613 44.449 287.613C60.6737 287.613 60.7951 287.565 60.7951 282.944ZM863.023 292.028C861.073 290.022 861.523 274.908 863.573 273.606C864.571 272.971 865.389 269.14 865.389 265.091C865.389 261.043 866.206 257.731 867.205 257.731C868.204 257.731 869.021 261.093 869.021 265.201C869.021 272.494 869.175 272.672 875.378 272.672H881.735V256.797C881.735 247.459 882.483 240.922 883.551 240.922C884.619 240.922 885.367 247.459 885.367 256.797V272.672H891.724C897.93 272.672 898.081 272.495 898.081 265.201C898.081 261.093 898.898 257.731 899.897 257.731C900.896 257.731 901.713 260.924 901.713 264.828C901.713 268.731 902.583 272.819 903.646 273.912C904.709 275.005 905.322 279.586 905.008 284.091L904.438 292.282L884.364 292.806C873.323 293.093 863.72 292.744 863.023 292.028ZM899.897 282.944C899.897 278.309 899.776 278.275 883.551 278.275C867.326 278.275 867.205 278.322 867.205 282.944C867.205 287.578 867.326 287.613 883.551 287.613C899.776 287.613 899.897 287.565 899.897 282.944ZM407.915 199.172C406.223 197.076 408.096 187.696 416.772 154.881C422.824 131.984 428.67 112.141 429.764 110.785C431.275 108.914 439.545 108.322 464.181 108.322C495.846 108.322 496.668 108.422 499.147 112.524C502.722 118.443 522.591 195.878 521.372 199.143C520.57 201.293 516.628 201.727 501.742 201.302L483.117 200.769L474.921 185.382C470.294 176.697 465.538 169.996 464 169.996C462.462 169.996 457.707 176.697 453.08 185.382L444.883 200.769L427.472 201.3C414.14 201.706 409.558 201.209 407.915 199.172ZM448.575 183.493C461.983 158.276 465.578 157.873 477.779 180.225L486.445 196.1H501.558C509.87 196.1 516.642 195.469 516.606 194.699C516.56 193.928 511.862 175.649 506.142 154.079L495.743 114.858H464H432.257L421.858 154.079C416.138 175.649 411.429 193.928 411.394 194.699C411.347 195.469 418.201 196.1 426.6 196.1H441.872L448.575 183.493ZM434.378 101.519C432.412 99.4967 432.911 73.1927 434.94 71.9033C435.939 71.2684 436.756 64.4952 436.756 56.8519C436.756 48.8323 437.524 42.9551 438.573 42.9551C439.622 42.9551 440.389 48.8691 440.389 56.9623V70.9696H451.286H462.184V35.4848C462.184 13.0731 462.853 0 464 0C465.147 0 465.816 13.0731 465.816 35.4848V70.9696H476.714H487.611V56.9623C487.611 48.8691 488.378 42.9551 489.427 42.9551C490.472 42.9551 491.244 48.7448 491.244 56.5889C491.244 64.0874 492.099 71.102 493.145 72.1777C494.234 73.297 494.816 80.0439 494.507 87.9588L493.968 101.785L464.8 102.296C448.758 102.578 435.068 102.229 434.378 101.519ZM489.427 86.8443V76.5724H464H438.573V86.8443V97.1162H464H489.427V86.8443Z" fill="white"/>
<path d="M1 648.109L850.215 648.109L927.416 648.109" stroke="white" stroke-width="3"/>
</g>
</g>
<path d="M361.773 696.591H354.682C354.409 695.076 353.902 693.742 353.159 692.591C352.417 691.439 351.508 690.462 350.432 689.659C349.356 688.856 348.152 688.25 346.818 687.841C345.5 687.432 344.098 687.227 342.614 687.227C339.932 687.227 337.53 687.902 335.409 689.25C333.303 690.598 331.636 692.576 330.409 695.182C329.197 697.788 328.591 700.97 328.591 704.727C328.591 708.515 329.197 711.712 330.409 714.318C331.636 716.924 333.311 718.894 335.432 720.227C337.553 721.561 339.939 722.227 342.591 722.227C344.061 722.227 345.455 722.03 346.773 721.636C348.106 721.227 349.311 720.629 350.386 719.841C351.462 719.053 352.371 718.091 353.114 716.955C353.871 715.803 354.394 714.485 354.682 713L361.773 713.023C361.394 715.311 360.659 717.417 359.568 719.341C358.492 721.25 357.106 722.902 355.409 724.295C353.727 725.674 351.803 726.742 349.636 727.5C347.47 728.258 345.106 728.636 342.545 728.636C338.515 728.636 334.924 727.682 331.773 725.773C328.621 723.848 326.136 721.098 324.318 717.523C322.515 713.947 321.614 709.682 321.614 704.727C321.614 699.758 322.523 695.492 324.341 691.932C326.159 688.356 328.644 685.614 331.795 683.705C334.947 681.78 338.53 680.818 342.545 680.818C345.015 680.818 347.318 681.174 349.455 681.886C351.606 682.583 353.538 683.614 355.25 684.977C356.962 686.326 358.379 687.977 359.5 689.932C360.621 691.871 361.379 694.091 361.773 696.591ZM370.176 728V681.455H377.199V701.682H400.403V681.455H407.449V728H400.403V707.705H377.199V728H370.176ZM417.676 728V681.455H446.858V687.5H424.699V701.682H445.335V707.705H424.699V721.955H447.131V728H417.676ZM493.807 681.455V728H487.352L463.693 693.864H463.261V728H456.239V681.455H462.739L486.42 715.636H486.852V681.455H493.807ZM541.619 681.455V728H535.165L511.506 693.864H511.074V728H504.051V681.455H510.551L534.233 715.636H534.665V681.455H541.619ZM555.795 728H548.341L565.091 681.455H573.205L589.955 728H582.5L569.341 689.909H568.977L555.795 728ZM557.045 709.773H581.227V715.682H557.045V709.773ZM603.699 681.455V728H596.676V681.455H603.699Z" fill="white"/>
<defs>
<clipPath id="clip0_3155_10919">
<rect width="926" height="652" fill="white" transform="translate(0.789062)"/>
</clipPath>
<clipPath id="clip1_3155_10919">
<rect width="926" height="753" fill="white" transform="translate(1)"/>
</clipPath>
</defs>
</svg>
