<svg width="1847" height="483" viewBox="0 0 1847 483" fill="none" xmlns="http://www.w3.org/2000/svg">
<path d="M288.426 39.6622C288.244 40.0788 287.749 40.9641 287.28 41.6931C286.838 42.3962 285.666 44.2709 284.703 45.8592C283.74 47.4214 281.943 50.2335 280.745 52.1082C278.923 54.9203 277.022 58.0448 273.924 63.2524C273.69 63.643 272.7 65.2573 271.685 66.8196C269.81 69.7618 268.639 71.6105 264.265 78.6667C259.474 86.3999 258.615 87.7799 257.235 89.9931C256.48 91.2169 255.048 93.4822 254.084 95.0705C253.121 96.6328 251.845 98.7158 251.22 99.7052C250.596 100.669 249.372 102.569 248.513 103.949C247.654 105.303 246.612 106.97 246.196 107.621C245.493 108.714 245.467 108.87 245.805 109.417C246.638 110.823 250.648 117.098 252.002 119.181C252.809 120.405 254.866 123.66 256.584 126.42C259.708 131.445 262.702 136.184 264.655 139.257C265.566 140.663 268.066 144.646 269.42 146.834C269.836 147.51 271.581 150.27 274.679 155.218C275.408 156.363 277.074 158.993 278.402 161.076C279.73 163.159 281.214 165.555 281.709 166.388C282.203 167.195 283.609 169.46 284.833 171.387C287.411 175.449 292.41 183.417 295.3 187.973C299.049 193.936 299.752 195.055 300.845 196.748C301.444 197.685 302.121 198.779 302.355 199.221C302.564 199.638 303.11 200.445 303.553 201.018C303.996 201.565 304.36 202.164 304.36 202.32C304.36 202.476 303.996 203.205 303.553 203.908C302.59 205.497 300.559 208.96 298.372 212.761C297.487 214.323 296.003 216.849 295.117 218.359C294.206 219.869 293.165 221.744 292.774 222.525C292.384 223.306 291.733 224.426 291.342 224.999C290.952 225.572 289.936 227.264 289.077 228.774C288.218 230.284 286.656 232.966 285.614 234.763C284.573 236.56 283.531 238.356 283.323 238.799C283.089 239.215 282.49 240.231 281.969 241.012C281.422 241.793 280.563 243.329 280.016 244.397C279.47 245.464 278.845 246.636 278.584 247.001C278.324 247.365 277.257 249.162 276.189 251.037C275.122 252.885 273.091 256.4 271.685 258.848C270.279 261.269 268.613 264.081 267.988 265.097C267.102 266.451 266.868 266.998 267.05 267.31C267.207 267.518 267.467 267.701 267.675 267.701C271.346 267.649 314.853 267.258 327.22 267.18L343.935 267.076L344.56 267.649C345.185 268.221 347.372 271.606 349.715 275.642C350.418 276.866 351.173 278.038 351.355 278.246C351.538 278.454 351.954 279.157 352.267 279.782C352.579 280.433 353.23 281.553 353.699 282.256C354.167 282.985 355.651 285.458 357.031 287.75C358.385 290.041 360.155 292.983 360.963 294.311C361.77 295.613 362.421 296.759 362.421 296.863C362.421 296.967 362.811 297.644 363.306 298.373C364.165 299.701 367.133 304.544 368.799 307.408C369.659 308.892 371.143 311.366 373.486 315.22C374.215 316.443 375.152 318.006 375.569 318.735C375.959 319.438 376.662 320.609 377.131 321.338C377.6 322.041 380.073 326.155 382.625 330.426C385.202 334.696 387.754 338.992 388.327 339.929C388.899 340.893 389.941 342.637 390.644 343.835C391.347 345.007 392.154 346.1 392.414 346.23C392.753 346.413 399.704 346.413 414.05 346.23C441.831 345.866 478.073 345.554 480.937 345.658C482.187 345.684 483.436 345.658 483.749 345.554C484.504 345.319 484.4 344.538 483.541 344.226C482.785 343.939 481.796 342.481 472.97 328.499C472.267 327.431 470.705 324.958 469.481 323.005C468.231 321.052 466.565 318.448 465.784 317.198C465.003 315.949 463.545 313.657 462.529 312.095C459.041 306.653 457.869 304.804 451.75 295.118C451.23 294.285 450.11 292.515 449.251 291.135C448.392 289.781 447.194 287.932 446.595 287.021C445.996 286.135 445.085 284.703 444.564 283.844C444.07 282.985 443.08 281.397 442.377 280.329C441.674 279.261 440.425 277.283 439.592 275.929C438.055 273.481 434.593 268.039 432.38 264.576C431.729 263.561 430.505 261.634 429.646 260.28C427.953 257.624 426.365 255.124 423.397 250.438C421.054 246.766 418.242 242.366 416.315 239.32C413.816 235.388 409.26 228.175 408.635 227.212C408.322 226.717 407.385 225.233 406.526 223.905C405.693 222.603 404.183 220.208 403.167 218.62C400.876 215 399.444 212.735 397.127 209.116C396.111 207.527 394.159 204.429 392.753 202.216C391.347 200.003 389.837 197.581 389.368 196.878C388.899 196.149 387.571 194.04 386.374 192.191C385.202 190.317 383.692 187.973 383.015 186.932C382.364 185.89 381.115 183.911 380.255 182.531C379.396 181.151 377.964 178.912 377.079 177.584C376.168 176.23 375.439 175.058 375.439 174.954C375.439 174.876 374.71 173.678 373.798 172.298C372.887 170.918 371.689 169.07 371.117 168.158C370.57 167.273 369.711 165.919 369.216 165.164C368.747 164.409 367.446 162.404 366.378 160.686C365.311 158.967 363.827 156.624 363.072 155.478C361.796 153.473 359.739 150.27 357.265 146.365C356.641 145.349 355.183 143.11 354.063 141.34C352.943 139.569 352.006 138.059 352.006 137.929C352.006 137.824 351.642 137.252 351.199 136.653C350.756 136.054 349.481 134.127 348.387 132.357C342.139 122.514 336.254 113.219 335.864 112.646C334.041 109.912 332.479 107.438 332.141 106.787C331.932 106.345 331.125 105.069 330.344 103.923C329.589 102.778 328.313 100.799 327.532 99.549C326.751 98.2731 325.293 95.9558 324.278 94.3935C323.288 92.8312 321.466 89.9671 320.242 88.0143C319.018 86.0875 317.014 82.9369 315.764 81.0101C314.514 79.0833 313.317 77.1045 313.108 76.5837C312.9 76.089 311.859 74.3965 310.817 72.8603C309.802 71.3241 308.109 68.8245 307.094 67.2622C306.105 65.726 304.933 63.9294 304.49 63.2784C304.074 62.6275 303.189 61.2214 302.538 60.1799C301.887 59.1384 301.054 57.8365 300.689 57.2637C300.325 56.7169 298.867 54.4256 297.435 52.1603C296.029 49.895 294.414 47.3694 293.894 46.5622C293.347 45.729 292.67 44.6094 292.357 44.0365C292.045 43.4637 291.472 42.5784 291.082 42.0837C290.691 41.589 290.118 40.6777 289.806 40.0527C289.155 38.7769 288.843 38.6988 288.426 39.6622Z" fill="#0075FF"/>
<path d="M239.012 88.3281C238.517 88.5364 236.226 89.3436 233.935 90.1247C228.077 92.0775 224.484 93.3794 221.307 94.6553C219.797 95.2541 217.636 96.1134 216.491 96.556C212.872 97.9621 205.686 101.087 201.91 102.883C199.906 103.847 197.51 104.914 196.573 105.305C195.636 105.669 194.074 106.476 193.084 107.127C192.095 107.778 190.611 108.559 189.804 108.898C188.189 109.549 185.794 110.877 185.065 111.528C184.805 111.762 183.295 112.673 181.68 113.559C180.066 114.47 177.697 115.928 176.395 116.787C170.12 121.084 164.965 124.677 164.106 125.38C163.559 125.822 160.669 128.14 157.649 130.535C151.843 135.17 144.527 142.2 140.335 147.173C139.137 148.579 137.627 150.35 136.976 151.053C135.622 152.537 132.576 156.495 130.832 158.995C127.916 163.239 125.208 167.379 125 167.925C124.87 168.264 124.219 169.358 123.568 170.373C122.37 172.248 119.767 177.429 118.074 181.387C117.553 182.611 116.668 184.538 116.121 185.683C115.575 186.829 114.663 189.172 114.091 190.891C113.492 192.609 112.737 194.822 112.398 195.838C110.81 200.316 109.144 207.399 107.92 214.715C107.686 216.225 107.321 218.152 107.113 219.012C106.566 221.407 105.707 233.723 105.707 239.451C105.707 245.596 106.488 257.339 107.139 260.828C107.347 262.026 107.946 265.515 108.441 268.587C108.962 271.66 109.847 275.982 110.446 278.221C111.018 280.461 111.643 282.986 111.852 283.845C112.372 286.293 113.96 290.589 114.429 290.876C114.742 291.084 115.028 290.902 115.809 289.964C116.33 289.339 118.439 286.944 120.496 284.705L124.245 280.591L123.698 278.95C122.422 274.993 120.704 265.671 119.532 256.506C118.647 249.606 118.595 248.59 118.621 238.67C118.621 229.687 118.699 227.786 119.194 223.568C119.532 220.912 119.949 218.1 120.157 217.319C120.365 216.538 120.704 214.767 120.938 213.413C121.641 209.247 122.787 204.587 123.88 201.436C124.427 199.796 125.156 197.687 125.442 196.749C126.666 192.974 127.343 191.255 128.957 187.74C131.274 182.741 132.628 180.059 133.982 177.82C134.607 176.778 135.128 175.815 135.128 175.685C135.128 175.528 135.779 174.487 136.56 173.341C137.341 172.196 137.992 171.154 137.992 171.024C137.992 170.79 139.059 169.253 142.236 165.009C143.121 163.812 144.293 162.171 144.865 161.364C145.412 160.557 146.87 158.786 148.12 157.432C149.344 156.078 150.906 154.308 151.583 153.527C153.275 151.496 160.825 144.075 163.689 141.653C167.907 138.034 168.506 137.539 170.641 135.899C175.484 132.176 179.78 129.233 184.466 126.421C185.482 125.822 186.653 125.015 187.07 124.625C187.512 124.208 189.075 123.271 190.585 122.542C192.095 121.787 193.839 120.797 194.49 120.355C195.141 119.912 196.313 119.209 197.094 118.792C200.452 117.048 208.029 113.298 209.591 112.647C221.802 107.44 224.848 106.268 230.732 104.602C232.06 104.211 233.805 103.013 233.805 102.467C233.805 102.362 235.341 99.1598 237.215 95.3583C239.064 91.5568 240.522 88.3281 240.444 88.1719C240.235 87.8334 240.105 87.8594 239.012 88.3281Z" fill="#0075FF"/>
<path d="M338.988 88.172C338.988 88.3282 340.524 91.5569 342.373 95.3324C344.248 99.1339 345.758 102.337 345.758 102.441C345.758 102.571 346.096 102.961 346.487 103.352C347.033 103.873 348.283 104.393 350.991 105.227C353.074 105.852 355.339 106.633 356.042 106.919C356.771 107.232 358.984 108.117 360.989 108.872C362.994 109.627 365.962 110.851 367.55 111.58C369.164 112.309 370.57 112.908 370.648 112.908C371.169 112.908 384.135 119.626 387.806 121.787C389.004 122.49 390.045 123.063 390.123 123.063C390.227 123.063 391.321 123.713 392.571 124.547C393.82 125.354 396.007 126.76 397.439 127.697C400.173 129.468 402.985 131.447 407.854 135.066C410.64 137.123 416.836 142.357 420.325 145.611C425.324 150.272 431.208 156.729 435.504 162.249C437.795 165.192 443.81 174.227 445.632 177.481C449.694 184.746 453.183 192.844 455.396 200.134C455.968 202.061 456.567 203.936 456.671 204.3C457.452 206.487 459.405 216.304 460.056 221.225C461.41 231.484 461.462 245.362 460.186 255.855C459.77 259.318 459.145 263.562 458.754 265.489C458.624 266.14 458.338 267.702 458.103 269.004C457.479 272.545 456.125 278.586 455.864 279.081C455.213 280.278 455.552 280.825 459.613 285.252C461.774 287.647 463.831 289.964 464.118 290.381C464.951 291.501 465.42 291.032 466.331 288.272C467.034 286.085 467.32 285.147 468.674 280.2C469.117 278.56 470.392 272.649 471.356 267.572C471.85 265.02 472.762 258.094 473.387 252.21C473.595 250.413 473.699 245.44 473.699 239.712C473.699 230.208 473.673 230.026 472.527 220.444C471.85 214.689 470.08 205.915 468.492 200.395C466.565 193.651 462.295 182.507 459.952 178.002C459.613 177.351 458.676 175.607 457.895 174.097C454.745 168.004 450.683 161.677 446.205 155.74C444.018 152.902 438.733 146.601 436.207 143.893C431.703 139.024 422.903 131.082 417.383 126.864C416.055 125.849 414.337 124.547 413.582 123.974C410.9 121.917 400.694 115.225 396.632 112.882C388.795 108.299 384.109 105.878 374.137 101.243C371.117 99.8108 362.343 96.1656 360.598 95.5927C359.817 95.3324 357.995 94.6033 356.563 93.9524C353.386 92.5463 351.538 91.8693 344.925 89.6301C339.717 87.8856 338.988 87.7033 338.988 88.172Z" fill="#0075FF"/>
<path d="M231.876 132.774C231.538 133.243 230.652 134.597 229.897 135.821C229.142 137.045 227.502 139.622 226.252 141.549C225.003 143.476 222.764 146.991 221.306 149.361C219.821 151.73 218.416 153.943 218.181 154.308C217.921 154.672 216.879 156.313 215.838 157.953C214.796 159.593 213.312 161.937 212.531 163.161C211.724 164.384 210.006 167.066 208.704 169.149C207.402 171.232 206.022 173.393 205.658 173.966C205.059 174.877 202.247 179.33 196.207 188.886C194.046 192.297 190.531 197.791 189.099 199.952C188.552 200.785 187.771 202.035 187.328 202.738C185.037 206.435 183.709 208.544 182.46 210.471C180.741 213.127 180.585 213.387 176.549 219.793C173.191 225.078 171.889 227.135 169.103 231.484C168.244 232.811 166.89 234.947 166.109 236.196C164.547 238.67 161.683 243.201 160.772 244.659C160.433 245.153 159.079 247.262 157.725 249.345C156.398 251.428 154.523 254.319 153.612 255.803C152.674 257.261 150.8 260.229 149.446 262.364C148.092 264.499 146.79 266.582 146.556 266.973C146.322 267.364 145.098 269.29 143.848 271.217C142.598 273.144 141.219 275.305 140.802 276.034C140.385 276.737 139.682 277.883 139.214 278.56C138.745 279.237 137.73 280.799 136.949 282.049C136.168 283.299 134.814 285.408 133.954 286.736C133.095 288.09 131.819 290.094 131.117 291.188C130.414 292.308 129.346 293.974 128.747 294.911C128.148 295.849 126.977 297.724 126.118 299.077C125.284 300.431 123.878 302.671 122.993 304.025C122.108 305.379 120.624 307.722 119.687 309.232C118.151 311.706 115.885 315.247 113.646 318.736C112.605 320.35 106.747 329.568 104.221 333.577C99.3264 341.311 97.4779 344.071 96.7749 344.696C96.1761 345.19 96.0199 345.477 96.2281 345.685C96.5145 345.971 140.047 346.05 160.121 345.815C165.64 345.737 213.26 345.555 265.957 345.399C318.654 345.242 362.577 345.112 363.593 345.086C365.832 345.034 366.014 344.644 364.712 342.847C364.244 342.196 361.952 338.603 359.635 334.879C353.543 325.089 353.413 324.855 350.783 320.715C347.659 315.742 345.81 312.773 343.935 309.753C341.905 306.446 340.759 304.597 334.25 294.261C333.183 292.542 331.959 290.589 331.568 289.886C330.188 287.491 332.402 287.725 308.605 287.517C297.044 287.413 284.183 287.282 280.017 287.23C275.877 287.178 262 287.048 249.242 286.944C223.831 286.762 224.768 286.814 225.94 285.33C226.252 284.939 226.695 284.262 226.929 283.845C227.164 283.403 227.841 282.309 228.465 281.372C230.679 277.961 232.501 275.071 241.77 260.203C243.957 256.714 245.91 253.642 249.008 248.825C250.622 246.325 252.757 242.914 253.773 241.274C255.986 237.628 257.183 235.702 261.661 228.645C263.562 225.625 265.645 222.292 266.296 221.225C266.921 220.157 268.066 218.334 268.821 217.189C269.55 216.043 270.8 214.116 271.555 212.893C274.966 207.477 275.929 205.967 276.971 204.404C277.57 203.493 278.064 202.582 278.064 202.399C278.064 202.217 277.674 201.54 277.231 200.915C276.762 200.29 275.955 199.119 275.461 198.285C274.627 196.931 273.586 195.265 269.993 189.745C269.342 188.756 268.17 186.907 267.363 185.631C266.556 184.381 264.968 181.908 263.848 180.163C261.531 176.57 256.558 168.837 254.423 165.504C252.575 162.588 250.596 159.515 248.305 156C246.118 152.667 243.957 149.256 241.64 145.585C240.728 144.153 239.349 141.992 238.567 140.768C237.786 139.544 236.276 137.201 235.209 135.561C234.141 133.92 233.282 132.488 233.282 132.41C233.282 132.306 233.1 132.176 232.892 132.071C232.657 131.993 232.267 132.254 231.876 132.774Z" fill="#0075FF"/>
<path d="M177.176 356.281C176.473 356.333 173.479 356.593 170.537 356.879C167.594 357.14 165.017 357.348 164.809 357.348C163.116 357.244 163.09 357.895 164.731 359.041C165.407 359.483 166.657 360.421 167.516 361.072C168.402 361.722 170.797 363.389 172.88 364.769C174.963 366.149 177.176 367.659 177.827 368.102C183.346 371.851 197.744 379.584 206.466 383.49C222.14 390.546 236.59 395.285 253.201 398.826C257.419 399.738 268.432 401.378 272.989 401.795C274.004 401.873 275.696 402.081 276.764 402.211C277.831 402.341 280.122 402.55 281.841 402.706C283.559 402.836 284.991 403.07 285.043 403.227C285.173 403.591 298.296 403.591 298.426 403.227C298.478 403.096 300.274 402.81 302.409 402.576C314.334 401.404 314.308 401.404 321.936 400.206C335.215 398.123 353.05 392.785 364.948 387.37C366.562 386.641 367.942 386.042 367.994 386.042C368.046 386.042 370.207 385.026 372.759 383.776C384.788 377.918 398.144 369.69 409.157 361.358C410.173 360.603 411.396 359.718 411.891 359.405C413.896 358.103 413.323 357.973 402.57 357.14L398.561 356.827L397.077 357.843C396.269 358.416 394.968 359.249 394.187 359.665C393.405 360.108 391.713 361.072 390.411 361.827C381.247 367.19 367.109 373.57 355.393 377.605C346.306 380.73 340.63 382.344 330.528 384.662C321.624 386.693 310.975 388.255 299.545 389.166C294.208 389.609 278.925 389.531 273.249 389.036C266.349 388.437 254.529 386.797 249.947 385.781C246.979 385.13 238.048 382.943 237.059 382.657C227.477 379.688 218.886 376.642 214.147 374.533C212.715 373.882 210.788 373.023 209.851 372.632C205.112 370.575 193.058 364.196 187.929 361.019C186.679 360.238 185.039 359.223 184.284 358.754C183.529 358.285 182.331 357.504 181.628 357.01C180.326 356.072 180.3 356.072 177.176 356.281Z" fill="#0075FF"/>
<path d="M1116.66 111.493V126.543L1163.45 172.603L1210.21 218.664L1213.44 218.742L1216.64 218.82V157.866V96.9377L1203.57 96.9897L1190.47 97.0679L1190.34 129.771L1190.21 162.449L1156.76 129.459L1123.3 96.443H1119.99L1116.66 96.4169V111.493Z" fill="white"/>
<path d="M628.405 98.677C627.728 100.057 618.303 116.982 616.324 120.366C615.959 121.017 616.246 121.564 626.452 139.634C632.232 149.867 644.625 171.869 653.972 188.507L670.974 218.789H687.376C700.394 218.789 703.753 218.711 703.649 218.451C703.597 218.294 688.496 191.371 670.088 158.642C651.707 125.912 636.45 98.6509 636.189 98.026L635.695 96.9324H632.492H629.264L628.405 98.677Z" fill="white"/>
<path d="M1494.96 109.821V122.71H1531.7H1568.44L1567.84 123.673C1563.75 130.573 1556.2 136.51 1548.47 138.957C1543.34 140.598 1544.93 140.494 1518.87 140.598L1494.96 140.702V179.732V218.789H1508.11H1521.26V192.647V166.479L1532.93 166.375C1542.38 166.297 1545.03 166.193 1547.04 165.828C1548.39 165.594 1549.69 165.334 1549.93 165.255C1550.27 165.177 1554.2 171.348 1566.95 191.97L1583.57 218.789H1598.9C1613.43 218.789 1614.21 218.763 1613.98 218.32C1613.85 218.086 1604.89 203.609 1594.08 186.138L1574.43 154.398L1576.41 152.835C1586.9 144.503 1594.74 131.927 1597.65 118.804C1598.02 117.164 1598.46 114.742 1598.64 113.466C1599.01 110.915 1599.08 100.239 1598.74 98.1562L1598.56 96.9324H1546.75H1494.96V109.821Z" fill="white"/>
<path d="M719.09 110.212V123.231H746.115C775.458 123.231 775.093 123.205 779.858 124.715C792.381 128.62 801.546 138.671 804.254 151.429C805.061 155.179 805.061 161.324 804.254 165.073C802.041 175.566 795.271 184.471 785.82 189.314C784.388 190.043 782.149 191.007 780.873 191.449C776.187 193.012 776.135 193.012 760.071 193.012H745.386V167.104V141.197H732.238H719.09V179.993V218.789L748.979 218.737L778.843 218.659L782.097 217.93C798.526 214.232 812.143 204.989 821.255 191.319C826.02 184.185 829.509 174.811 830.654 166.115C831.175 162.105 831.175 154.398 830.654 150.388C829.275 139.765 824.77 129.167 817.975 120.627C810.424 111.097 798.916 103.312 787.435 99.9789C778.973 97.5053 779.129 97.5053 746.896 97.3491L719.09 97.1928V110.212Z" fill="white"/>
<path d="M831.383 97.3737C833.336 101.019 875.176 175.305 875.28 175.305C875.436 175.305 891.526 147.028 891.657 146.559C891.683 146.403 885.538 135.259 877.962 121.797L864.215 97.3217L847.734 97.2435C838.673 97.2175 831.331 97.2696 831.383 97.3737Z" fill="white"/>
<path d="M921.443 130.729C911.107 149.164 898.817 170.958 894.157 179.16L885.695 194.053L892.282 206.421L898.87 218.789H902.41H905.977L930.399 174.577C961.096 118.986 971.953 99.4061 972.682 98.1562L973.255 97.1928H956.748L940.267 97.2189L921.443 130.729Z" fill="white"/>
<path d="M987.781 110.08V122.969H1042.85H1097.91V110.08V97.1914H1042.85H987.781V110.08Z" fill="white"/>
<path d="M1235.39 110.08V122.969H1290.97H1346.56V110.08V97.1914H1290.97H1235.39V110.08Z" fill="white"/>
<path d="M1365.12 137.862C1365.2 178.403 1365.2 178.559 1365.75 180.981C1366.61 184.704 1367.29 186.605 1369.11 190.276C1371.06 194.26 1373.14 197.15 1376.66 200.665C1386.16 210.169 1397.88 216.028 1411.65 218.189C1415.82 218.84 1425.4 218.814 1429.56 218.163C1441.02 216.366 1451.12 211.94 1459.95 204.805C1469.87 196.786 1474.95 187.751 1475.96 176.294C1476.12 174.497 1476.22 158.614 1476.22 135.258V97.1913H1463.07H1449.92V131.353C1449.92 167.91 1449.92 168.092 1448.62 172.232C1445.73 181.554 1438 189.131 1428.63 191.865C1413.76 196.161 1397.67 187.698 1392.78 172.987C1391.29 168.509 1391.34 169.915 1391.34 132.056V97.1913H1378.2H1365.05L1365.12 137.862Z" fill="white"/>
<path d="M1624.89 110.08V122.969H1679.95H1735.02V110.08V97.1914H1679.95H1624.89V110.08Z" fill="white"/>
<path d="M584.224 177.441C572.56 198.219 562.562 216.029 562.015 217.018L561 218.789L577.507 218.737L593.988 218.659L607.969 193.793C615.676 180.123 621.95 168.875 621.977 168.797C621.977 168.614 605.86 140.103 605.626 139.843C605.522 139.765 595.888 156.689 584.224 177.441Z" fill="white"/>
<path d="M987.781 179.863V218.789H1042.85H1097.91V205.9V193.012H1056H1014.08V179.993V166.974H1050.53H1086.98V153.955V140.936H1037.38H987.781V179.863Z" fill="white"/>
<path d="M1624.89 179.863V218.789H1679.95H1735.02V205.9V193.012H1693.1H1651.18V179.993V166.974H1687.63H1724.08V153.955V140.936H1674.49H1624.89V179.863Z" fill="white"/>
<path d="M1277.04 179.993V218.789H1290.06H1303.08V179.993V141.197H1290.06H1277.04V179.993Z" fill="white"/>
<path d="M1116.66 185.281V218.531H1129.81H1142.96V198.222V177.886L1132.85 167.94C1127.31 162.472 1121.4 156.64 1119.71 155.025L1116.66 152.031V185.281Z" fill="white"/>
<path d="M556.415 324.166V315.545H597.031V324.166H581.891V365H571.555V324.166H556.415ZM603.72 365V315.545H637.044V324.166H614.176V335.95H635.33V344.571H614.176V356.379H637.141V365H603.72ZM688.992 332.859H678.415C678.222 331.491 677.828 330.276 677.232 329.213C676.636 328.134 675.872 327.217 674.938 326.46C674.004 325.704 672.926 325.124 671.702 324.722C670.495 324.319 669.183 324.118 667.766 324.118C665.206 324.118 662.977 324.754 661.077 326.026C659.177 327.281 657.704 329.116 656.658 331.531C655.612 333.93 655.088 336.844 655.088 340.273C655.088 343.798 655.612 346.76 656.658 349.159C657.721 351.558 659.202 353.369 661.101 354.592C663.001 355.816 665.198 356.428 667.694 356.428C669.094 356.428 670.39 356.242 671.581 355.872C672.789 355.502 673.859 354.963 674.793 354.254C675.727 353.53 676.499 352.652 677.111 351.622C677.739 350.592 678.174 349.417 678.415 348.097L688.992 348.145C688.718 350.415 688.034 352.604 686.939 354.713C685.861 356.806 684.404 358.681 682.569 360.339C680.749 361.982 678.576 363.286 676.049 364.251C673.537 365.201 670.696 365.676 667.525 365.676C663.114 365.676 659.169 364.678 655.692 362.682C652.231 360.686 649.494 357.796 647.482 354.013C645.486 350.23 644.488 345.65 644.488 340.273C644.488 334.88 645.502 330.292 647.53 326.509C649.559 322.725 652.311 319.844 655.789 317.864C659.266 315.867 663.178 314.869 667.525 314.869C670.39 314.869 673.046 315.272 675.493 316.077C677.956 316.882 680.138 318.057 682.037 319.602C683.937 321.132 685.482 323.007 686.674 325.229C687.881 327.45 688.654 329.994 688.992 332.859ZM696.49 365V315.545H706.946V335.95H728.172V315.545H738.603V365H728.172V344.571H706.946V365H696.49ZM788.589 315.545V365H779.558L758.042 333.874H757.68V365H747.224V315.545H756.4L777.747 346.648H778.181V315.545H788.589ZM842.674 340.273C842.674 345.666 841.652 350.254 839.607 354.037C837.579 357.82 834.81 360.71 831.3 362.706C827.807 364.686 823.879 365.676 819.516 365.676C815.121 365.676 811.177 364.678 807.684 362.682C804.191 360.686 801.43 357.796 799.401 354.013C797.373 350.23 796.359 345.65 796.359 340.273C796.359 334.88 797.373 330.292 799.401 326.509C801.43 322.725 804.191 319.844 807.684 317.864C811.177 315.867 815.121 314.869 819.516 314.869C823.879 314.869 827.807 315.867 831.3 317.864C834.81 319.844 837.579 322.725 839.607 326.509C841.652 330.292 842.674 334.88 842.674 340.273ZM832.073 340.273C832.073 336.779 831.55 333.833 830.504 331.435C829.473 329.036 828.016 327.217 826.133 325.977C824.249 324.738 822.044 324.118 819.516 324.118C816.989 324.118 814.783 324.738 812.9 325.977C811.016 327.217 809.551 329.036 808.505 331.435C807.475 333.833 806.96 336.779 806.96 340.273C806.96 343.766 807.475 346.712 808.505 349.111C809.551 351.509 811.016 353.329 812.9 354.568C814.783 355.808 816.989 356.428 819.516 356.428C822.044 356.428 824.249 355.808 826.133 354.568C828.016 353.329 829.473 351.509 830.504 349.111C831.55 346.712 832.073 343.766 832.073 340.273ZM850.419 365V315.545H860.875V356.379H882.077V365H850.419ZM932.522 340.273C932.522 345.666 931.499 350.254 929.455 354.037C927.426 357.82 924.658 360.71 921.148 362.706C917.655 364.686 913.727 365.676 909.364 365.676C904.969 365.676 901.025 364.678 897.532 362.682C894.038 360.686 891.277 357.796 889.249 354.013C887.221 350.23 886.206 345.65 886.206 340.273C886.206 334.88 887.221 330.292 889.249 326.509C891.277 322.725 894.038 319.844 897.532 317.864C901.025 315.867 904.969 314.869 909.364 314.869C913.727 314.869 917.655 315.867 921.148 317.864C924.658 319.844 927.426 322.725 929.455 326.509C931.499 330.292 932.522 334.88 932.522 340.273ZM921.921 340.273C921.921 336.779 921.398 333.833 920.351 331.435C919.321 329.036 917.864 327.217 915.98 325.977C914.097 324.738 911.891 324.118 909.364 324.118C906.837 324.118 904.631 324.738 902.748 325.977C900.864 327.217 899.399 329.036 898.353 331.435C897.322 333.833 896.807 336.779 896.807 340.273C896.807 343.766 897.322 346.712 898.353 349.111C899.399 351.509 900.864 353.329 902.748 354.568C904.631 355.808 906.837 356.428 909.364 356.428C911.891 356.428 914.097 355.808 915.98 354.568C917.864 353.329 919.321 351.509 920.351 349.111C921.398 346.712 921.921 343.766 921.921 340.273ZM973.06 331.531C972.722 330.356 972.247 329.318 971.635 328.416C971.023 327.499 970.275 326.726 969.389 326.098C968.52 325.454 967.522 324.963 966.395 324.625C965.284 324.287 964.053 324.118 962.7 324.118C960.173 324.118 957.951 324.746 956.036 326.001C954.136 327.257 952.655 329.084 951.592 331.483C950.53 333.866 949.999 336.779 949.999 340.224C949.999 343.67 950.522 346.599 951.568 349.014C952.615 351.429 954.096 353.272 956.011 354.544C957.927 355.8 960.189 356.428 962.797 356.428C965.163 356.428 967.184 356.009 968.858 355.172C970.548 354.319 971.836 353.119 972.722 351.574C973.623 350.028 974.074 348.201 974.074 346.092L976.199 346.406H963.449V338.534H984.143V344.764C984.143 349.111 983.226 352.846 981.391 355.969C979.555 359.076 977.028 361.474 973.808 363.165C970.589 364.839 966.902 365.676 962.749 365.676C958.112 365.676 954.039 364.654 950.53 362.609C947.02 360.549 944.284 357.627 942.32 353.844C940.372 350.045 939.398 345.537 939.398 340.321C939.398 336.312 939.977 332.739 941.136 329.599C942.312 326.444 943.954 323.772 946.062 321.582C948.171 319.393 950.626 317.727 953.428 316.584C956.229 315.441 959.263 314.869 962.531 314.869C965.332 314.869 967.94 315.28 970.355 316.101C972.77 316.906 974.911 318.049 976.778 319.53C978.662 321.011 980.199 322.774 981.391 324.818C982.582 326.847 983.347 329.084 983.685 331.531H973.06ZM987.108 315.545H998.819L1010.1 336.844H1010.58L1021.86 315.545H1033.57L1015.53 347.517V365H1005.15V347.517L987.108 315.545ZM1081.85 329.768C1081.65 327.821 1080.82 326.307 1079.36 325.229C1077.89 324.15 1075.9 323.611 1073.39 323.611C1071.69 323.611 1070.25 323.852 1069.07 324.335C1067.9 324.802 1066.99 325.454 1066.37 326.291C1065.75 327.128 1065.45 328.078 1065.45 329.141C1065.42 330.026 1065.6 330.799 1066 331.459C1066.42 332.119 1066.99 332.69 1067.72 333.173C1068.44 333.64 1069.28 334.051 1070.23 334.405C1071.18 334.743 1072.19 335.033 1073.27 335.274L1077.72 336.337C1079.87 336.82 1081.85 337.464 1083.66 338.268C1085.46 339.073 1087.02 340.063 1088.34 341.239C1089.66 342.414 1090.68 343.798 1091.41 345.392C1092.15 346.986 1092.53 348.813 1092.54 350.874C1092.53 353.9 1091.75 356.524 1090.22 358.746C1088.71 360.951 1086.52 362.666 1083.66 363.889C1080.81 365.097 1077.37 365.7 1073.35 365.7C1069.35 365.7 1065.88 365.089 1062.91 363.865C1059.97 362.642 1057.67 360.83 1056.01 358.432C1054.37 356.017 1053.5 353.031 1053.42 349.473H1063.54C1063.65 351.131 1064.13 352.516 1064.97 353.626C1065.82 354.721 1066.95 355.55 1068.37 356.114C1069.8 356.661 1071.42 356.935 1073.22 356.935C1075 356.935 1076.53 356.677 1077.84 356.162C1079.16 355.647 1080.18 354.93 1080.9 354.013C1081.63 353.095 1081.99 352.041 1081.99 350.849C1081.99 349.739 1081.66 348.805 1081 348.048C1080.36 347.292 1079.41 346.648 1078.15 346.116C1076.91 345.585 1075.39 345.102 1073.59 344.668L1068.2 343.315C1064.03 342.301 1060.74 340.715 1058.33 338.558C1055.91 336.401 1054.71 333.495 1054.73 329.841C1054.71 326.847 1055.51 324.231 1057.12 321.993C1058.74 319.755 1060.97 318.009 1063.81 316.753C1066.64 315.497 1069.86 314.869 1073.47 314.869C1077.14 314.869 1080.34 315.497 1083.08 316.753C1085.83 318.009 1087.97 319.755 1089.5 321.993C1091.03 324.231 1091.82 326.822 1091.87 329.768H1081.85ZM1145.02 340.273C1145.02 345.666 1144 350.254 1141.95 354.037C1139.93 357.82 1137.16 360.71 1133.65 362.706C1130.15 364.686 1126.23 365.676 1121.86 365.676C1117.47 365.676 1113.52 364.678 1110.03 362.682C1106.54 360.686 1103.78 357.796 1101.75 354.013C1099.72 350.23 1098.71 345.65 1098.71 340.273C1098.71 334.88 1099.72 330.292 1101.75 326.509C1103.78 322.725 1106.54 319.844 1110.03 317.864C1113.52 315.867 1117.47 314.869 1121.86 314.869C1126.23 314.869 1130.15 315.867 1133.65 317.864C1137.16 319.844 1139.93 322.725 1141.95 326.509C1144 330.292 1145.02 334.88 1145.02 340.273ZM1134.42 340.273C1134.42 336.779 1133.9 333.833 1132.85 331.435C1131.82 329.036 1130.36 327.217 1128.48 325.977C1126.6 324.738 1124.39 324.118 1121.86 324.118C1119.34 324.118 1117.13 324.738 1115.25 325.977C1113.36 327.217 1111.9 329.036 1110.85 331.435C1109.82 333.833 1109.31 336.779 1109.31 340.273C1109.31 343.766 1109.82 346.712 1110.85 349.111C1111.9 351.509 1113.36 353.329 1115.25 354.568C1117.13 355.808 1119.34 356.428 1121.86 356.428C1124.39 356.428 1126.6 355.808 1128.48 354.568C1130.36 353.329 1131.82 351.509 1132.85 349.111C1133.9 346.712 1134.42 343.766 1134.42 340.273ZM1152.77 365V315.545H1163.22V356.379H1184.42V365H1152.77ZM1221.9 315.545H1232.35V347.662C1232.35 351.268 1231.49 354.423 1229.77 357.128C1228.06 359.832 1225.67 361.941 1222.6 363.455C1219.52 364.952 1215.94 365.7 1211.85 365.7C1207.75 365.7 1204.16 364.952 1201.08 363.455C1198.01 361.941 1195.62 359.832 1193.91 357.128C1192.2 354.423 1191.35 351.268 1191.35 347.662V315.545H1201.81V346.768C1201.81 348.652 1202.22 350.326 1203.04 351.791C1203.87 353.256 1205.05 354.407 1206.56 355.244C1208.08 356.081 1209.84 356.5 1211.85 356.5C1213.88 356.5 1215.64 356.081 1217.14 355.244C1218.65 354.407 1219.82 353.256 1220.64 351.791C1221.48 350.326 1221.9 348.652 1221.9 346.768V315.545ZM1239.07 324.166V315.545H1279.69V324.166H1264.55V365H1254.21V324.166H1239.07ZM1296.83 315.545V365H1286.38V315.545H1296.83ZM1350.88 340.273C1350.88 345.666 1349.86 350.254 1347.81 354.037C1345.79 357.82 1343.02 360.71 1339.51 362.706C1336.01 364.686 1332.09 365.676 1327.72 365.676C1323.33 365.676 1319.38 364.678 1315.89 362.682C1312.4 360.686 1309.64 357.796 1307.61 354.013C1305.58 350.23 1304.57 345.65 1304.57 340.273C1304.57 334.88 1305.58 330.292 1307.61 326.509C1309.64 322.725 1312.4 319.844 1315.89 317.864C1319.38 315.867 1323.33 314.869 1327.72 314.869C1332.09 314.869 1336.01 315.867 1339.51 317.864C1343.02 319.844 1345.79 322.725 1347.81 326.509C1349.86 330.292 1350.88 334.88 1350.88 340.273ZM1340.28 340.273C1340.28 336.779 1339.76 333.833 1338.71 331.435C1337.68 329.036 1336.22 327.217 1334.34 325.977C1332.46 324.738 1330.25 324.118 1327.72 324.118C1325.2 324.118 1322.99 324.738 1321.11 325.977C1319.22 327.217 1317.76 329.036 1316.71 331.435C1315.68 333.833 1315.17 336.779 1315.17 340.273C1315.17 343.766 1315.68 346.712 1316.71 349.111C1317.76 351.509 1319.22 353.329 1321.11 354.568C1322.99 355.808 1325.2 356.428 1327.72 356.428C1330.25 356.428 1332.46 355.808 1334.34 354.568C1336.22 353.329 1337.68 351.509 1338.71 349.111C1339.76 346.712 1340.28 343.766 1340.28 340.273ZM1399.99 315.545V365H1390.96L1369.44 333.874H1369.08V365H1358.63V315.545H1367.8L1389.15 346.648H1389.58V315.545H1399.99ZM1435.46 329.768C1435.27 327.821 1434.44 326.307 1432.97 325.229C1431.51 324.15 1429.52 323.611 1427.01 323.611C1425.3 323.611 1423.86 323.852 1422.68 324.335C1421.51 324.802 1420.61 325.454 1419.98 326.291C1419.37 327.128 1419.06 328.078 1419.06 329.141C1419.03 330.026 1419.22 330.799 1419.62 331.459C1420.04 332.119 1420.61 332.69 1421.33 333.173C1422.06 333.64 1422.89 334.051 1423.84 334.405C1424.79 334.743 1425.81 335.033 1426.89 335.274L1431.33 336.337C1433.49 336.82 1435.47 337.464 1437.27 338.268C1439.07 339.073 1440.63 340.063 1441.95 341.239C1443.27 342.414 1444.3 343.798 1445.02 345.392C1445.76 346.986 1446.14 348.813 1446.16 350.874C1446.14 353.9 1445.37 356.524 1443.84 358.746C1442.32 360.951 1440.14 362.666 1437.27 363.889C1434.42 365.097 1430.98 365.7 1426.96 365.7C1422.97 365.7 1419.49 365.089 1416.53 363.865C1413.58 362.642 1411.28 360.83 1409.62 358.432C1407.98 356.017 1407.12 353.031 1407.04 349.473H1417.15C1417.27 351.131 1417.74 352.516 1418.58 353.626C1419.43 354.721 1420.57 355.55 1421.98 356.114C1423.42 356.661 1425.03 356.935 1426.84 356.935C1428.61 356.935 1430.15 356.677 1431.45 356.162C1432.77 355.647 1433.79 354.93 1434.52 354.013C1435.24 353.095 1435.6 352.041 1435.6 350.849C1435.6 349.739 1435.27 348.805 1434.61 348.048C1433.97 347.292 1433.02 346.648 1431.76 346.116C1430.52 345.585 1429 345.102 1427.2 344.668L1421.81 343.315C1417.65 342.301 1414.35 340.715 1411.94 338.558C1409.52 336.401 1408.32 333.495 1408.34 329.841C1408.32 326.847 1409.12 324.231 1410.73 321.993C1412.36 319.755 1414.59 318.009 1417.42 316.753C1420.25 315.497 1423.47 314.869 1427.08 314.869C1430.75 314.869 1433.95 315.497 1436.69 316.753C1439.44 318.009 1441.58 319.755 1443.11 321.993C1444.64 324.231 1445.43 326.822 1445.48 329.768H1435.46ZM1468.93 365V315.545H1488.44C1492.19 315.545 1495.39 316.262 1498.03 317.695C1500.67 319.111 1502.68 321.083 1504.06 323.611C1505.46 326.122 1506.16 329.02 1506.16 332.304C1506.16 335.588 1505.45 338.486 1504.04 340.997C1502.62 343.509 1500.57 345.464 1497.88 346.865C1495.21 348.266 1491.97 348.966 1488.17 348.966H1475.74V340.587H1486.48C1488.49 340.587 1490.15 340.241 1491.46 339.548C1492.78 338.84 1493.76 337.866 1494.4 336.626C1495.06 335.371 1495.39 333.93 1495.39 332.304C1495.39 330.662 1495.06 329.229 1494.4 328.006C1493.76 326.766 1492.78 325.808 1491.46 325.132C1490.14 324.44 1488.46 324.094 1486.43 324.094H1479.38V365H1468.93ZM1521.89 315.545L1533.84 353.119H1534.3L1546.28 315.545H1557.87L1540.82 365H1527.35L1510.27 315.545H1521.89ZM1561.94 324.166V315.545H1602.55V324.166H1587.41V365H1577.08V324.166H1561.94ZM1624.98 365V315.545H1635.44V356.379H1656.64V365H1624.98ZM1655.5 324.166V315.545H1696.12V324.166H1680.98V365H1670.65V324.166H1655.5ZM1720.34 365H1702.81V315.545H1720.49C1725.46 315.545 1729.74 316.536 1733.33 318.516C1736.92 320.48 1739.68 323.305 1741.62 326.991C1743.56 330.678 1744.54 335.089 1744.54 340.224C1744.54 345.376 1743.56 349.803 1741.62 353.506C1739.68 357.208 1736.91 360.05 1733.28 362.03C1729.68 364.01 1725.36 365 1720.34 365ZM1713.27 356.041H1719.91C1723 356.041 1725.6 355.494 1727.71 354.399C1729.83 353.288 1731.43 351.574 1732.49 349.256C1733.57 346.921 1734.11 343.911 1734.11 340.224C1734.11 336.57 1733.57 333.584 1732.49 331.266C1731.43 328.947 1729.84 327.241 1727.73 326.146C1725.62 325.052 1723.02 324.504 1719.93 324.504H1713.27V356.041Z" fill="white"/>
</svg>
