<svg width="1921" height="365" viewBox="0 0 1921 365" fill="none" xmlns="http://www.w3.org/2000/svg">
<path d="M192.285 0.654379C192.103 1.07098 191.608 1.95628 191.14 2.68534C190.697 3.38835 189.526 5.26306 188.562 6.85136C187.599 8.41362 185.802 11.2257 184.605 13.1004C182.782 15.9125 180.882 19.037 177.783 24.2446C177.549 24.6351 176.56 26.2495 175.544 27.8117C173.67 30.754 172.498 32.6027 168.124 39.6589C163.333 47.3921 162.474 48.7721 161.094 50.9853C160.339 52.2091 158.907 54.4744 157.944 56.0627C156.98 57.6249 155.705 59.708 155.08 60.6974C154.455 61.6608 153.231 63.5616 152.372 64.9416C151.513 66.2955 150.471 67.9619 150.055 68.6129C149.352 69.7064 149.326 69.8627 149.664 70.4095C150.497 71.8155 154.507 78.0906 155.861 80.1736C156.668 81.3974 158.725 84.6521 160.443 87.4121C163.568 92.4374 166.562 97.1763 168.514 100.249C169.426 101.655 171.925 105.639 173.279 107.826C173.696 108.503 175.44 111.263 178.538 116.21C179.267 117.356 180.934 119.985 182.262 122.068C183.589 124.151 185.073 126.547 185.568 127.38C186.063 128.187 187.469 130.452 188.692 132.379C191.27 136.441 196.269 144.409 199.159 148.965C202.908 154.928 203.611 156.048 204.705 157.74C205.303 158.677 205.98 159.771 206.215 160.214C206.423 160.63 206.97 161.437 207.412 162.01C207.855 162.557 208.22 163.156 208.22 163.312C208.22 163.468 207.855 164.197 207.412 164.9C206.449 166.489 204.418 169.952 202.231 173.753C201.346 175.316 199.862 177.841 198.977 179.351C198.065 180.862 197.024 182.736 196.633 183.517C196.243 184.299 195.592 185.418 195.201 185.991C194.811 186.564 193.796 188.256 192.936 189.766C192.077 191.277 190.515 193.959 189.474 195.755C188.432 197.552 187.391 199.348 187.182 199.791C186.948 200.208 186.349 201.223 185.828 202.004C185.282 202.785 184.423 204.322 183.876 205.389C183.329 206.457 182.704 207.628 182.444 207.993C182.183 208.357 181.116 210.154 180.048 212.029C178.981 213.877 176.95 217.392 175.544 219.84C174.138 222.262 172.472 225.074 171.847 226.089C170.962 227.443 170.728 227.99 170.91 228.302C171.066 228.511 171.326 228.693 171.535 228.693C175.206 228.641 218.712 228.25 231.079 228.172L247.794 228.068L248.419 228.641C249.044 229.214 251.231 232.599 253.574 236.634C254.277 237.858 255.032 239.03 255.215 239.238C255.397 239.446 255.813 240.149 256.126 240.774C256.438 241.425 257.089 242.545 257.558 243.248C258.027 243.977 259.511 246.451 260.891 248.742C262.244 251.033 264.015 253.976 264.822 255.303C265.629 256.605 266.28 257.751 266.28 257.855C266.28 257.959 266.671 258.636 267.165 259.365C268.024 260.693 270.993 265.536 272.659 268.4C273.518 269.885 275.002 272.358 277.345 276.212C278.074 277.436 279.012 278.998 279.428 279.727C279.819 280.43 280.522 281.602 280.99 282.331C281.459 283.034 283.932 287.148 286.484 291.418C289.062 295.688 291.613 299.984 292.186 300.922C292.759 301.885 293.8 303.629 294.503 304.827C295.206 305.999 296.013 307.092 296.274 307.223C296.612 307.405 303.564 307.405 317.91 307.223C345.69 306.858 381.932 306.546 384.796 306.65C386.046 306.676 387.296 306.65 387.608 306.546C388.363 306.311 388.259 305.53 387.4 305.218C386.645 304.931 385.655 303.473 376.829 289.491C376.126 288.423 374.564 285.95 373.34 283.997C372.091 282.044 370.424 279.44 369.643 278.191C368.862 276.941 367.404 274.649 366.389 273.087C362.9 267.645 361.728 265.797 355.61 256.111C355.089 255.277 353.97 253.507 353.11 252.127C352.251 250.773 351.054 248.924 350.455 248.013C349.856 247.128 348.945 245.696 348.424 244.836C347.929 243.977 346.94 242.389 346.237 241.321C345.534 240.254 344.284 238.275 343.451 236.921C341.915 234.473 338.452 229.031 336.239 225.568C335.588 224.553 334.364 222.626 333.505 221.272C331.813 218.616 330.225 216.117 327.257 211.43C324.913 207.759 322.101 203.358 320.175 200.312C317.675 196.38 313.119 189.168 312.494 188.204C312.182 187.709 311.244 186.225 310.385 184.897C309.552 183.596 308.042 181.2 307.026 179.612C304.735 175.992 303.303 173.727 300.986 170.108C299.971 168.52 298.018 165.421 296.612 163.208C295.206 160.995 293.696 158.573 293.227 157.87C292.759 157.141 291.431 155.032 290.233 153.183C289.062 151.309 287.551 148.965 286.875 147.924C286.224 146.882 284.974 144.903 284.115 143.523C283.256 142.143 281.824 139.904 280.938 138.576C280.027 137.222 279.298 136.051 279.298 135.946C279.298 135.868 278.569 134.671 277.658 133.291C276.747 131.911 275.549 130.062 274.976 129.151C274.429 128.265 273.57 126.911 273.075 126.156C272.607 125.401 271.305 123.396 270.237 121.678C269.17 119.959 267.686 117.616 266.931 116.47C265.655 114.465 263.598 111.263 261.125 107.357C260.5 106.342 259.042 104.102 257.922 102.332C256.803 100.561 255.866 99.051 255.866 98.9208C255.866 98.8166 255.501 98.2438 255.058 97.6449C254.616 97.0461 253.34 95.1193 252.247 93.3487C245.998 83.5065 240.114 74.211 239.723 73.6381C237.901 70.9042 236.338 68.4306 236 67.7797C235.792 67.337 234.985 66.0612 234.204 64.9155C233.448 63.7699 232.173 61.791 231.392 60.5412C230.611 59.2653 229.153 56.948 228.137 55.3857C227.148 53.8234 225.325 50.9593 224.102 49.0065C222.878 47.0797 220.873 43.9291 219.623 42.0023C218.374 40.0755 217.176 38.0966 216.968 37.5759C216.759 37.0812 215.718 35.3887 214.676 33.8525C213.661 32.3163 211.969 29.8167 210.953 28.2544C209.964 26.7182 208.792 24.9216 208.35 24.2706C207.933 23.6197 207.048 22.2136 206.397 21.1721C205.746 20.1306 204.913 18.8287 204.548 18.2559C204.184 17.7091 202.726 15.4178 201.294 13.1525C199.888 10.8872 198.274 8.36156 197.753 7.55439C197.206 6.72118 196.529 5.60154 196.217 5.02871C195.904 4.45588 195.332 3.57061 194.941 3.07589C194.551 2.58117 193.978 1.66984 193.665 1.04493C193.014 -0.230917 192.702 -0.309017 192.285 0.654379Z" fill="#0075FF"/>
<path d="M142.871 49.3203C142.376 49.5286 140.085 50.3358 137.794 51.1169C131.936 53.0697 128.343 54.3716 125.167 55.6475C123.657 56.2463 121.496 57.1056 120.35 57.5482C116.731 58.9543 109.545 62.0788 105.77 63.8754C103.765 64.8388 101.37 65.9063 100.432 66.2969C99.495 66.6614 97.9329 67.4686 96.9435 68.1195C95.9541 68.7705 94.4701 69.5516 93.663 69.8901C92.0487 70.5411 89.6534 71.869 88.9244 72.5199C88.664 72.7543 87.1539 73.6656 85.5397 74.5509C83.9255 75.4622 81.5562 76.9203 80.2544 77.7795C73.9797 82.0758 68.8245 85.669 67.9653 86.372C67.4186 86.8146 64.5286 89.132 61.5084 91.5275C55.7023 96.1622 48.3862 103.192 44.1944 108.166C42.9967 109.572 41.4866 111.342 40.8357 112.045C39.4819 113.529 36.4356 117.487 34.6912 119.987C31.7752 124.231 29.0674 128.371 28.8591 128.918C28.729 129.256 28.0781 130.35 27.4272 131.365C26.2295 133.24 23.6259 138.421 21.9335 142.379C21.4128 143.603 20.5276 145.53 19.9808 146.675C19.4341 147.821 18.5228 150.164 17.95 151.883C17.3512 153.601 16.5961 155.815 16.2577 156.83C14.6695 161.309 13.0032 168.391 11.7795 175.707C11.5451 177.218 11.1806 179.144 10.9724 180.004C10.4256 182.399 9.56641 194.715 9.56641 200.443C9.56641 206.588 10.3475 218.331 10.9984 221.82C11.2067 223.018 11.8055 226.507 12.3002 229.58C12.8209 232.652 13.7061 236.974 14.305 239.214C14.8778 241.453 15.5026 243.978 15.7109 244.838C16.2316 247.285 17.8198 251.581 18.2885 251.868C18.6009 252.076 18.8873 251.894 19.6684 250.957C20.1891 250.332 22.2981 247.936 24.3549 245.697L28.1041 241.583L27.5573 239.943C26.2816 235.985 24.5632 226.663 23.3916 217.498C22.5063 210.598 22.4543 209.583 22.4803 199.662C22.4803 190.679 22.5584 188.778 23.0531 184.56C23.3916 181.904 23.8081 179.092 24.0164 178.311C24.2247 177.53 24.5632 175.76 24.7975 174.406C25.5005 170.24 26.6461 165.579 27.7396 162.428C28.2864 160.788 29.0154 158.679 29.3018 157.741C30.5255 153.966 31.2024 152.247 32.8166 148.732C35.1338 143.733 36.4877 141.051 37.8416 138.812C38.4665 137.77 38.9872 136.807 38.9872 136.677C38.9872 136.521 39.6381 135.479 40.4192 134.334C41.2003 133.188 41.8512 132.146 41.8512 132.016C41.8512 131.782 42.9186 130.246 46.095 126.001C46.9803 124.804 48.1519 123.163 48.7247 122.356C49.2714 121.549 50.7295 119.778 51.9792 118.424C53.2029 117.07 54.7651 115.3 55.442 114.519C57.1343 112.488 64.6848 105.067 67.5488 102.646C71.7666 99.0263 72.3654 98.5316 74.5004 96.8912C79.3431 93.1678 83.6391 90.2256 88.3256 87.4135C89.341 86.8146 90.5126 86.0075 90.9292 85.6169C91.3718 85.2003 92.934 84.2629 94.444 83.5339C95.9541 82.7788 97.6986 81.7894 98.3495 81.3467C99.0004 80.9041 100.172 80.2011 100.953 79.7845C104.312 78.0399 111.888 74.2905 113.45 73.6395C125.661 68.432 128.708 67.2603 134.592 65.5939C135.92 65.2033 137.664 64.0056 137.664 63.4588C137.664 63.3546 139.2 60.152 141.075 56.3505C142.923 52.549 144.381 49.3203 144.303 49.1641C144.095 48.8256 143.965 48.8516 142.871 49.3203Z" fill="#0075FF"/>
<path d="M242.848 49.1642C242.848 49.3204 244.384 52.5491 246.232 56.3245C248.107 60.1261 249.617 63.3287 249.617 63.4328C249.617 63.563 249.956 63.9536 250.346 64.3442C250.893 64.8649 252.143 65.3857 254.85 66.2189C256.933 66.8438 259.198 67.6249 259.901 67.9113C260.63 68.2238 262.843 69.1091 264.848 69.8642C266.853 70.6193 269.821 71.843 271.409 72.5721C273.023 73.3012 274.429 73.9 274.508 73.9C275.028 73.9 287.994 80.6178 291.665 82.7789C292.863 83.4819 293.904 84.0547 293.983 84.0547C294.087 84.0547 295.18 84.7057 296.43 85.5389C297.68 86.3461 299.867 87.7521 301.299 88.6895C304.032 90.46 306.844 92.4389 311.713 96.0581C314.499 98.1151 320.696 103.349 324.184 106.603C329.183 111.264 335.067 117.722 339.363 123.242C341.655 126.184 347.669 135.219 349.491 138.474C353.553 145.738 357.042 153.836 359.255 161.126C359.828 163.053 360.427 164.928 360.531 165.292C361.312 167.48 363.265 177.296 363.915 182.217C365.269 192.476 365.321 206.354 364.046 216.847C363.629 220.31 363.004 224.554 362.614 226.481C362.483 227.132 362.197 228.694 361.963 229.996C361.338 233.537 359.984 239.578 359.724 240.073C359.073 241.271 359.411 241.817 363.473 246.244C365.634 248.639 367.691 250.957 367.977 251.373C368.81 252.493 369.279 252.024 370.19 249.264C370.893 247.077 371.18 246.14 372.533 241.192C372.976 239.552 374.252 233.642 375.215 228.564C375.71 226.012 376.621 219.086 377.246 213.202C377.454 211.405 377.558 206.432 377.558 200.704C377.558 191.2 377.532 191.018 376.387 181.436C375.71 175.682 373.939 166.907 372.351 161.387C370.424 154.643 366.155 143.499 363.811 138.994C363.473 138.343 362.536 136.599 361.754 135.089C358.604 128.996 354.542 122.669 350.064 116.732C347.877 113.894 342.592 107.593 340.066 104.885C335.562 100.016 326.762 92.0744 321.242 87.8562C319.914 86.8408 318.196 85.5389 317.441 84.9661C314.759 82.9091 304.553 76.2174 300.492 73.874C292.655 69.2913 287.968 66.8698 277.996 62.2351C274.976 60.803 266.202 57.1578 264.458 56.5849C263.677 56.3245 261.854 55.5955 260.422 54.9445C257.246 53.5385 255.397 52.8615 248.784 50.6223C243.577 48.8778 242.848 48.6955 242.848 49.1642Z" fill="#0075FF"/>
<path d="M135.736 93.7667C135.397 94.2353 134.512 95.5893 133.757 96.8131C133.002 98.0369 131.361 100.615 130.112 102.541C128.862 104.468 126.623 107.983 125.165 110.353C123.681 112.722 122.275 114.935 122.041 115.3C121.78 115.664 120.739 117.305 119.697 118.945C118.656 120.586 117.172 122.929 116.391 124.153C115.584 125.376 113.865 128.058 112.563 130.141C111.262 132.224 109.882 134.386 109.517 134.958C108.918 135.87 106.106 140.322 100.066 149.878C97.9051 153.289 94.3902 158.783 92.9582 160.944C92.4115 161.777 91.6304 163.027 91.1878 163.73C88.8966 167.427 87.5688 169.536 86.319 171.463C84.6007 174.119 84.4444 174.379 80.4089 180.785C77.0502 186.07 75.7484 188.127 72.9625 192.476C72.1033 193.804 70.7495 195.939 69.9684 197.189C68.4062 199.662 65.5422 204.193 64.631 205.651C64.2925 206.146 62.9386 208.255 61.5848 210.338C60.2569 212.421 58.3823 215.311 57.4711 216.795C56.5338 218.253 54.6592 221.221 53.3053 223.356C51.9514 225.492 50.6496 227.575 50.4153 227.965C50.181 228.356 48.9573 230.283 47.7075 232.209C46.4578 234.136 45.0779 236.297 44.6613 237.026C44.2447 237.729 43.5418 238.875 43.0731 239.552C42.6045 240.229 41.589 241.791 40.808 243.041C40.0269 244.291 38.673 246.4 37.8138 247.728C36.9546 249.082 35.6789 251.087 34.9759 252.18C34.2729 253.3 33.2054 254.966 32.6066 255.904C32.0078 256.841 30.8361 258.716 29.977 260.07C29.1438 261.424 27.7378 263.663 26.8526 265.017C25.9674 266.371 24.4833 268.714 23.546 270.224C22.0099 272.698 19.7448 276.239 17.5057 279.728C16.4642 281.343 10.6061 290.56 8.0806 294.57C3.18582 302.303 1.33726 305.063 0.634282 305.688C0.0354515 306.183 -0.120765 306.469 0.0875237 306.677C0.373921 306.964 43.9063 307.042 63.9801 306.807C69.4997 306.729 117.12 306.547 169.817 306.391C222.514 306.235 266.437 306.104 267.452 306.078C269.691 306.026 269.873 305.636 268.572 303.839C268.103 303.188 265.812 299.595 263.495 295.872C257.402 286.081 257.272 285.847 254.642 281.707C251.518 276.734 249.669 273.766 247.795 270.745C245.764 267.438 244.618 265.59 238.109 255.253C237.042 253.534 235.818 251.581 235.428 250.878C234.048 248.483 236.261 248.717 212.464 248.509C200.904 248.405 188.042 248.275 183.876 248.223C179.737 248.17 165.859 248.04 153.102 247.936C127.69 247.754 128.628 247.806 129.799 246.322C130.112 245.931 130.554 245.254 130.789 244.838C131.023 244.395 131.7 243.301 132.325 242.364C134.538 238.953 136.36 236.063 145.629 221.195C147.816 217.706 149.769 214.634 152.867 209.817C154.482 207.317 156.616 203.906 157.632 202.266C159.845 198.621 161.043 196.694 165.521 189.638C167.421 186.617 169.504 183.284 170.155 182.217C170.78 181.149 171.926 179.327 172.681 178.181C173.41 177.035 174.659 175.109 175.415 173.885C178.825 168.469 179.789 166.959 180.83 165.396C181.429 164.485 181.924 163.574 181.924 163.392C181.924 163.209 181.533 162.532 181.09 161.907C180.622 161.283 179.815 160.111 179.32 159.278C178.487 157.924 177.445 156.257 173.852 150.737C173.201 149.748 172.03 147.899 171.223 146.623C170.416 145.373 168.827 142.9 167.708 141.155C165.391 137.562 160.418 129.829 158.283 126.496C156.434 123.58 154.455 120.507 152.164 116.992C149.977 113.659 147.816 110.249 145.499 106.577C144.588 105.145 143.208 102.984 142.427 101.76C141.646 100.536 140.136 98.1931 139.068 96.5527C138.001 94.9123 137.141 93.4802 137.141 93.4021C137.141 93.298 136.959 93.1678 136.751 93.0636C136.517 92.9855 136.126 93.2459 135.736 93.7667Z" fill="#0075FF"/>
<path d="M81.0351 317.273C80.3322 317.325 77.338 317.585 74.3959 317.872C71.4539 318.132 68.8763 318.34 68.668 318.34C66.9757 318.236 66.9496 318.887 68.5899 320.033C69.2668 320.475 70.5166 321.413 71.3758 322.064C72.261 322.715 74.6563 324.381 76.7392 325.761C78.8221 327.141 81.0351 328.651 81.686 329.094C87.2057 332.843 101.604 340.577 110.326 344.482C125.999 351.538 140.449 356.277 157.061 359.818C161.278 360.73 172.292 362.37 176.848 362.787C177.863 362.865 179.556 363.073 180.623 363.203C181.691 363.334 183.982 363.542 185.7 363.698C187.419 363.828 188.851 364.063 188.903 364.219C189.033 364.583 202.155 364.583 202.285 364.219C202.337 364.089 204.134 363.802 206.269 363.568C218.193 362.396 218.167 362.396 225.796 361.198C239.074 359.115 256.909 353.778 268.807 348.362C270.422 347.633 271.802 347.034 271.854 347.034C271.906 347.034 274.067 346.018 276.618 344.769C288.647 338.91 302.003 330.682 313.017 322.35C314.032 321.595 315.256 320.71 315.75 320.397C317.755 319.095 317.182 318.965 306.43 318.132L302.42 317.82L300.936 318.835C300.129 319.408 298.827 320.241 298.046 320.658C297.265 321.1 295.572 322.064 294.271 322.819C285.106 328.183 270.968 334.562 259.252 338.598C250.166 341.722 244.49 343.337 234.388 345.654C225.483 347.685 214.835 349.247 203.405 350.158C198.067 350.601 182.784 350.523 177.108 350.028C170.209 349.429 158.388 347.789 153.806 346.774C150.838 346.123 141.908 343.935 140.918 343.649C131.337 340.681 122.745 337.634 118.006 335.525C116.574 334.874 114.648 334.015 113.71 333.624C108.972 331.567 96.9172 325.188 91.788 322.012C90.5383 321.23 88.898 320.215 88.143 319.746C87.3879 319.278 86.1903 318.497 85.4873 318.002C84.1855 317.064 84.1595 317.064 81.0351 317.273Z" fill="#0075FF"/>
<path d="M1640.95 71.0243V83.9129H1677.68H1714.42L1713.82 84.8763C1709.73 91.7763 1702.18 97.7129 1694.45 100.16C1689.32 101.801 1690.91 101.697 1664.85 101.801L1640.95 101.905V140.936V179.992H1654.09H1667.24V153.85V127.682L1678.91 127.578C1688.36 127.5 1691.01 127.396 1693.02 127.031C1694.37 126.797 1695.67 126.537 1695.91 126.459C1696.25 126.38 1700.18 132.551 1712.94 153.173L1729.55 179.992H1744.88C1759.41 179.992 1760.19 179.966 1759.96 179.524C1759.83 179.289 1750.87 164.812 1740.06 147.341L1720.41 115.601L1722.39 114.039C1732.88 105.707 1740.72 93.1303 1743.63 80.0073C1744 78.3669 1744.44 75.9454 1744.62 74.6695C1744.99 72.1178 1745.06 61.4424 1744.73 59.3593L1744.54 58.1356H1692.73H1640.95V71.0243Z" fill="white"/>
<path d="M654.652 71.4148V84.4337H681.678C711.02 84.4337 710.656 84.4077 715.421 85.9179C727.944 89.8235 737.109 99.8741 739.816 112.633C740.624 116.382 740.624 122.527 739.816 126.276C737.603 136.77 730.834 145.674 721.383 150.517C719.951 151.247 717.712 152.21 716.436 152.653C711.749 154.215 711.697 154.215 695.633 154.215H680.949V128.307V102.4H667.801H654.652V141.196V179.992L684.542 179.94L714.405 179.862L717.66 179.133C734.088 175.436 747.705 166.192 756.818 152.522C761.583 145.388 765.071 136.014 766.217 127.318C766.738 123.308 766.738 115.601 766.217 111.591C764.837 100.968 760.333 90.3703 753.537 81.8299C745.987 72.3001 734.479 64.5148 722.997 61.182C714.535 58.7084 714.692 58.7084 682.459 58.5522L654.652 58.396V71.4148Z" fill="white"/>
<path d="M816.61 58.5769C818.562 62.2221 860.402 136.508 860.506 136.508C860.663 136.508 876.753 108.231 876.883 107.762C876.909 107.606 870.765 96.4618 863.188 83.0003L849.441 58.5248L832.96 58.4467C823.9 58.4206 816.558 58.4727 816.61 58.5769Z" fill="white"/>
<path d="M906.669 91.9326C896.333 110.367 884.044 132.161 879.384 140.363L870.922 155.256L877.509 167.624L884.096 179.992H887.637H891.204L915.626 135.78C946.322 80.1896 957.179 60.6092 957.908 59.3594L958.481 58.396H941.974L925.494 58.422L906.669 91.9326Z" fill="white"/>
<path d="M1479.85 98.1904C1479.93 138.731 1479.93 138.887 1480.47 141.309C1481.33 145.032 1482.01 146.933 1483.83 150.604C1485.78 154.588 1487.87 157.478 1491.38 160.993C1500.88 170.497 1512.6 176.356 1526.37 178.517C1530.54 179.168 1540.12 179.142 1544.29 178.491C1555.74 176.694 1565.84 172.268 1574.67 165.133C1584.59 157.114 1589.67 148.079 1590.68 136.622C1590.84 134.825 1590.94 118.942 1590.94 95.5866V57.5194H1577.8H1564.65V91.681C1564.65 128.238 1564.65 128.42 1563.35 132.56C1560.46 141.882 1552.72 149.459 1543.35 152.193C1528.48 156.489 1512.39 148.027 1507.5 133.315C1506.01 128.837 1506.07 130.243 1506.07 92.384V57.5194H1492.92H1479.77L1479.85 98.1904Z" fill="white"/>
<path d="M529.405 59.8801C528.728 61.2601 519.303 78.1846 517.324 81.5695C516.959 82.2205 517.246 82.7673 527.452 100.837C533.232 111.07 545.625 133.072 554.972 149.71L571.974 179.992H588.376C601.394 179.992 604.753 179.914 604.649 179.654C604.597 179.497 589.496 152.574 571.088 119.845C552.707 87.1156 537.45 59.8541 537.189 59.2292L536.695 58.1356H533.492H530.264L529.405 59.8801Z" fill="white"/>
<path d="M485.224 138.644C473.56 159.422 463.562 177.232 463.015 178.222L462 179.992L478.507 179.94L494.988 179.862L508.969 154.996C516.676 141.326 522.95 130.078 522.977 130C522.977 129.817 506.86 101.306 506.626 101.046C506.522 100.968 496.888 117.892 485.224 138.644Z" fill="white"/>
<path d="M1008.48 71.2832V84.1719H1063.55H1118.61V71.2832V58.3945H1063.55H1008.48V71.2832Z" fill="white"/>
<path d="M1008.48 141.066V179.992H1063.55H1118.61V167.104V154.215H1076.7H1034.78V141.196V128.177H1071.23H1107.68V115.158V102.139H1058.08H1008.48V141.066Z" fill="white"/>
<path d="M1809.99 71.2832V84.1719H1865.05H1920.12V71.2832V58.3945H1865.05H1809.99V71.2832Z" fill="white"/>
<path d="M1809.99 141.066V179.992H1865.05H1920.12V167.104V154.215H1878.2H1836.28V141.196V128.177H1872.74H1909.19V115.158V102.139H1859.59H1809.99V141.066Z" fill="white"/>
<path d="M1318.59 71.2832V84.1719H1374.18H1429.77V71.2832V58.3945H1374.18H1318.59V71.2832Z" fill="white"/>
<path d="M1360.25 141.196V179.992H1373.27H1386.29V141.196V102.4H1373.27H1360.25V141.196Z" fill="white"/>
<path d="M1168.61 71.6646V86.7145L1215.4 132.775L1262.16 178.836L1265.39 178.914L1268.59 178.992V118.038V57.1095L1255.52 57.1616L1242.43 57.2397L1242.3 89.9431L1242.17 122.62L1208.71 89.6307L1175.25 56.6148H1171.95L1168.61 56.5888V71.6646Z" fill="white"/>
<path d="M1168.61 145.453V178.703H1181.76H1194.91V158.394V138.058L1184.81 128.112C1179.26 122.644 1173.35 116.811 1171.66 115.197L1168.61 112.203V145.453Z" fill="white"/>
</svg>
