<svg width="2151" height="368" viewBox="0 0 2151 368" fill="none" xmlns="http://www.w3.org/2000/svg">
<path d="M458.409 277.352V265.182H515.75V277.352H494.375V335H479.784V277.352H458.409ZM525.193 335V265.182H572.239V277.352H539.955V293.989H569.818V306.159H539.955V322.83H572.375V335H525.193ZM645.577 289.625H630.645C630.372 287.693 629.815 285.977 628.974 284.477C628.134 282.955 627.054 281.659 625.736 280.591C624.418 279.523 622.895 278.705 621.168 278.136C619.463 277.568 617.611 277.284 615.611 277.284C611.997 277.284 608.849 278.182 606.168 279.977C603.486 281.75 601.406 284.341 599.929 287.75C598.452 291.136 597.713 295.25 597.713 300.091C597.713 305.068 598.452 309.25 599.929 312.636C601.429 316.023 603.52 318.58 606.202 320.307C608.884 322.034 611.986 322.898 615.509 322.898C617.486 322.898 619.315 322.636 620.997 322.114C622.702 321.591 624.213 320.83 625.531 319.83C626.849 318.807 627.94 317.568 628.804 316.114C629.69 314.659 630.304 313 630.645 311.136L645.577 311.205C645.19 314.409 644.224 317.5 642.679 320.477C641.156 323.432 639.099 326.08 636.509 328.42C633.94 330.739 630.872 332.58 627.304 333.943C623.759 335.284 619.747 335.955 615.27 335.955C609.043 335.955 603.474 334.545 598.565 331.727C593.679 328.909 589.815 324.83 586.974 319.489C584.156 314.148 582.747 307.682 582.747 300.091C582.747 292.477 584.179 286 587.043 280.659C589.906 275.318 593.793 271.25 598.702 268.455C603.611 265.636 609.134 264.227 615.27 264.227C619.315 264.227 623.065 264.795 626.52 265.932C629.997 267.068 633.077 268.727 635.759 270.909C638.44 273.068 640.622 275.716 642.304 278.852C644.009 281.989 645.099 285.58 645.577 289.625ZM656.162 335V265.182H670.923V293.989H700.889V265.182H715.616V335H700.889V306.159H670.923V335H656.162ZM786.185 265.182V335H773.435L743.06 291.057H742.548V335H727.787V265.182H740.741L770.878 309.091H771.491V265.182H786.185ZM862.54 300.091C862.54 307.705 861.097 314.182 858.21 319.523C855.347 324.864 851.438 328.943 846.483 331.761C841.551 334.557 836.006 335.955 829.847 335.955C823.642 335.955 818.074 334.545 813.142 331.727C808.21 328.909 804.313 324.83 801.449 319.489C798.585 314.148 797.153 307.682 797.153 300.091C797.153 292.477 798.585 286 801.449 280.659C804.313 275.318 808.21 271.25 813.142 268.455C818.074 265.636 823.642 264.227 829.847 264.227C836.006 264.227 841.551 265.636 846.483 268.455C851.438 271.25 855.347 275.318 858.21 280.659C861.097 286 862.54 292.477 862.54 300.091ZM847.574 300.091C847.574 295.159 846.835 291 845.358 287.614C843.903 284.227 841.847 281.659 839.188 279.909C836.528 278.159 833.415 277.284 829.847 277.284C826.278 277.284 823.165 278.159 820.506 279.909C817.847 281.659 815.778 284.227 814.301 287.614C812.847 291 812.119 295.159 812.119 300.091C812.119 305.023 812.847 309.182 814.301 312.568C815.778 315.955 817.847 318.523 820.506 320.273C823.165 322.023 826.278 322.898 829.847 322.898C833.415 322.898 836.528 322.023 839.188 320.273C841.847 318.523 843.903 315.955 845.358 312.568C846.835 309.182 847.574 305.023 847.574 300.091ZM873.474 335V265.182H888.236V322.83H918.168V335H873.474ZM989.384 300.091C989.384 307.705 987.94 314.182 985.054 319.523C982.19 324.864 978.281 328.943 973.327 331.761C968.395 334.557 962.849 335.955 956.69 335.955C950.486 335.955 944.918 334.545 939.986 331.727C935.054 328.909 931.156 324.83 928.293 319.489C925.429 314.148 923.997 307.682 923.997 300.091C923.997 292.477 925.429 286 928.293 280.659C931.156 275.318 935.054 271.25 939.986 268.455C944.918 265.636 950.486 264.227 956.69 264.227C962.849 264.227 968.395 265.636 973.327 268.455C978.281 271.25 982.19 275.318 985.054 280.659C987.94 286 989.384 292.477 989.384 300.091ZM974.418 300.091C974.418 295.159 973.679 291 972.202 287.614C970.747 284.227 968.69 281.659 966.031 279.909C963.372 278.159 960.259 277.284 956.69 277.284C953.122 277.284 950.009 278.159 947.349 279.909C944.69 281.659 942.622 284.227 941.145 287.614C939.69 291 938.963 295.159 938.963 300.091C938.963 305.023 939.69 309.182 941.145 312.568C942.622 315.955 944.69 318.523 947.349 320.273C950.009 322.023 953.122 322.898 956.69 322.898C960.259 322.898 963.372 322.023 966.031 320.273C968.69 318.523 970.747 315.955 972.202 312.568C973.679 309.182 974.418 305.023 974.418 300.091ZM1046.61 287.75C1046.14 286.091 1045.47 284.625 1044.6 283.352C1043.74 282.057 1042.68 280.966 1041.43 280.08C1040.2 279.17 1038.8 278.477 1037.2 278C1035.64 277.523 1033.9 277.284 1031.99 277.284C1028.42 277.284 1025.28 278.17 1022.58 279.943C1019.9 281.716 1017.81 284.295 1016.31 287.682C1014.81 291.045 1014.06 295.159 1014.06 300.023C1014.06 304.886 1014.8 309.023 1016.27 312.432C1017.75 315.841 1019.84 318.443 1022.55 320.239C1025.25 322.011 1028.44 322.898 1032.12 322.898C1035.47 322.898 1038.32 322.307 1040.68 321.125C1043.07 319.92 1044.89 318.227 1046.14 316.045C1047.41 313.864 1048.05 311.284 1048.05 308.307L1051.05 308.75H1033.05V297.636H1062.26V306.432C1062.26 312.568 1060.97 317.841 1058.38 322.25C1055.78 326.636 1052.22 330.023 1047.67 332.409C1043.12 334.773 1037.92 335.955 1032.06 335.955C1025.51 335.955 1019.76 334.511 1014.81 331.625C1009.85 328.716 1005.99 324.591 1003.22 319.25C1000.47 313.886 999.091 307.523 999.091 300.159C999.091 294.5 999.909 289.455 1001.55 285.023C1003.2 280.568 1005.52 276.795 1008.5 273.705C1011.48 270.614 1014.94 268.261 1018.9 266.648C1022.85 265.034 1027.14 264.227 1031.75 264.227C1035.7 264.227 1039.39 264.807 1042.8 265.966C1046.2 267.102 1049.23 268.716 1051.86 270.807C1054.52 272.898 1056.69 275.386 1058.38 278.273C1060.06 281.136 1061.14 284.295 1061.61 287.75H1046.61ZM1066.45 265.182H1082.98L1098.9 295.25H1099.58L1115.5 265.182H1132.04L1106.57 310.318V335H1091.91V310.318L1066.45 265.182ZM1200.19 285.261C1199.92 282.511 1198.75 280.375 1196.68 278.852C1194.61 277.33 1191.81 276.568 1188.26 276.568C1185.85 276.568 1183.82 276.909 1182.16 277.591C1180.5 278.25 1179.23 279.17 1178.34 280.352C1177.48 281.534 1177.05 282.875 1177.05 284.375C1177 285.625 1177.26 286.716 1177.83 287.648C1178.42 288.58 1179.23 289.386 1180.25 290.068C1181.27 290.727 1182.45 291.307 1183.8 291.807C1185.14 292.284 1186.57 292.693 1188.09 293.034L1194.36 294.534C1197.41 295.216 1200.2 296.125 1202.75 297.261C1205.3 298.398 1207.5 299.795 1209.36 301.455C1211.23 303.114 1212.67 305.068 1213.69 307.318C1214.74 309.568 1215.27 312.148 1215.3 315.057C1215.27 319.33 1214.18 323.034 1212.02 326.17C1209.89 329.284 1206.8 331.705 1202.75 333.432C1198.73 335.136 1193.88 335.989 1188.19 335.989C1182.56 335.989 1177.65 335.125 1173.47 333.398C1169.31 331.67 1166.06 329.114 1163.72 325.727C1161.4 322.318 1160.18 318.102 1160.07 313.08H1174.35C1174.51 315.42 1175.18 317.375 1176.36 318.943C1177.57 320.489 1179.17 321.659 1181.17 322.455C1183.19 323.227 1185.48 323.614 1188.02 323.614C1190.52 323.614 1192.69 323.25 1194.53 322.523C1196.4 321.795 1197.84 320.784 1198.86 319.489C1199.89 318.193 1200.4 316.705 1200.4 315.023C1200.4 313.455 1199.93 312.136 1199 311.068C1198.09 310 1196.75 309.091 1194.98 308.341C1193.23 307.591 1191.08 306.909 1188.53 306.295L1180.93 304.386C1175.05 302.955 1170.4 300.716 1166.99 297.67C1163.58 294.625 1161.89 290.523 1161.91 285.364C1161.89 281.136 1163.01 277.443 1165.28 274.284C1167.58 271.125 1170.73 268.659 1174.73 266.886C1178.73 265.114 1183.27 264.227 1188.36 264.227C1193.55 264.227 1198.07 265.114 1201.93 266.886C1205.82 268.659 1208.84 271.125 1211 274.284C1213.16 277.443 1214.27 281.102 1214.34 285.261H1200.19ZM1289.38 300.091C1289.38 307.705 1287.94 314.182 1285.05 319.523C1282.19 324.864 1278.28 328.943 1273.33 331.761C1268.39 334.557 1262.85 335.955 1256.69 335.955C1250.49 335.955 1244.92 334.545 1239.99 331.727C1235.05 328.909 1231.16 324.83 1228.29 319.489C1225.43 314.148 1224 307.682 1224 300.091C1224 292.477 1225.43 286 1228.29 280.659C1231.16 275.318 1235.05 271.25 1239.99 268.455C1244.92 265.636 1250.49 264.227 1256.69 264.227C1262.85 264.227 1268.39 265.636 1273.33 268.455C1278.28 271.25 1282.19 275.318 1285.05 280.659C1287.94 286 1289.38 292.477 1289.38 300.091ZM1274.42 300.091C1274.42 295.159 1273.68 291 1272.2 287.614C1270.75 284.227 1268.69 281.659 1266.03 279.909C1263.37 278.159 1260.26 277.284 1256.69 277.284C1253.12 277.284 1250.01 278.159 1247.35 279.909C1244.69 281.659 1242.62 284.227 1241.14 287.614C1239.69 291 1238.96 295.159 1238.96 300.091C1238.96 305.023 1239.69 309.182 1241.14 312.568C1242.62 315.955 1244.69 318.523 1247.35 320.273C1250.01 322.023 1253.12 322.898 1256.69 322.898C1260.26 322.898 1263.37 322.023 1266.03 320.273C1268.69 318.523 1270.75 315.955 1272.2 312.568C1273.68 309.182 1274.42 305.023 1274.42 300.091ZM1300.32 335V265.182H1315.08V322.83H1345.01V335H1300.32ZM1397.91 265.182H1412.67V310.523C1412.67 315.614 1411.46 320.068 1409.03 323.886C1406.62 327.705 1403.24 330.682 1398.9 332.818C1394.56 334.932 1389.5 335.989 1383.73 335.989C1377.93 335.989 1372.87 334.932 1368.53 332.818C1364.18 330.682 1360.81 327.705 1358.4 323.886C1355.99 320.068 1354.79 315.614 1354.79 310.523V265.182H1369.55V309.261C1369.55 311.92 1370.13 314.284 1371.29 316.352C1372.47 318.42 1374.13 320.045 1376.26 321.227C1378.4 322.409 1380.89 323 1383.73 323C1386.59 323 1389.08 322.409 1391.2 321.227C1393.33 320.045 1394.98 318.42 1396.14 316.352C1397.32 314.284 1397.91 311.92 1397.91 309.261V265.182ZM1422.16 277.352V265.182H1479.5V277.352H1458.12V335H1443.53V277.352H1422.16ZM1503.7 265.182V335H1488.94V265.182H1503.7ZM1580.01 300.091C1580.01 307.705 1578.57 314.182 1575.68 319.523C1572.82 324.864 1568.91 328.943 1563.95 331.761C1559.02 334.557 1553.47 335.955 1547.32 335.955C1541.11 335.955 1535.54 334.545 1530.61 331.727C1525.68 328.909 1521.78 324.83 1518.92 319.489C1516.05 314.148 1514.62 307.682 1514.62 300.091C1514.62 292.477 1516.05 286 1518.92 280.659C1521.78 275.318 1525.68 271.25 1530.61 268.455C1535.54 265.636 1541.11 264.227 1547.32 264.227C1553.47 264.227 1559.02 265.636 1563.95 268.455C1568.91 271.25 1572.82 275.318 1575.68 280.659C1578.57 286 1580.01 292.477 1580.01 300.091ZM1565.04 300.091C1565.04 295.159 1564.3 291 1562.83 287.614C1561.37 284.227 1559.32 281.659 1556.66 279.909C1554 278.159 1550.88 277.284 1547.32 277.284C1543.75 277.284 1540.63 278.159 1537.97 279.909C1535.32 281.659 1533.25 284.227 1531.77 287.614C1530.32 291 1529.59 295.159 1529.59 300.091C1529.59 305.023 1530.32 309.182 1531.77 312.568C1533.25 315.955 1535.32 318.523 1537.97 320.273C1540.63 322.023 1543.75 322.898 1547.32 322.898C1550.88 322.898 1554 322.023 1556.66 320.273C1559.32 318.523 1561.37 315.955 1562.83 312.568C1564.3 309.182 1565.04 305.023 1565.04 300.091ZM1649.34 265.182V335H1636.59L1606.22 291.057H1605.7V335H1590.94V265.182H1603.9L1634.03 309.091H1634.65V265.182H1649.34ZM1699.41 285.261C1699.14 282.511 1697.97 280.375 1695.9 278.852C1693.83 277.33 1691.03 276.568 1687.48 276.568C1685.07 276.568 1683.04 276.909 1681.38 277.591C1679.72 278.25 1678.45 279.17 1677.56 280.352C1676.7 281.534 1676.26 282.875 1676.26 284.375C1676.22 285.625 1676.48 286.716 1677.05 287.648C1677.64 288.58 1678.45 289.386 1679.47 290.068C1680.49 290.727 1681.67 291.307 1683.01 291.807C1684.36 292.284 1685.79 292.693 1687.31 293.034L1693.58 294.534C1696.63 295.216 1699.42 296.125 1701.97 297.261C1704.51 298.398 1706.72 299.795 1708.58 301.455C1710.45 303.114 1711.89 305.068 1712.91 307.318C1713.96 309.568 1714.49 312.148 1714.51 315.057C1714.49 319.33 1713.4 323.034 1711.24 326.17C1709.11 329.284 1706.01 331.705 1701.97 333.432C1697.95 335.136 1693.09 335.989 1687.41 335.989C1681.78 335.989 1676.87 335.125 1672.68 333.398C1668.53 331.67 1665.28 329.114 1662.93 325.727C1660.62 322.318 1659.4 318.102 1659.29 313.08H1673.57C1673.73 315.42 1674.4 317.375 1675.58 318.943C1676.79 320.489 1678.39 321.659 1680.39 322.455C1682.41 323.227 1684.7 323.614 1687.24 323.614C1689.74 323.614 1691.91 323.25 1693.75 322.523C1695.62 321.795 1697.06 320.784 1698.08 319.489C1699.11 318.193 1699.62 316.705 1699.62 315.023C1699.62 313.455 1699.15 312.136 1698.22 311.068C1697.31 310 1695.97 309.091 1694.2 308.341C1692.45 307.591 1690.3 306.909 1687.75 306.295L1680.15 304.386C1674.26 302.955 1669.62 300.716 1666.21 297.67C1662.8 294.625 1661.11 290.523 1661.13 285.364C1661.11 281.136 1662.23 277.443 1664.5 274.284C1666.8 271.125 1669.95 268.659 1673.95 266.886C1677.95 265.114 1682.49 264.227 1687.58 264.227C1692.76 264.227 1697.29 265.114 1701.15 266.886C1705.04 268.659 1708.06 271.125 1710.22 274.284C1712.38 277.443 1713.49 281.102 1713.56 285.261H1699.41ZM1746.66 335V265.182H1774.21C1779.5 265.182 1784.01 266.193 1787.74 268.216C1791.47 270.216 1794.31 273 1796.26 276.568C1798.24 280.114 1799.23 284.205 1799.23 288.841C1799.23 293.477 1798.23 297.568 1796.23 301.114C1794.23 304.659 1791.33 307.42 1787.54 309.398C1783.76 311.375 1779.2 312.364 1773.83 312.364H1756.28V300.534H1771.45C1774.29 300.534 1776.63 300.045 1778.47 299.068C1780.33 298.068 1781.72 296.693 1782.63 294.943C1783.56 293.17 1784.03 291.136 1784.03 288.841C1784.03 286.523 1783.56 284.5 1782.63 282.773C1781.72 281.023 1780.33 279.67 1778.47 278.716C1776.61 277.739 1774.24 277.25 1771.38 277.25H1761.42V335H1746.66ZM1821.43 265.182L1838.31 318.227H1838.95L1855.86 265.182H1872.23L1848.16 335H1829.14L1805.03 265.182H1821.43ZM1877.97 277.352V265.182H1935.31V277.352H1913.94V335H1899.35V277.352H1877.97ZM1966.97 335V265.182H1981.74V322.83H2011.67V335H1966.97ZM2010.07 277.352V265.182H2067.41V277.352H2046.03V335H2031.44V277.352H2010.07ZM2101.6 335H2076.85V265.182H2101.8C2108.83 265.182 2114.87 266.58 2119.94 269.375C2125.01 272.148 2128.91 276.136 2131.63 281.341C2134.38 286.545 2135.76 292.773 2135.76 300.023C2135.76 307.295 2134.38 313.545 2131.63 318.773C2128.91 324 2124.99 328.011 2119.87 330.807C2114.78 333.602 2108.69 335 2101.6 335ZM2091.61 322.352H2100.99C2105.35 322.352 2109.02 321.58 2112 320.034C2115 318.466 2117.25 316.045 2118.75 312.773C2120.27 309.477 2121.03 305.227 2121.03 300.023C2121.03 294.864 2120.27 290.648 2118.75 287.375C2117.25 284.102 2115.01 281.693 2112.03 280.148C2109.05 278.602 2105.38 277.83 2101.02 277.83H2091.61V322.352Z" fill="white"/>
<path d="M192.285 0.654379C192.103 1.07098 191.608 1.95628 191.14 2.68534C190.697 3.38835 189.526 5.26306 188.562 6.85136C187.599 8.41362 185.802 11.2257 184.605 13.1004C182.782 15.9125 180.882 19.037 177.783 24.2446C177.549 24.6351 176.56 26.2495 175.544 27.8117C173.67 30.754 172.498 32.6027 168.124 39.6589C163.333 47.3921 162.474 48.7721 161.094 50.9853C160.339 52.2091 158.907 54.4744 157.944 56.0627C156.98 57.6249 155.705 59.708 155.08 60.6974C154.455 61.6608 153.231 63.5616 152.372 64.9416C151.513 66.2955 150.471 67.9619 150.055 68.6129C149.352 69.7064 149.326 69.8627 149.664 70.4095C150.497 71.8155 154.507 78.0906 155.861 80.1736C156.668 81.3974 158.725 84.6521 160.443 87.4121C163.568 92.4374 166.562 97.1763 168.514 100.249C169.426 101.655 171.925 105.639 173.279 107.826C173.696 108.503 175.44 111.263 178.538 116.21C179.267 117.356 180.934 119.985 182.262 122.068C183.589 124.151 185.073 126.547 185.568 127.38C186.063 128.187 187.469 130.452 188.692 132.379C191.27 136.441 196.269 144.409 199.159 148.965C202.908 154.928 203.611 156.048 204.705 157.74C205.303 158.677 205.98 159.771 206.215 160.214C206.423 160.63 206.97 161.437 207.412 162.01C207.855 162.557 208.22 163.156 208.22 163.312C208.22 163.468 207.855 164.197 207.412 164.9C206.449 166.489 204.418 169.952 202.231 173.753C201.346 175.316 199.862 177.841 198.977 179.351C198.065 180.862 197.024 182.736 196.633 183.517C196.243 184.299 195.592 185.418 195.201 185.991C194.811 186.564 193.796 188.256 192.936 189.766C192.077 191.277 190.515 193.959 189.474 195.755C188.432 197.552 187.391 199.348 187.182 199.791C186.948 200.208 186.349 201.223 185.828 202.004C185.282 202.785 184.423 204.322 183.876 205.389C183.329 206.457 182.704 207.628 182.444 207.993C182.183 208.357 181.116 210.154 180.048 212.029C178.981 213.877 176.95 217.392 175.544 219.84C174.138 222.262 172.472 225.074 171.847 226.089C170.962 227.443 170.728 227.99 170.91 228.302C171.066 228.511 171.326 228.693 171.535 228.693C175.206 228.641 218.712 228.25 231.079 228.172L247.794 228.068L248.419 228.641C249.044 229.214 251.231 232.599 253.574 236.634C254.277 237.858 255.032 239.03 255.215 239.238C255.397 239.446 255.813 240.149 256.126 240.774C256.438 241.425 257.089 242.545 257.558 243.248C258.027 243.977 259.511 246.451 260.891 248.742C262.244 251.033 264.015 253.976 264.822 255.303C265.629 256.605 266.28 257.751 266.28 257.855C266.28 257.959 266.671 258.636 267.165 259.365C268.024 260.693 270.993 265.536 272.659 268.4C273.518 269.885 275.002 272.358 277.345 276.212C278.074 277.436 279.012 278.998 279.428 279.727C279.819 280.43 280.522 281.602 280.99 282.331C281.459 283.034 283.932 287.148 286.484 291.418C289.062 295.688 291.613 299.984 292.186 300.922C292.759 301.885 293.8 303.629 294.503 304.827C295.206 305.999 296.013 307.092 296.274 307.223C296.612 307.405 303.564 307.405 317.91 307.223C345.69 306.858 381.932 306.546 384.796 306.65C386.046 306.676 387.296 306.65 387.608 306.546C388.363 306.311 388.259 305.53 387.4 305.218C386.645 304.931 385.655 303.473 376.829 289.491C376.126 288.423 374.564 285.95 373.34 283.997C372.091 282.044 370.424 279.44 369.643 278.191C368.862 276.941 367.404 274.649 366.389 273.087C362.9 267.645 361.728 265.797 355.61 256.111C355.089 255.277 353.97 253.507 353.11 252.127C352.251 250.773 351.054 248.924 350.455 248.013C349.856 247.128 348.945 245.696 348.424 244.836C347.929 243.977 346.94 242.389 346.237 241.321C345.534 240.254 344.284 238.275 343.451 236.921C341.915 234.473 338.452 229.031 336.239 225.568C335.588 224.553 334.364 222.626 333.505 221.272C331.813 218.616 330.225 216.117 327.257 211.43C324.913 207.759 322.101 203.358 320.175 200.312C317.675 196.38 313.119 189.168 312.494 188.204C312.182 187.709 311.244 186.225 310.385 184.897C309.552 183.596 308.042 181.2 307.026 179.612C304.735 175.992 303.303 173.727 300.986 170.108C299.971 168.52 298.018 165.421 296.612 163.208C295.206 160.995 293.696 158.573 293.227 157.87C292.759 157.141 291.431 155.032 290.233 153.183C289.062 151.309 287.551 148.965 286.875 147.924C286.224 146.882 284.974 144.903 284.115 143.523C283.256 142.143 281.824 139.904 280.938 138.576C280.027 137.222 279.298 136.051 279.298 135.946C279.298 135.868 278.569 134.671 277.658 133.291C276.747 131.911 275.549 130.062 274.976 129.151C274.429 128.265 273.57 126.911 273.075 126.156C272.607 125.401 271.305 123.396 270.237 121.678C269.17 119.959 267.686 117.616 266.931 116.47C265.655 114.465 263.598 111.263 261.125 107.357C260.5 106.342 259.042 104.102 257.922 102.332C256.803 100.561 255.866 99.051 255.866 98.9208C255.866 98.8166 255.501 98.2438 255.058 97.6449C254.616 97.0461 253.34 95.1193 252.247 93.3487C245.998 83.5065 240.114 74.211 239.723 73.6381C237.901 70.9042 236.338 68.4306 236 67.7797C235.792 67.337 234.985 66.0612 234.204 64.9155C233.448 63.7699 232.173 61.791 231.392 60.5412C230.611 59.2653 229.153 56.948 228.137 55.3857C227.148 53.8234 225.325 50.9593 224.102 49.0065C222.878 47.0797 220.873 43.9291 219.623 42.0023C218.374 40.0755 217.176 38.0966 216.968 37.5759C216.759 37.0812 215.718 35.3887 214.676 33.8525C213.661 32.3163 211.969 29.8167 210.953 28.2544C209.964 26.7182 208.792 24.9216 208.35 24.2706C207.933 23.6197 207.048 22.2136 206.397 21.1721C205.746 20.1306 204.913 18.8287 204.548 18.2559C204.184 17.7091 202.726 15.4178 201.294 13.1525C199.888 10.8872 198.274 8.36156 197.753 7.55439C197.206 6.72118 196.529 5.60154 196.217 5.02871C195.904 4.45588 195.332 3.57061 194.941 3.07589C194.551 2.58117 193.978 1.66984 193.665 1.04493C193.014 -0.230917 192.702 -0.309017 192.285 0.654379Z" fill="#0075FF"/>
<path d="M142.871 49.3203C142.376 49.5286 140.085 50.3358 137.794 51.1169C131.936 53.0697 128.343 54.3716 125.167 55.6475C123.657 56.2463 121.496 57.1056 120.35 57.5482C116.731 58.9543 109.545 62.0788 105.77 63.8754C103.765 64.8388 101.37 65.9063 100.432 66.2969C99.495 66.6614 97.9329 67.4686 96.9435 68.1195C95.9541 68.7705 94.4701 69.5516 93.663 69.8901C92.0487 70.5411 89.6534 71.869 88.9244 72.5199C88.664 72.7543 87.1539 73.6656 85.5397 74.5509C83.9255 75.4622 81.5562 76.9203 80.2544 77.7795C73.9797 82.0758 68.8245 85.669 67.9653 86.372C67.4186 86.8146 64.5286 89.132 61.5084 91.5275C55.7023 96.1622 48.3862 103.192 44.1944 108.166C42.9967 109.572 41.4866 111.342 40.8357 112.045C39.4819 113.529 36.4356 117.487 34.6912 119.987C31.7752 124.231 29.0674 128.371 28.8591 128.918C28.729 129.256 28.0781 130.35 27.4272 131.365C26.2295 133.24 23.6259 138.421 21.9335 142.379C21.4128 143.603 20.5276 145.53 19.9808 146.675C19.4341 147.821 18.5228 150.164 17.95 151.883C17.3512 153.601 16.5961 155.815 16.2577 156.83C14.6695 161.309 13.0032 168.391 11.7795 175.707C11.5451 177.218 11.1806 179.144 10.9724 180.004C10.4256 182.399 9.56641 194.715 9.56641 200.443C9.56641 206.588 10.3475 218.331 10.9984 221.82C11.2067 223.018 11.8055 226.507 12.3002 229.58C12.8209 232.652 13.7061 236.974 14.305 239.214C14.8778 241.453 15.5026 243.978 15.7109 244.838C16.2316 247.285 17.8198 251.581 18.2885 251.868C18.6009 252.076 18.8873 251.894 19.6684 250.957C20.1891 250.332 22.2981 247.936 24.3549 245.697L28.1041 241.583L27.5573 239.943C26.2816 235.985 24.5632 226.663 23.3916 217.498C22.5063 210.598 22.4543 209.583 22.4803 199.662C22.4803 190.679 22.5584 188.778 23.0531 184.56C23.3916 181.904 23.8081 179.092 24.0164 178.311C24.2247 177.53 24.5632 175.76 24.7975 174.406C25.5005 170.24 26.6461 165.579 27.7396 162.428C28.2864 160.788 29.0154 158.679 29.3018 157.741C30.5255 153.966 31.2024 152.247 32.8166 148.732C35.1338 143.733 36.4877 141.051 37.8416 138.812C38.4665 137.77 38.9872 136.807 38.9872 136.677C38.9872 136.521 39.6381 135.479 40.4192 134.334C41.2003 133.188 41.8512 132.146 41.8512 132.016C41.8512 131.782 42.9186 130.246 46.095 126.001C46.9803 124.804 48.1519 123.163 48.7247 122.356C49.2714 121.549 50.7295 119.778 51.9792 118.424C53.2029 117.07 54.7651 115.3 55.442 114.519C57.1343 112.488 64.6848 105.067 67.5488 102.646C71.7666 99.0263 72.3654 98.5316 74.5004 96.8912C79.3431 93.1678 83.6391 90.2256 88.3256 87.4135C89.341 86.8146 90.5126 86.0075 90.9292 85.6169C91.3718 85.2003 92.934 84.2629 94.444 83.5339C95.9541 82.7788 97.6986 81.7894 98.3495 81.3467C99.0004 80.9041 100.172 80.2011 100.953 79.7845C104.312 78.0399 111.888 74.2905 113.45 73.6395C125.661 68.432 128.708 67.2603 134.592 65.5939C135.92 65.2033 137.664 64.0056 137.664 63.4588C137.664 63.3546 139.2 60.152 141.075 56.3505C142.923 52.549 144.381 49.3203 144.303 49.1641C144.095 48.8256 143.965 48.8516 142.871 49.3203Z" fill="#0075FF"/>
<path d="M242.848 49.1642C242.848 49.3204 244.384 52.5491 246.232 56.3245C248.107 60.1261 249.617 63.3287 249.617 63.4328C249.617 63.563 249.956 63.9536 250.346 64.3442C250.893 64.8649 252.143 65.3857 254.85 66.2189C256.933 66.8438 259.198 67.6249 259.901 67.9113C260.63 68.2238 262.843 69.1091 264.848 69.8642C266.853 70.6193 269.821 71.843 271.409 72.5721C273.023 73.3012 274.429 73.9 274.508 73.9C275.028 73.9 287.994 80.6178 291.665 82.7789C292.863 83.4819 293.904 84.0547 293.983 84.0547C294.087 84.0547 295.18 84.7057 296.43 85.5389C297.68 86.3461 299.867 87.7521 301.299 88.6895C304.032 90.46 306.844 92.4389 311.713 96.0581C314.499 98.1151 320.696 103.349 324.184 106.603C329.183 111.264 335.067 117.722 339.363 123.242C341.655 126.184 347.669 135.219 349.491 138.474C353.553 145.738 357.042 153.836 359.255 161.126C359.828 163.053 360.427 164.928 360.531 165.292C361.312 167.48 363.265 177.296 363.915 182.217C365.269 192.476 365.321 206.354 364.046 216.847C363.629 220.31 363.004 224.554 362.614 226.481C362.483 227.132 362.197 228.694 361.963 229.996C361.338 233.537 359.984 239.578 359.724 240.073C359.073 241.271 359.411 241.817 363.473 246.244C365.634 248.639 367.691 250.957 367.977 251.373C368.81 252.493 369.279 252.024 370.19 249.264C370.893 247.077 371.18 246.14 372.533 241.192C372.976 239.552 374.252 233.642 375.215 228.564C375.71 226.012 376.621 219.086 377.246 213.202C377.454 211.405 377.558 206.432 377.558 200.704C377.558 191.2 377.532 191.018 376.387 181.436C375.71 175.682 373.939 166.907 372.351 161.387C370.424 154.643 366.155 143.499 363.811 138.994C363.473 138.343 362.536 136.599 361.754 135.089C358.604 128.996 354.542 122.669 350.064 116.732C347.877 113.894 342.592 107.593 340.066 104.885C335.562 100.016 326.762 92.0744 321.242 87.8562C319.914 86.8408 318.196 85.5389 317.441 84.9661C314.759 82.9091 304.553 76.2174 300.492 73.874C292.655 69.2913 287.968 66.8698 277.996 62.2351C274.976 60.803 266.202 57.1578 264.458 56.5849C263.677 56.3245 261.854 55.5955 260.422 54.9445C257.246 53.5385 255.397 52.8615 248.784 50.6223C243.577 48.8778 242.848 48.6955 242.848 49.1642Z" fill="#0075FF"/>
<path d="M135.736 93.7667C135.397 94.2353 134.512 95.5893 133.757 96.8131C133.002 98.0369 131.361 100.615 130.112 102.541C128.862 104.468 126.623 107.983 125.165 110.353C123.681 112.722 122.275 114.935 122.041 115.3C121.78 115.664 120.739 117.305 119.697 118.945C118.656 120.586 117.172 122.929 116.391 124.153C115.584 125.376 113.865 128.058 112.563 130.141C111.262 132.224 109.882 134.386 109.517 134.958C108.918 135.87 106.106 140.322 100.066 149.878C97.9051 153.289 94.3902 158.783 92.9582 160.944C92.4115 161.777 91.6304 163.027 91.1878 163.73C88.8966 167.427 87.5688 169.536 86.319 171.463C84.6007 174.119 84.4444 174.379 80.4089 180.785C77.0502 186.07 75.7484 188.127 72.9625 192.476C72.1033 193.804 70.7495 195.939 69.9684 197.189C68.4062 199.662 65.5422 204.193 64.631 205.651C64.2925 206.146 62.9386 208.255 61.5848 210.338C60.2569 212.421 58.3823 215.311 57.4711 216.795C56.5338 218.253 54.6592 221.221 53.3053 223.356C51.9514 225.492 50.6496 227.575 50.4153 227.965C50.181 228.356 48.9573 230.283 47.7075 232.209C46.4578 234.136 45.0779 236.297 44.6613 237.026C44.2447 237.729 43.5418 238.875 43.0731 239.552C42.6045 240.229 41.589 241.791 40.808 243.041C40.0269 244.291 38.673 246.4 37.8138 247.728C36.9546 249.082 35.6789 251.087 34.9759 252.18C34.2729 253.3 33.2054 254.966 32.6066 255.904C32.0078 256.841 30.8361 258.716 29.977 260.07C29.1438 261.424 27.7378 263.663 26.8526 265.017C25.9674 266.371 24.4833 268.714 23.546 270.224C22.0099 272.698 19.7448 276.239 17.5057 279.728C16.4642 281.343 10.6061 290.56 8.0806 294.57C3.18582 302.303 1.33726 305.063 0.634282 305.688C0.0354515 306.183 -0.120765 306.469 0.0875237 306.677C0.373921 306.964 43.9063 307.042 63.9801 306.807C69.4997 306.729 117.12 306.547 169.817 306.391C222.514 306.235 266.437 306.104 267.452 306.078C269.691 306.026 269.873 305.636 268.572 303.839C268.103 303.188 265.812 299.595 263.495 295.872C257.402 286.081 257.272 285.847 254.642 281.707C251.518 276.734 249.669 273.766 247.795 270.745C245.764 267.438 244.618 265.59 238.109 255.253C237.042 253.534 235.818 251.581 235.428 250.878C234.048 248.483 236.261 248.717 212.464 248.509C200.904 248.405 188.042 248.275 183.876 248.223C179.737 248.17 165.859 248.04 153.102 247.936C127.69 247.754 128.628 247.806 129.799 246.322C130.112 245.931 130.554 245.254 130.789 244.838C131.023 244.395 131.7 243.301 132.325 242.364C134.538 238.953 136.36 236.063 145.629 221.195C147.816 217.706 149.769 214.634 152.867 209.817C154.482 207.317 156.616 203.906 157.632 202.266C159.845 198.621 161.043 196.694 165.521 189.638C167.421 186.617 169.504 183.284 170.155 182.217C170.78 181.149 171.926 179.327 172.681 178.181C173.41 177.035 174.659 175.109 175.415 173.885C178.825 168.469 179.789 166.959 180.83 165.396C181.429 164.485 181.924 163.574 181.924 163.392C181.924 163.209 181.533 162.532 181.09 161.907C180.622 161.283 179.815 160.111 179.32 159.278C178.487 157.924 177.445 156.257 173.852 150.737C173.201 149.748 172.03 147.899 171.223 146.623C170.416 145.373 168.827 142.9 167.708 141.155C165.391 137.562 160.418 129.829 158.283 126.496C156.434 123.58 154.455 120.507 152.164 116.992C149.977 113.659 147.816 110.249 145.499 106.577C144.588 105.145 143.208 102.984 142.427 101.76C141.646 100.536 140.136 98.1931 139.068 96.5527C138.001 94.9123 137.141 93.4802 137.141 93.4021C137.141 93.298 136.959 93.1678 136.751 93.0636C136.517 92.9855 136.126 93.2459 135.736 93.7667Z" fill="#0075FF"/>
<path d="M81.0351 317.273C80.3322 317.325 77.338 317.585 74.3959 317.872C71.4539 318.132 68.8763 318.34 68.668 318.34C66.9757 318.236 66.9496 318.887 68.5899 320.033C69.2668 320.475 70.5166 321.413 71.3758 322.064C72.261 322.715 74.6563 324.381 76.7392 325.761C78.8221 327.141 81.0351 328.651 81.686 329.094C87.2057 332.843 101.604 340.577 110.326 344.482C125.999 351.538 140.449 356.277 157.061 359.818C161.278 360.73 172.292 362.37 176.848 362.787C177.863 362.865 179.556 363.073 180.623 363.203C181.691 363.334 183.982 363.542 185.7 363.698C187.419 363.828 188.851 364.063 188.903 364.219C189.033 364.583 202.155 364.583 202.285 364.219C202.337 364.089 204.134 363.802 206.269 363.568C218.193 362.396 218.167 362.396 225.796 361.198C239.074 359.115 256.909 353.778 268.807 348.362C270.422 347.633 271.802 347.034 271.854 347.034C271.906 347.034 274.067 346.018 276.618 344.769C288.647 338.91 302.003 330.682 313.017 322.35C314.032 321.595 315.256 320.71 315.75 320.397C317.755 319.095 317.182 318.965 306.43 318.132L302.42 317.82L300.936 318.835C300.129 319.408 298.827 320.241 298.046 320.658C297.265 321.1 295.572 322.064 294.271 322.819C285.106 328.183 270.968 334.562 259.252 338.598C250.166 341.722 244.49 343.337 234.388 345.654C225.483 347.685 214.835 349.247 203.405 350.158C198.067 350.601 182.784 350.523 177.108 350.028C170.209 349.429 158.388 347.789 153.806 346.774C150.838 346.123 141.908 343.935 140.918 343.649C131.337 340.681 122.745 337.634 118.006 335.525C116.574 334.874 114.648 334.015 113.71 333.624C108.972 331.567 96.9172 325.188 91.788 322.012C90.5383 321.23 88.898 320.215 88.143 319.746C87.3879 319.278 86.1903 318.497 85.4873 318.002C84.1855 317.064 84.1595 317.064 81.0351 317.273Z" fill="#0075FF"/>
<path d="M1836.95 71.0243V83.9129H1873.68H1910.42L1909.82 84.8763C1905.73 91.7763 1898.18 97.7129 1890.45 100.16C1885.32 101.801 1886.91 101.697 1860.85 101.801L1836.95 101.905V140.936V179.992H1850.09H1863.24V153.85V127.682L1874.91 127.578C1884.36 127.5 1887.01 127.396 1889.02 127.031C1890.37 126.797 1891.67 126.537 1891.91 126.459C1892.25 126.38 1896.18 132.551 1908.94 153.173L1925.55 179.992H1940.88C1955.41 179.992 1956.19 179.966 1955.96 179.524C1955.83 179.289 1946.87 164.812 1936.06 147.341L1916.41 115.601L1918.39 114.039C1928.88 105.707 1936.72 93.1303 1939.63 80.0073C1940 78.3669 1940.44 75.9454 1940.62 74.6695C1940.99 72.1178 1941.06 61.4424 1940.73 59.3593L1940.54 58.1356H1888.73H1836.95V71.0243Z" fill="white"/>
<path d="M682.652 71.4148V84.4337H709.678C739.02 84.4337 738.656 84.4077 743.421 85.9179C755.944 89.8235 765.109 99.8741 767.816 112.633C768.624 116.382 768.624 122.527 767.816 126.276C765.603 136.77 758.834 145.674 749.383 150.517C747.951 151.247 745.712 152.21 744.436 152.653C739.749 154.215 739.697 154.215 723.633 154.215H708.949V128.307V102.4H695.801H682.652V141.196V179.992L712.542 179.94L742.405 179.862L745.66 179.133C762.088 175.436 775.705 166.192 784.818 152.522C789.583 145.388 793.071 136.014 794.217 127.318C794.738 123.308 794.738 115.601 794.217 111.591C792.837 100.968 788.333 90.3703 781.537 81.8299C773.987 72.3001 762.479 64.5148 750.997 61.182C742.535 58.7084 742.692 58.7084 710.459 58.5522L682.652 58.396V71.4148Z" fill="white"/>
<path d="M872.61 58.5769C874.562 62.2221 916.402 136.508 916.506 136.508C916.663 136.508 932.753 108.231 932.883 107.762C932.909 107.606 926.765 96.4618 919.188 83.0003L905.441 58.5248L888.96 58.4467C879.9 58.4206 872.558 58.4727 872.61 58.5769Z" fill="white"/>
<path d="M962.669 91.9326C952.333 110.367 940.044 132.161 935.384 140.363L926.922 155.256L933.509 167.624L940.096 179.992H943.637H947.204L971.626 135.78C1002.32 80.1896 1013.18 60.6092 1013.91 59.3594L1014.48 58.396H997.974L981.494 58.422L962.669 91.9326Z" fill="white"/>
<path d="M1647.85 98.1904C1647.93 138.731 1647.93 138.887 1648.47 141.309C1649.33 145.032 1650.01 146.933 1651.83 150.604C1653.78 154.588 1655.87 157.478 1659.38 160.993C1668.88 170.497 1680.6 176.356 1694.37 178.517C1698.54 179.168 1708.12 179.142 1712.29 178.491C1723.74 176.694 1733.84 172.268 1742.67 165.133C1752.59 157.114 1757.67 148.079 1758.68 136.622C1758.84 134.825 1758.94 118.942 1758.94 95.5866V57.5194H1745.8H1732.65V91.681C1732.65 128.238 1732.65 128.42 1731.35 132.56C1728.46 141.882 1720.72 149.459 1711.35 152.193C1696.48 156.489 1680.39 148.027 1675.5 133.315C1674.01 128.837 1674.07 130.243 1674.07 92.384V57.5194H1660.92H1647.77L1647.85 98.1904Z" fill="white"/>
<path d="M529.405 59.8801C528.728 61.2601 519.303 78.1846 517.324 81.5695C516.959 82.2205 517.246 82.7673 527.452 100.837C533.232 111.07 545.625 133.072 554.972 149.71L571.974 179.992H588.376C601.394 179.992 604.753 179.914 604.649 179.654C604.597 179.497 589.496 152.574 571.088 119.845C552.707 87.1156 537.45 59.8541 537.189 59.2292L536.695 58.1356H533.492H530.264L529.405 59.8801Z" fill="white"/>
<path d="M485.224 138.644C473.56 159.422 463.562 177.232 463.015 178.222L462 179.992L478.507 179.94L494.988 179.862L508.969 154.996C516.676 141.326 522.95 130.078 522.977 130C522.977 129.817 506.86 101.306 506.626 101.046C506.522 100.968 496.888 117.892 485.224 138.644Z" fill="white"/>
<path d="M1092.48 71.2832V84.1719H1147.55H1202.61V71.2832V58.3945H1147.55H1092.48V71.2832Z" fill="white"/>
<path d="M1092.48 141.066V179.992H1147.55H1202.61V167.104V154.215H1160.7H1118.78V141.196V128.177H1155.23H1191.68V115.158V102.139H1142.08H1092.48V141.066Z" fill="white"/>
<path d="M2033.99 71.2832V84.1719H2089.05H2144.12V71.2832V58.3945H2089.05H2033.99V71.2832Z" fill="white"/>
<path d="M2033.99 141.066V179.992H2089.05H2144.12V167.104V154.215H2102.2H2060.28V141.196V128.177H2096.74H2133.19V115.158V102.139H2083.59H2033.99V141.066Z" fill="white"/>
<path d="M1458.59 71.2832V84.1719H1514.18H1569.77V71.2832V58.3945H1514.18H1458.59V71.2832Z" fill="white"/>
<path d="M1500.25 141.196V179.992H1513.27H1526.29V141.196V102.4H1513.27H1500.25V141.196Z" fill="white"/>
<path d="M1280.61 71.6646V86.7145L1327.4 132.775L1374.16 178.836L1377.39 178.914L1380.59 178.992V118.038V57.1095L1367.52 57.1616L1354.43 57.2397L1354.3 89.9431L1354.17 122.62L1320.71 89.6307L1287.25 56.6148H1283.95L1280.61 56.5888V71.6646Z" fill="white"/>
<path d="M1280.61 145.453V178.703H1293.76H1306.91V158.394V138.058L1296.81 128.112C1291.26 122.644 1285.35 116.811 1283.66 115.197L1280.61 112.203V145.453Z" fill="white"/>
</svg>
