<svg width="1847" height="483" viewBox="0 0 1847 483" fill="none" xmlns="http://www.w3.org/2000/svg">
<path d="M288.426 39.6622C288.244 40.0788 287.749 40.9641 287.28 41.6931C286.838 42.3962 285.666 44.2709 284.703 45.8592C283.74 47.4214 281.943 50.2335 280.745 52.1082C278.923 54.9203 277.022 58.0448 273.924 63.2524C273.69 63.643 272.7 65.2573 271.685 66.8196C269.81 69.7618 268.639 71.6105 264.265 78.6667C259.474 86.3999 258.615 87.7799 257.235 89.9931C256.48 91.2169 255.048 93.4822 254.084 95.0705C253.121 96.6328 251.845 98.7158 251.22 99.7052C250.596 100.669 249.372 102.569 248.513 103.949C247.654 105.303 246.612 106.97 246.196 107.621C245.493 108.714 245.467 108.87 245.805 109.417C246.638 110.823 250.648 117.098 252.002 119.181C252.809 120.405 254.866 123.66 256.584 126.42C259.708 131.445 262.702 136.184 264.655 139.257C265.566 140.663 268.066 144.646 269.42 146.834C269.836 147.51 271.581 150.27 274.679 155.218C275.408 156.363 277.074 158.993 278.402 161.076C279.73 163.159 281.214 165.555 281.709 166.388C282.203 167.195 283.609 169.46 284.833 171.387C287.411 175.449 292.41 183.417 295.3 187.973C299.049 193.936 299.752 195.055 300.845 196.748C301.444 197.685 302.121 198.779 302.355 199.221C302.564 199.638 303.11 200.445 303.553 201.018C303.996 201.565 304.36 202.164 304.36 202.32C304.36 202.476 303.996 203.205 303.553 203.908C302.59 205.497 300.559 208.96 298.372 212.761C297.487 214.323 296.003 216.849 295.117 218.359C294.206 219.869 293.165 221.744 292.774 222.525C292.384 223.306 291.733 224.426 291.342 224.999C290.952 225.572 289.936 227.264 289.077 228.774C288.218 230.284 286.656 232.966 285.614 234.763C284.573 236.56 283.531 238.356 283.323 238.799C283.089 239.215 282.49 240.231 281.969 241.012C281.422 241.793 280.563 243.329 280.016 244.397C279.47 245.464 278.845 246.636 278.584 247.001C278.324 247.365 277.257 249.162 276.189 251.037C275.122 252.885 273.091 256.4 271.685 258.848C270.279 261.269 268.613 264.081 267.988 265.097C267.102 266.451 266.868 266.998 267.05 267.31C267.207 267.518 267.467 267.701 267.675 267.701C271.346 267.649 314.853 267.258 327.22 267.18L343.935 267.076L344.56 267.649C345.185 268.221 347.372 271.606 349.715 275.642C350.418 276.866 351.173 278.038 351.355 278.246C351.538 278.454 351.954 279.157 352.267 279.782C352.579 280.433 353.23 281.553 353.699 282.256C354.167 282.985 355.651 285.458 357.031 287.75C358.385 290.041 360.155 292.983 360.963 294.311C361.77 295.613 362.421 296.759 362.421 296.863C362.421 296.967 362.811 297.644 363.306 298.373C364.165 299.701 367.133 304.544 368.799 307.408C369.659 308.892 371.143 311.366 373.486 315.22C374.215 316.443 375.152 318.006 375.569 318.735C375.959 319.438 376.662 320.609 377.131 321.338C377.6 322.041 380.073 326.155 382.625 330.426C385.202 334.696 387.754 338.992 388.327 339.929C388.899 340.893 389.941 342.637 390.644 343.835C391.347 345.007 392.154 346.1 392.414 346.23C392.753 346.413 399.704 346.413 414.05 346.23C441.831 345.866 478.073 345.554 480.937 345.658C482.187 345.684 483.436 345.658 483.749 345.554C484.504 345.319 484.4 344.538 483.541 344.226C482.785 343.939 481.796 342.481 472.97 328.499C472.267 327.431 470.705 324.958 469.481 323.005C468.231 321.052 466.565 318.448 465.784 317.198C465.003 315.949 463.545 313.657 462.529 312.095C459.041 306.653 457.869 304.804 451.75 295.118C451.23 294.285 450.11 292.515 449.251 291.135C448.392 289.781 447.194 287.932 446.595 287.021C445.996 286.135 445.085 284.703 444.564 283.844C444.07 282.985 443.08 281.397 442.377 280.329C441.674 279.261 440.425 277.283 439.592 275.929C438.055 273.481 434.593 268.039 432.38 264.576C431.729 263.561 430.505 261.634 429.646 260.28C427.953 257.624 426.365 255.124 423.397 250.438C421.054 246.766 418.242 242.366 416.315 239.32C413.816 235.388 409.26 228.175 408.635 227.212C408.322 226.717 407.385 225.233 406.526 223.905C405.693 222.603 404.183 220.208 403.167 218.62C400.876 215 399.444 212.735 397.127 209.116C396.111 207.527 394.159 204.429 392.753 202.216C391.347 200.003 389.837 197.581 389.368 196.878C388.899 196.149 387.571 194.04 386.374 192.191C385.202 190.317 383.692 187.973 383.015 186.932C382.364 185.89 381.115 183.911 380.255 182.531C379.396 181.151 377.964 178.912 377.079 177.584C376.168 176.23 375.439 175.058 375.439 174.954C375.439 174.876 374.71 173.678 373.798 172.298C372.887 170.918 371.689 169.07 371.117 168.158C370.57 167.273 369.711 165.919 369.216 165.164C368.747 164.409 367.446 162.404 366.378 160.686C365.311 158.967 363.827 156.624 363.072 155.478C361.796 153.473 359.739 150.27 357.265 146.365C356.641 145.349 355.183 143.11 354.063 141.34C352.943 139.569 352.006 138.059 352.006 137.929C352.006 137.824 351.642 137.252 351.199 136.653C350.756 136.054 349.481 134.127 348.387 132.357C342.139 122.514 336.254 113.219 335.864 112.646C334.041 109.912 332.479 107.438 332.141 106.787C331.932 106.345 331.125 105.069 330.344 103.923C329.589 102.778 328.313 100.799 327.532 99.549C326.751 98.2731 325.293 95.9558 324.278 94.3935C323.288 92.8312 321.466 89.9671 320.242 88.0143C319.018 86.0875 317.014 82.9369 315.764 81.0101C314.514 79.0833 313.317 77.1045 313.108 76.5837C312.9 76.089 311.859 74.3965 310.817 72.8603C309.802 71.3241 308.109 68.8245 307.094 67.2622C306.105 65.726 304.933 63.9294 304.49 63.2784C304.074 62.6275 303.189 61.2214 302.538 60.1799C301.887 59.1384 301.054 57.8365 300.689 57.2637C300.325 56.7169 298.867 54.4256 297.435 52.1603C296.029 49.895 294.414 47.3694 293.894 46.5622C293.347 45.729 292.67 44.6094 292.357 44.0365C292.045 43.4637 291.472 42.5784 291.082 42.0837C290.691 41.589 290.118 40.6777 289.806 40.0527C289.155 38.7769 288.843 38.6988 288.426 39.6622Z" fill="#0075FF"/>
<path d="M239.012 88.3281C238.517 88.5364 236.226 89.3436 233.935 90.1247C228.077 92.0775 224.484 93.3794 221.307 94.6553C219.797 95.2541 217.636 96.1134 216.491 96.556C212.872 97.9621 205.686 101.087 201.91 102.883C199.906 103.847 197.51 104.914 196.573 105.305C195.636 105.669 194.074 106.476 193.084 107.127C192.095 107.778 190.611 108.559 189.804 108.898C188.189 109.549 185.794 110.877 185.065 111.528C184.805 111.762 183.295 112.673 181.68 113.559C180.066 114.47 177.697 115.928 176.395 116.787C170.12 121.084 164.965 124.677 164.106 125.38C163.559 125.822 160.669 128.14 157.649 130.535C151.843 135.17 144.527 142.2 140.335 147.173C139.137 148.579 137.627 150.35 136.976 151.053C135.622 152.537 132.576 156.495 130.832 158.995C127.916 163.239 125.208 167.379 125 167.925C124.87 168.264 124.219 169.358 123.568 170.373C122.37 172.248 119.767 177.429 118.074 181.387C117.553 182.611 116.668 184.538 116.121 185.683C115.575 186.829 114.663 189.172 114.091 190.891C113.492 192.609 112.737 194.822 112.398 195.838C110.81 200.316 109.144 207.399 107.92 214.715C107.686 216.225 107.321 218.152 107.113 219.012C106.566 221.407 105.707 233.723 105.707 239.451C105.707 245.596 106.488 257.339 107.139 260.828C107.347 262.026 107.946 265.515 108.441 268.587C108.962 271.66 109.847 275.982 110.446 278.221C111.018 280.461 111.643 282.986 111.852 283.845C112.372 286.293 113.96 290.589 114.429 290.876C114.742 291.084 115.028 290.902 115.809 289.964C116.33 289.339 118.439 286.944 120.496 284.705L124.245 280.591L123.698 278.95C122.422 274.993 120.704 265.671 119.532 256.506C118.647 249.606 118.595 248.59 118.621 238.67C118.621 229.687 118.699 227.786 119.194 223.568C119.532 220.912 119.949 218.1 120.157 217.319C120.365 216.538 120.704 214.767 120.938 213.413C121.641 209.247 122.787 204.587 123.88 201.436C124.427 199.796 125.156 197.687 125.442 196.749C126.666 192.974 127.343 191.255 128.957 187.74C131.274 182.741 132.628 180.059 133.982 177.82C134.607 176.778 135.128 175.815 135.128 175.685C135.128 175.528 135.779 174.487 136.56 173.341C137.341 172.196 137.992 171.154 137.992 171.024C137.992 170.79 139.059 169.253 142.236 165.009C143.121 163.812 144.293 162.171 144.865 161.364C145.412 160.557 146.87 158.786 148.12 157.432C149.344 156.078 150.906 154.308 151.583 153.527C153.275 151.496 160.825 144.075 163.689 141.653C167.907 138.034 168.506 137.539 170.641 135.899C175.484 132.176 179.78 129.233 184.466 126.421C185.482 125.822 186.653 125.015 187.07 124.625C187.512 124.208 189.075 123.271 190.585 122.542C192.095 121.787 193.839 120.797 194.49 120.355C195.141 119.912 196.313 119.209 197.094 118.792C200.452 117.048 208.029 113.298 209.591 112.647C221.802 107.44 224.848 106.268 230.732 104.602C232.06 104.211 233.805 103.013 233.805 102.467C233.805 102.362 235.341 99.1598 237.215 95.3583C239.064 91.5568 240.522 88.3281 240.444 88.1719C240.235 87.8334 240.105 87.8594 239.012 88.3281Z" fill="#0075FF"/>
<path d="M338.988 88.172C338.988 88.3282 340.524 91.5569 342.373 95.3324C344.248 99.1339 345.758 102.337 345.758 102.441C345.758 102.571 346.096 102.961 346.487 103.352C347.033 103.873 348.283 104.393 350.991 105.227C353.074 105.852 355.339 106.633 356.042 106.919C356.771 107.232 358.984 108.117 360.989 108.872C362.994 109.627 365.962 110.851 367.55 111.58C369.164 112.309 370.57 112.908 370.648 112.908C371.169 112.908 384.135 119.626 387.806 121.787C389.004 122.49 390.045 123.063 390.123 123.063C390.227 123.063 391.321 123.713 392.571 124.547C393.82 125.354 396.007 126.76 397.439 127.697C400.173 129.468 402.985 131.447 407.854 135.066C410.64 137.123 416.836 142.357 420.325 145.611C425.324 150.272 431.208 156.729 435.504 162.249C437.795 165.192 443.81 174.227 445.632 177.481C449.694 184.746 453.183 192.844 455.396 200.134C455.968 202.061 456.567 203.936 456.671 204.3C457.452 206.487 459.405 216.304 460.056 221.225C461.41 231.484 461.462 245.362 460.186 255.855C459.77 259.318 459.145 263.562 458.754 265.489C458.624 266.14 458.338 267.702 458.103 269.004C457.479 272.545 456.125 278.586 455.864 279.081C455.213 280.278 455.552 280.825 459.613 285.252C461.774 287.647 463.831 289.964 464.118 290.381C464.951 291.501 465.42 291.032 466.331 288.272C467.034 286.085 467.32 285.147 468.674 280.2C469.117 278.56 470.392 272.649 471.356 267.572C471.85 265.02 472.762 258.094 473.387 252.21C473.595 250.413 473.699 245.44 473.699 239.712C473.699 230.208 473.673 230.026 472.527 220.444C471.85 214.689 470.08 205.915 468.492 200.395C466.565 193.651 462.295 182.507 459.952 178.002C459.613 177.351 458.676 175.607 457.895 174.097C454.745 168.004 450.683 161.677 446.205 155.74C444.018 152.902 438.733 146.601 436.207 143.893C431.703 139.024 422.903 131.082 417.383 126.864C416.055 125.849 414.337 124.547 413.582 123.974C410.9 121.917 400.694 115.225 396.632 112.882C388.795 108.299 384.109 105.878 374.137 101.243C371.117 99.8108 362.343 96.1656 360.598 95.5927C359.817 95.3324 357.995 94.6033 356.563 93.9524C353.386 92.5463 351.538 91.8693 344.925 89.6301C339.717 87.8856 338.988 87.7033 338.988 88.172Z" fill="#0075FF"/>
<path d="M231.876 132.774C231.538 133.243 230.652 134.597 229.897 135.821C229.142 137.045 227.502 139.622 226.252 141.549C225.003 143.476 222.764 146.991 221.306 149.361C219.821 151.73 218.416 153.943 218.181 154.308C217.921 154.672 216.879 156.313 215.838 157.953C214.796 159.593 213.312 161.937 212.531 163.161C211.724 164.384 210.006 167.066 208.704 169.149C207.402 171.232 206.022 173.393 205.658 173.966C205.059 174.877 202.247 179.33 196.207 188.886C194.046 192.297 190.531 197.791 189.099 199.952C188.552 200.785 187.771 202.035 187.328 202.738C185.037 206.435 183.709 208.544 182.46 210.471C180.741 213.127 180.585 213.387 176.549 219.793C173.191 225.078 171.889 227.135 169.103 231.484C168.244 232.811 166.89 234.947 166.109 236.196C164.547 238.67 161.683 243.201 160.772 244.659C160.433 245.153 159.079 247.262 157.725 249.345C156.398 251.428 154.523 254.319 153.612 255.803C152.674 257.261 150.8 260.229 149.446 262.364C148.092 264.499 146.79 266.582 146.556 266.973C146.322 267.364 145.098 269.29 143.848 271.217C142.598 273.144 141.219 275.305 140.802 276.034C140.385 276.737 139.682 277.883 139.214 278.56C138.745 279.237 137.73 280.799 136.949 282.049C136.168 283.299 134.814 285.408 133.954 286.736C133.095 288.09 131.819 290.094 131.117 291.188C130.414 292.308 129.346 293.974 128.747 294.911C128.148 295.849 126.977 297.724 126.118 299.077C125.284 300.431 123.878 302.671 122.993 304.025C122.108 305.379 120.624 307.722 119.687 309.232C118.151 311.706 115.885 315.247 113.646 318.736C112.605 320.35 106.747 329.568 104.221 333.577C99.3264 341.311 97.4779 344.071 96.7749 344.696C96.1761 345.19 96.0199 345.477 96.2281 345.685C96.5145 345.971 140.047 346.05 160.121 345.815C165.64 345.737 213.26 345.555 265.957 345.399C318.654 345.242 362.577 345.112 363.593 345.086C365.832 345.034 366.014 344.644 364.712 342.847C364.244 342.196 361.952 338.603 359.635 334.879C353.543 325.089 353.413 324.855 350.783 320.715C347.659 315.742 345.81 312.773 343.935 309.753C341.905 306.446 340.759 304.597 334.25 294.261C333.183 292.542 331.959 290.589 331.568 289.886C330.188 287.491 332.402 287.725 308.605 287.517C297.044 287.413 284.183 287.282 280.017 287.23C275.877 287.178 262 287.048 249.242 286.944C223.831 286.762 224.768 286.814 225.94 285.33C226.252 284.939 226.695 284.262 226.929 283.845C227.164 283.403 227.841 282.309 228.465 281.372C230.679 277.961 232.501 275.071 241.77 260.203C243.957 256.714 245.91 253.642 249.008 248.825C250.622 246.325 252.757 242.914 253.773 241.274C255.986 237.628 257.183 235.702 261.661 228.645C263.562 225.625 265.645 222.292 266.296 221.225C266.921 220.157 268.066 218.334 268.821 217.189C269.55 216.043 270.8 214.116 271.555 212.893C274.966 207.477 275.929 205.967 276.971 204.404C277.57 203.493 278.064 202.582 278.064 202.399C278.064 202.217 277.674 201.54 277.231 200.915C276.762 200.29 275.955 199.119 275.461 198.285C274.627 196.931 273.586 195.265 269.993 189.745C269.342 188.756 268.17 186.907 267.363 185.631C266.556 184.381 264.968 181.908 263.848 180.163C261.531 176.57 256.558 168.837 254.423 165.504C252.575 162.588 250.596 159.515 248.305 156C246.118 152.667 243.957 149.256 241.64 145.585C240.728 144.153 239.349 141.992 238.567 140.768C237.786 139.544 236.276 137.201 235.209 135.561C234.141 133.92 233.282 132.488 233.282 132.41C233.282 132.306 233.1 132.176 232.892 132.071C232.657 131.993 232.267 132.254 231.876 132.774Z" fill="#0075FF"/>
<path d="M177.176 356.281C176.473 356.333 173.479 356.593 170.537 356.879C167.594 357.14 165.017 357.348 164.809 357.348C163.116 357.244 163.09 357.895 164.731 359.041C165.407 359.483 166.657 360.421 167.516 361.072C168.402 361.722 170.797 363.389 172.88 364.769C174.963 366.149 177.176 367.659 177.827 368.102C183.346 371.851 197.744 379.584 206.466 383.49C222.14 390.546 236.59 395.285 253.201 398.826C257.419 399.738 268.432 401.378 272.989 401.795C274.004 401.873 275.696 402.081 276.764 402.211C277.831 402.341 280.122 402.55 281.841 402.706C283.559 402.836 284.991 403.07 285.043 403.227C285.173 403.591 298.296 403.591 298.426 403.227C298.478 403.096 300.274 402.81 302.409 402.576C314.334 401.404 314.308 401.404 321.936 400.206C335.215 398.123 353.05 392.785 364.948 387.37C366.562 386.641 367.942 386.042 367.994 386.042C368.046 386.042 370.207 385.026 372.759 383.776C384.788 377.918 398.144 369.69 409.157 361.358C410.173 360.603 411.396 359.718 411.891 359.405C413.896 358.103 413.323 357.973 402.57 357.14L398.561 356.827L397.077 357.843C396.269 358.416 394.968 359.249 394.187 359.665C393.405 360.108 391.713 361.072 390.411 361.827C381.247 367.19 367.109 373.57 355.393 377.605C346.306 380.73 340.63 382.344 330.528 384.662C321.624 386.693 310.975 388.255 299.545 389.166C294.208 389.609 278.925 389.531 273.249 389.036C266.349 388.437 254.529 386.797 249.947 385.781C246.979 385.13 238.048 382.943 237.059 382.657C227.477 379.688 218.886 376.642 214.147 374.533C212.715 373.882 210.788 373.023 209.851 372.632C205.112 370.575 193.058 364.196 187.929 361.019C186.679 360.238 185.039 359.223 184.284 358.754C183.529 358.285 182.331 357.504 181.628 357.01C180.326 356.072 180.3 356.072 177.176 356.281Z" fill="#0075FF"/>
<path d="M1116.66 111.493V126.543L1163.45 172.603L1210.21 218.664L1213.44 218.742L1216.64 218.82V157.866V96.9377L1203.57 96.9897L1190.47 97.0679L1190.34 129.771L1190.21 162.449L1156.76 129.459L1123.3 96.443H1119.99L1116.66 96.4169V111.493Z" fill="white"/>
<path d="M628.405 98.677C627.728 100.057 618.303 116.982 616.324 120.366C615.959 121.017 616.246 121.564 626.452 139.634C632.232 149.867 644.625 171.869 653.972 188.507L670.974 218.789H687.376C700.394 218.789 703.753 218.711 703.649 218.451C703.597 218.294 688.496 191.371 670.088 158.642C651.707 125.912 636.45 98.6509 636.189 98.026L635.695 96.9324H632.492H629.264L628.405 98.677Z" fill="white"/>
<path d="M1494.96 109.821V122.71H1531.7H1568.44L1567.84 123.673C1563.75 130.573 1556.2 136.51 1548.47 138.957C1543.34 140.598 1544.93 140.494 1518.87 140.598L1494.96 140.702V179.732V218.789H1508.11H1521.26V192.647V166.479L1532.93 166.375C1542.38 166.297 1545.03 166.193 1547.04 165.828C1548.39 165.594 1549.69 165.334 1549.93 165.255C1550.27 165.177 1554.2 171.348 1566.95 191.97L1583.57 218.789H1598.9C1613.43 218.789 1614.21 218.763 1613.98 218.32C1613.85 218.086 1604.89 203.609 1594.08 186.138L1574.43 154.398L1576.41 152.835C1586.9 144.503 1594.74 131.927 1597.65 118.804C1598.02 117.164 1598.46 114.742 1598.64 113.466C1599.01 110.915 1599.08 100.239 1598.74 98.1562L1598.56 96.9324H1546.75H1494.96V109.821Z" fill="white"/>
<path d="M719.09 110.212V123.231H746.115C775.458 123.231 775.093 123.205 779.858 124.715C792.381 128.62 801.546 138.671 804.254 151.429C805.061 155.179 805.061 161.324 804.254 165.073C802.041 175.566 795.271 184.471 785.82 189.314C784.388 190.043 782.149 191.007 780.873 191.449C776.187 193.012 776.135 193.012 760.071 193.012H745.386V167.104V141.197H732.238H719.09V179.993V218.789L748.979 218.737L778.843 218.659L782.097 217.93C798.526 214.232 812.143 204.989 821.255 191.319C826.02 184.185 829.509 174.811 830.654 166.115C831.175 162.105 831.175 154.398 830.654 150.388C829.275 139.765 824.77 129.167 817.975 120.627C810.424 111.097 798.916 103.312 787.435 99.9789C778.973 97.5053 779.129 97.5053 746.896 97.3491L719.09 97.1928V110.212Z" fill="white"/>
<path d="M831.383 97.3737C833.336 101.019 875.176 175.305 875.28 175.305C875.436 175.305 891.526 147.028 891.657 146.559C891.683 146.403 885.538 135.259 877.962 121.797L864.215 97.3217L847.734 97.2435C838.673 97.2175 831.331 97.2696 831.383 97.3737Z" fill="white"/>
<path d="M921.443 130.729C911.107 149.164 898.817 170.958 894.157 179.16L885.695 194.053L892.282 206.421L898.87 218.789H902.41H905.977L930.399 174.577C961.096 118.986 971.953 99.4061 972.682 98.1562L973.255 97.1928H956.748L940.267 97.2189L921.443 130.729Z" fill="white"/>
<path d="M987.781 110.08V122.969H1042.85H1097.91V110.08V97.1914H1042.85H987.781V110.08Z" fill="white"/>
<path d="M1235.39 110.08V122.969H1290.97H1346.56V110.08V97.1914H1290.97H1235.39V110.08Z" fill="white"/>
<path d="M1365.12 137.862C1365.2 178.403 1365.2 178.559 1365.75 180.981C1366.61 184.704 1367.29 186.605 1369.11 190.276C1371.06 194.26 1373.14 197.15 1376.66 200.665C1386.16 210.169 1397.88 216.028 1411.65 218.189C1415.82 218.84 1425.4 218.814 1429.56 218.163C1441.02 216.366 1451.12 211.94 1459.95 204.805C1469.87 196.786 1474.95 187.751 1475.96 176.294C1476.12 174.497 1476.22 158.614 1476.22 135.258V97.1913H1463.07H1449.92V131.353C1449.92 167.91 1449.92 168.092 1448.62 172.232C1445.73 181.554 1438 189.131 1428.63 191.865C1413.76 196.161 1397.67 187.698 1392.78 172.987C1391.29 168.509 1391.34 169.915 1391.34 132.056V97.1913H1378.2H1365.05L1365.12 137.862Z" fill="white"/>
<path d="M1624.89 110.08V122.969H1679.95H1735.02V110.08V97.1914H1679.95H1624.89V110.08Z" fill="white"/>
<path d="M584.224 177.441C572.56 198.219 562.562 216.029 562.015 217.018L561 218.789L577.507 218.737L593.988 218.659L607.969 193.793C615.676 180.123 621.95 168.875 621.977 168.797C621.977 168.614 605.86 140.103 605.626 139.843C605.522 139.765 595.888 156.689 584.224 177.441Z" fill="white"/>
<path d="M987.781 179.863V218.789H1042.85H1097.91V205.9V193.012H1056H1014.08V179.993V166.974H1050.53H1086.98V153.955V140.936H1037.38H987.781V179.863Z" fill="white"/>
<path d="M1624.89 179.863V218.789H1679.95H1735.02V205.9V193.012H1693.1H1651.18V179.993V166.974H1687.63H1724.08V153.955V140.936H1674.49H1624.89V179.863Z" fill="white"/>
<path d="M1277.04 179.993V218.789H1290.06H1303.08V179.993V141.197H1290.06H1277.04V179.993Z" fill="white"/>
<path d="M1116.66 185.281V218.531H1129.81H1142.96V198.222V177.886L1132.85 167.94C1127.31 162.472 1121.4 156.64 1119.71 155.025L1116.66 152.031V185.281Z" fill="white"/>
<path d="M556.29 315.922V311.01H585.558V315.922H573.759V348.828H568.071V315.922H556.29ZM602.426 348.828V311.01H626.136V315.922H608.132V327.445H624.899V332.338H608.132V343.916H626.358V348.828H602.426ZM675.568 323.308H669.807C669.586 322.077 669.173 320.994 668.57 320.058C667.967 319.123 667.228 318.329 666.354 317.676C665.48 317.024 664.501 316.531 663.418 316.199C662.347 315.866 661.208 315.7 660.002 315.7C657.823 315.7 655.872 316.248 654.148 317.344C652.437 318.439 651.083 320.046 650.086 322.163C649.101 324.281 648.608 326.866 648.608 329.919C648.608 332.997 649.101 335.594 650.086 337.712C651.083 339.829 652.443 341.429 654.166 342.513C655.89 343.596 657.829 344.138 659.983 344.138C661.177 344.138 662.31 343.978 663.381 343.658C664.464 343.325 665.443 342.839 666.317 342.199C667.191 341.559 667.93 340.777 668.533 339.854C669.148 338.918 669.573 337.847 669.807 336.641L675.568 336.659C675.261 338.518 674.664 340.229 673.777 341.793C672.903 343.344 671.777 344.686 670.398 345.818C669.032 346.938 667.468 347.806 665.708 348.422C663.947 349.037 662.027 349.345 659.946 349.345C656.672 349.345 653.754 348.57 651.193 347.018C648.633 345.455 646.614 343.221 645.137 340.315C643.672 337.41 642.939 333.945 642.939 329.919C642.939 325.881 643.678 322.416 645.155 319.523C646.632 316.617 648.651 314.389 651.212 312.838C653.773 311.275 656.684 310.493 659.946 310.493C661.953 310.493 663.824 310.782 665.56 311.361C667.308 311.927 668.878 312.764 670.269 313.872C671.66 314.968 672.811 316.31 673.722 317.898C674.633 319.473 675.248 321.277 675.568 323.308ZM692.796 348.828V311.01H698.502V327.445H717.356V311.01H723.08V348.828H717.356V332.338H698.502V348.828H692.796ZM772.314 311.01V348.828H767.07L747.847 321.092H747.496V348.828H741.79V311.01H747.071L766.313 338.783H766.664V311.01H772.314ZM823.888 329.919C823.888 333.957 823.15 337.429 821.673 340.334C820.195 343.227 818.17 345.455 815.597 347.018C813.037 348.57 810.125 349.345 806.863 349.345C803.588 349.345 800.665 348.57 798.092 347.018C795.531 345.455 793.512 343.221 792.035 340.315C790.558 337.41 789.819 333.945 789.819 329.919C789.819 325.881 790.558 322.416 792.035 319.523C793.512 316.617 795.531 314.389 798.092 312.838C800.665 311.275 803.588 310.493 806.863 310.493C810.125 310.493 813.037 311.275 815.597 312.838C818.17 314.389 820.195 316.617 821.673 319.523C823.15 322.416 823.888 325.881 823.888 329.919ZM818.238 329.919C818.238 326.841 817.739 324.25 816.742 322.145C815.757 320.027 814.403 318.427 812.68 317.344C810.969 316.248 809.03 315.7 806.863 315.7C804.684 315.7 802.739 316.248 801.028 317.344C799.317 318.427 797.962 320.027 796.965 322.145C795.98 324.25 795.488 326.841 795.488 329.919C795.488 332.997 795.98 335.594 796.965 337.712C797.962 339.817 799.317 341.417 801.028 342.513C802.739 343.596 804.684 344.138 806.863 344.138C809.03 344.138 810.969 343.596 812.68 342.513C814.403 341.417 815.757 339.817 816.742 337.712C817.739 335.594 818.238 332.997 818.238 329.919ZM841.402 348.828V311.01H847.108V343.916H864.245V348.828H841.402ZM912.532 329.919C912.532 333.957 911.794 337.429 910.316 340.334C908.839 343.227 906.814 345.455 904.241 347.018C901.68 348.57 898.769 349.345 895.507 349.345C892.232 349.345 889.308 348.57 886.735 347.018C884.175 345.455 882.156 343.221 880.679 340.315C879.201 337.41 878.463 333.945 878.463 329.919C878.463 325.881 879.201 322.416 880.679 319.523C882.156 316.617 884.175 314.389 886.735 312.838C889.308 311.275 892.232 310.493 895.507 310.493C898.769 310.493 901.68 311.275 904.241 312.838C906.814 314.389 908.839 316.617 910.316 319.523C911.794 322.416 912.532 325.881 912.532 329.919ZM906.882 329.919C906.882 326.841 906.383 324.25 905.386 322.145C904.401 320.027 903.047 318.427 901.323 317.344C899.612 316.248 897.673 315.7 895.507 315.7C893.328 315.7 891.383 316.248 889.671 317.344C887.96 318.427 886.606 320.027 885.609 322.145C884.624 324.25 884.132 326.841 884.132 329.919C884.132 332.997 884.624 335.594 885.609 337.712C886.606 339.817 887.96 341.417 889.671 342.513C891.383 343.596 893.328 344.138 895.507 344.138C897.673 344.138 899.612 343.596 901.323 342.513C903.047 341.417 904.401 339.817 905.386 337.712C906.383 335.594 906.882 332.997 906.882 329.919ZM955.64 322.957C955.283 321.837 954.803 320.834 954.2 319.947C953.609 319.049 952.901 318.286 952.076 317.658C951.251 317.018 950.31 316.531 949.251 316.199C948.204 315.866 947.053 315.7 945.798 315.7C943.668 315.7 941.747 316.248 940.036 317.344C938.325 318.439 936.971 320.046 935.974 322.163C934.989 324.268 934.497 326.848 934.497 329.901C934.497 332.966 934.995 335.557 935.992 337.675C936.989 339.792 938.356 341.399 940.092 342.494C941.827 343.59 943.803 344.138 946.019 344.138C948.075 344.138 949.866 343.719 951.393 342.882C952.932 342.045 954.12 340.863 954.957 339.337C955.806 337.798 956.231 335.988 956.231 333.908L957.708 334.185H946.887V329.476H961.752V333.778C961.752 336.955 961.075 339.712 959.721 342.051C958.379 344.378 956.52 346.175 954.144 347.443C951.781 348.711 949.072 349.345 946.019 349.345C942.597 349.345 939.593 348.557 937.008 346.982C934.435 345.406 932.428 343.171 930.988 340.278C929.548 337.373 928.827 333.926 928.827 329.938C928.827 326.921 929.246 324.213 930.083 321.812C930.92 319.412 932.096 317.375 933.61 315.7C935.137 314.014 936.928 312.727 938.984 311.841C941.052 310.942 943.311 310.493 945.761 310.493C947.804 310.493 949.706 310.795 951.467 311.398C953.239 312.001 954.815 312.857 956.194 313.964C957.585 315.072 958.736 316.39 959.647 317.916C960.558 319.43 961.174 321.111 961.494 322.957H955.64ZM975.208 311.01H981.69L991.569 328.202H991.975L1001.85 311.01H1008.34L994.616 333.982V348.828H988.928V333.982L975.208 311.01ZM1068.91 320.945C1068.71 319.196 1067.9 317.842 1066.47 316.882C1065.05 315.91 1063.25 315.423 1061.08 315.423C1059.53 315.423 1058.19 315.67 1057.06 316.162C1055.92 316.642 1055.04 317.307 1054.42 318.156C1053.8 318.993 1053.49 319.947 1053.49 321.018C1053.49 321.917 1053.7 322.693 1054.12 323.345C1054.55 323.998 1055.11 324.545 1055.8 324.989C1056.5 325.42 1057.25 325.783 1058.05 326.078C1058.85 326.361 1059.62 326.595 1060.36 326.78L1064.06 327.74C1065.26 328.036 1066.5 328.436 1067.77 328.94C1069.03 329.445 1070.21 330.11 1071.29 330.935C1072.38 331.759 1073.25 332.781 1073.92 334C1074.59 335.219 1074.93 336.678 1074.93 338.376C1074.93 340.518 1074.38 342.42 1073.27 344.082C1072.17 345.744 1070.58 347.055 1068.49 348.016C1066.41 348.976 1063.89 349.456 1060.93 349.456C1058.1 349.456 1055.65 349.007 1053.59 348.108C1051.52 347.209 1049.9 345.935 1048.73 344.286C1047.56 342.624 1046.91 340.654 1046.79 338.376H1052.51C1052.62 339.743 1053.07 340.882 1053.84 341.793C1054.63 342.691 1055.63 343.362 1056.85 343.805C1058.08 344.236 1059.43 344.452 1060.9 344.452C1062.51 344.452 1063.94 344.199 1065.2 343.695C1066.47 343.178 1067.47 342.464 1068.19 341.553C1068.92 340.629 1069.28 339.552 1069.28 338.321C1069.28 337.201 1068.96 336.284 1068.32 335.57C1067.69 334.856 1066.84 334.265 1065.75 333.797C1064.68 333.329 1063.47 332.917 1062.12 332.56L1057.65 331.341C1054.62 330.516 1052.22 329.304 1050.45 327.703C1048.69 326.103 1047.81 323.985 1047.81 321.351C1047.81 319.172 1048.4 317.27 1049.58 315.645C1050.76 314.02 1052.36 312.758 1054.38 311.859C1056.4 310.948 1058.68 310.493 1061.21 310.493C1063.77 310.493 1066.03 310.942 1067.99 311.841C1069.96 312.74 1071.51 313.977 1072.64 315.553C1073.77 317.116 1074.37 318.913 1074.41 320.945H1068.91ZM1125 329.919C1125 333.957 1124.26 337.429 1122.79 340.334C1121.31 343.227 1119.28 345.455 1116.71 347.018C1114.15 348.57 1111.24 349.345 1107.98 349.345C1104.7 349.345 1101.78 348.57 1099.2 347.018C1096.64 345.455 1094.62 343.221 1093.15 340.315C1091.67 337.41 1090.93 333.945 1090.93 329.919C1090.93 325.881 1091.67 322.416 1093.15 319.523C1094.62 316.617 1096.64 314.389 1099.2 312.838C1101.78 311.275 1104.7 310.493 1107.98 310.493C1111.24 310.493 1114.15 311.275 1116.71 312.838C1119.28 314.389 1121.31 316.617 1122.79 319.523C1124.26 322.416 1125 325.881 1125 329.919ZM1119.35 329.919C1119.35 326.841 1118.85 324.25 1117.85 322.145C1116.87 320.027 1115.52 318.427 1113.79 317.344C1112.08 316.248 1110.14 315.7 1107.98 315.7C1105.8 315.7 1103.85 316.248 1102.14 317.344C1100.43 318.427 1099.07 320.027 1098.08 322.145C1097.09 324.25 1096.6 326.841 1096.6 329.919C1096.6 332.997 1097.09 335.594 1098.08 337.712C1099.07 339.817 1100.43 341.417 1102.14 342.513C1103.85 343.596 1105.8 344.138 1107.98 344.138C1110.14 344.138 1112.08 343.596 1113.79 342.513C1115.52 341.417 1116.87 339.817 1117.85 337.712C1118.85 335.594 1119.35 332.997 1119.35 329.919ZM1142.51 348.828V311.01H1148.22V343.916H1165.36V348.828H1142.51ZM1206.59 311.01H1212.31V335.884C1212.31 338.53 1211.69 340.875 1210.45 342.919C1209.2 344.95 1207.45 346.551 1205.2 347.72C1202.95 348.877 1200.31 349.456 1197.28 349.456C1194.26 349.456 1191.63 348.877 1189.38 347.72C1187.12 346.551 1185.37 344.95 1184.13 342.919C1182.89 340.875 1182.27 338.53 1182.27 335.884V311.01H1187.97V335.422C1187.97 337.133 1188.35 338.653 1189.1 339.983C1189.86 341.312 1190.94 342.359 1192.33 343.122C1193.72 343.873 1195.37 344.249 1197.28 344.249C1199.2 344.249 1200.86 343.873 1202.25 343.122C1203.65 342.359 1204.72 341.312 1205.46 339.983C1206.21 338.653 1206.59 337.133 1206.59 335.422V311.01ZM1229.14 315.922V311.01H1258.41V315.922H1246.61V348.828H1240.92V315.922H1229.14ZM1280.98 311.01V348.828H1275.28V311.01H1280.98ZM1332.54 329.919C1332.54 333.957 1331.81 337.429 1330.33 340.334C1328.85 343.227 1326.83 345.455 1324.25 347.018C1321.69 348.57 1318.78 349.345 1315.52 349.345C1312.24 349.345 1309.32 348.57 1306.75 347.018C1304.19 345.455 1302.17 343.221 1300.69 340.315C1299.21 337.41 1298.47 333.945 1298.47 329.919C1298.47 325.881 1299.21 322.416 1300.69 319.523C1302.17 316.617 1304.19 314.389 1306.75 312.838C1309.32 311.275 1312.24 310.493 1315.52 310.493C1318.78 310.493 1321.69 311.275 1324.25 312.838C1326.83 314.389 1328.85 316.617 1330.33 319.523C1331.81 322.416 1332.54 325.881 1332.54 329.919ZM1326.89 329.919C1326.89 326.841 1326.39 324.25 1325.4 322.145C1324.41 320.027 1323.06 318.427 1321.34 317.344C1319.62 316.248 1317.69 315.7 1315.52 315.7C1313.34 315.7 1311.39 316.248 1309.68 317.344C1307.97 318.427 1306.62 320.027 1305.62 322.145C1304.64 324.25 1304.14 326.841 1304.14 329.919C1304.14 332.997 1304.64 335.594 1305.62 337.712C1306.62 339.817 1307.97 341.417 1309.68 342.513C1311.39 343.596 1313.34 344.138 1315.52 344.138C1317.69 344.138 1319.62 343.596 1321.34 342.513C1323.06 341.417 1324.41 339.817 1325.4 337.712C1326.39 335.594 1326.89 332.997 1326.89 329.919ZM1380.58 311.01V348.828H1375.34L1356.11 321.092H1355.76V348.828H1350.06V311.01H1355.34L1374.58 338.783H1374.93V311.01H1380.58ZM1419.93 320.945C1419.74 319.196 1418.92 317.842 1417.49 316.882C1416.07 315.91 1414.27 315.423 1412.1 315.423C1410.55 315.423 1409.21 315.67 1408.08 316.162C1406.94 316.642 1406.06 317.307 1405.44 318.156C1404.82 318.993 1404.51 319.947 1404.51 321.018C1404.51 321.917 1404.72 322.693 1405.14 323.345C1405.57 323.998 1406.13 324.545 1406.82 324.989C1407.52 325.42 1408.27 325.783 1409.07 326.078C1409.87 326.361 1410.64 326.595 1411.38 326.78L1415.08 327.74C1416.28 328.036 1417.52 328.436 1418.79 328.94C1420.06 329.445 1421.23 330.11 1422.31 330.935C1423.4 331.759 1424.27 332.781 1424.94 334C1425.61 335.219 1425.95 336.678 1425.95 338.376C1425.95 340.518 1425.4 342.42 1424.29 344.082C1423.19 345.744 1421.6 347.055 1419.51 348.016C1417.43 348.976 1414.91 349.456 1411.95 349.456C1409.12 349.456 1406.67 349.007 1404.61 348.108C1402.54 347.209 1400.92 345.935 1399.75 344.286C1398.58 342.624 1397.93 340.654 1397.81 338.376H1403.53C1403.65 339.743 1404.09 340.882 1404.86 341.793C1405.65 342.691 1406.66 343.362 1407.87 343.805C1409.1 344.236 1410.45 344.452 1411.92 344.452C1413.53 344.452 1414.96 344.199 1416.22 343.695C1417.49 343.178 1418.49 342.464 1419.21 341.553C1419.94 340.629 1420.3 339.552 1420.3 338.321C1420.3 337.201 1419.98 336.284 1419.34 335.57C1418.71 334.856 1417.86 334.265 1416.77 333.797C1415.7 333.329 1414.49 332.917 1413.14 332.56L1408.67 331.341C1405.64 330.516 1403.24 329.304 1401.47 327.703C1399.71 326.103 1398.83 323.985 1398.83 321.351C1398.83 319.172 1399.42 317.27 1400.6 315.645C1401.78 314.02 1403.38 312.758 1405.4 311.859C1407.42 310.948 1409.7 310.493 1412.23 310.493C1414.79 310.493 1417.05 310.942 1419.01 311.841C1420.98 312.74 1422.53 313.977 1423.66 315.553C1424.79 317.116 1425.39 318.913 1425.43 320.945H1419.93ZM1467.33 348.828V311.01H1480.81C1483.75 311.01 1486.19 311.545 1488.12 312.616C1490.06 313.687 1491.5 315.152 1492.46 317.011C1493.42 318.858 1493.9 320.938 1493.9 323.253C1493.9 325.58 1493.42 327.672 1492.45 329.531C1491.49 331.378 1490.03 332.843 1488.09 333.926C1486.16 334.997 1483.72 335.533 1480.79 335.533H1471.52V330.695H1480.28C1482.14 330.695 1483.64 330.375 1484.8 329.734C1485.96 329.082 1486.81 328.196 1487.35 327.075C1487.89 325.955 1488.16 324.681 1488.16 323.253C1488.16 321.825 1487.89 320.557 1487.35 319.449C1486.81 318.341 1485.95 317.473 1484.78 316.845C1483.63 316.217 1482.1 315.903 1480.2 315.903H1473.04V348.828H1467.33ZM1514.3 311.01L1524.82 341.811H1525.25L1535.78 311.01H1541.94L1528.33 348.828H1521.74L1508.13 311.01H1514.3ZM1555.94 315.922V311.01H1585.21V315.922H1573.41V348.828H1567.72V315.922H1555.94ZM1626.24 348.828V311.01H1631.94V343.916H1649.08V348.828H1626.24ZM1659.2 315.922V311.01H1688.47V315.922H1676.67V348.828H1670.98V315.922H1659.2ZM1717.58 348.828H1705.33V311.01H1717.96C1721.67 311.01 1724.85 311.767 1727.51 313.281C1730.17 314.783 1732.21 316.944 1733.62 319.763C1735.05 322.57 1735.77 325.937 1735.77 329.864C1735.77 333.803 1735.05 337.188 1733.61 340.02C1732.18 342.851 1730.11 345.03 1727.4 346.557C1724.69 348.071 1721.42 348.828 1717.58 348.828ZM1711.04 343.842H1717.26C1720.14 343.842 1722.54 343.301 1724.45 342.217C1726.35 341.122 1727.78 339.54 1728.73 337.472C1729.68 335.391 1730.15 332.855 1730.15 329.864C1730.15 326.897 1729.68 324.379 1728.73 322.311C1727.79 320.243 1726.4 318.673 1724.54 317.602C1722.68 316.531 1720.37 315.996 1717.61 315.996H1711.04V343.842Z" fill="white"/>
</svg>
