<svg width="512" height="400" viewBox="0 0 512 400" fill="none" xmlns="http://www.w3.org/2000/svg">
<circle cx="259.449" cy="279.941" r="73.2064" fill="#3B3A3A"/>
<path d="M250.435 251.326V277.973H244.962V251.326H250.435ZM266.943 251.326V277.973H261.471V251.326H266.943ZM275.142 251.326V255.626H253.399V251.326H275.142Z" fill="white"/>
<path d="M229.918 297.835H231.628C231.594 298.396 231.439 298.893 231.165 299.328C230.894 299.763 230.515 300.102 230.027 300.346C229.542 300.59 228.959 300.712 228.277 300.712C227.743 300.712 227.264 300.621 226.841 300.438C226.418 300.251 226.056 299.984 225.754 299.637C225.457 299.29 225.23 298.87 225.074 298.379C224.917 297.887 224.839 297.336 224.839 296.726V296.148C224.839 295.538 224.919 294.987 225.079 294.495C225.243 294 225.476 293.578 225.777 293.231C226.082 292.884 226.446 292.617 226.87 292.431C227.293 292.244 227.766 292.15 228.288 292.15C228.982 292.15 229.567 292.276 230.044 292.528C230.524 292.779 230.896 293.126 231.159 293.569C231.426 294.011 231.586 294.514 231.639 295.079H229.924C229.905 294.743 229.838 294.459 229.724 294.226C229.609 293.99 229.436 293.813 229.203 293.695C228.974 293.573 228.669 293.512 228.288 293.512C228.002 293.512 227.752 293.565 227.539 293.672C227.325 293.778 227.146 293.94 227.001 294.158C226.856 294.375 226.748 294.65 226.675 294.981C226.607 295.309 226.572 295.694 226.572 296.137V296.726C226.572 297.157 226.605 297.536 226.669 297.864C226.734 298.188 226.833 298.462 226.967 298.687C227.104 298.909 227.279 299.076 227.493 299.191C227.71 299.301 227.972 299.357 228.277 299.357C228.635 299.357 228.93 299.299 229.163 299.185C229.396 299.071 229.573 298.901 229.695 298.676C229.821 298.451 229.895 298.171 229.918 297.835ZM239.595 296.24V296.634C239.595 297.267 239.509 297.835 239.338 298.339C239.166 298.842 238.924 299.271 238.611 299.625C238.299 299.976 237.925 300.245 237.49 300.432C237.059 300.619 236.581 300.712 236.055 300.712C235.532 300.712 235.054 300.619 234.619 300.432C234.188 300.245 233.815 299.976 233.498 299.625C233.182 299.271 232.936 298.842 232.76 298.339C232.589 297.835 232.503 297.267 232.503 296.634V296.24C232.503 295.603 232.589 295.035 232.76 294.535C232.932 294.032 233.174 293.603 233.487 293.248C233.803 292.894 234.177 292.623 234.608 292.436C235.042 292.249 235.521 292.156 236.043 292.156C236.569 292.156 237.048 292.249 237.479 292.436C237.913 292.623 238.287 292.894 238.6 293.248C238.916 293.603 239.16 294.032 239.332 294.535C239.507 295.035 239.595 295.603 239.595 296.24ZM237.862 296.634V296.228C237.862 295.786 237.822 295.397 237.742 295.061C237.662 294.726 237.544 294.444 237.387 294.215C237.231 293.986 237.04 293.815 236.815 293.7C236.59 293.582 236.333 293.523 236.043 293.523C235.754 293.523 235.496 293.582 235.271 293.7C235.05 293.815 234.861 293.986 234.705 294.215C234.552 294.444 234.436 294.726 234.356 295.061C234.276 295.397 234.236 295.786 234.236 296.228V296.634C234.236 297.073 234.276 297.462 234.356 297.801C234.436 298.136 234.554 298.421 234.711 298.653C234.867 298.882 235.058 299.055 235.283 299.174C235.508 299.292 235.765 299.351 236.055 299.351C236.344 299.351 236.602 299.292 236.827 299.174C237.052 299.055 237.241 298.882 237.393 298.653C237.546 298.421 237.662 298.136 237.742 297.801C237.822 297.462 237.862 297.073 237.862 296.634ZM247.608 292.27V300.598H245.892L242.546 295.016V300.598H240.83V292.27H242.546L245.898 297.858V292.27H247.608ZM253.436 298.419C253.436 298.27 253.413 298.136 253.367 298.018C253.325 297.896 253.245 297.786 253.127 297.687C253.008 297.584 252.843 297.483 252.629 297.383C252.416 297.284 252.139 297.181 251.8 297.075C251.422 296.953 251.064 296.815 250.725 296.663C250.389 296.51 250.092 296.333 249.832 296.131C249.577 295.925 249.375 295.687 249.226 295.416C249.081 295.145 249.009 294.831 249.009 294.472C249.009 294.125 249.085 293.811 249.238 293.529C249.39 293.243 249.604 292.999 249.878 292.797C250.153 292.591 250.477 292.432 250.85 292.322C251.228 292.211 251.642 292.156 252.092 292.156C252.705 292.156 253.241 292.267 253.699 292.488C254.156 292.709 254.511 293.012 254.762 293.397C255.018 293.782 255.146 294.223 255.146 294.718H253.441C253.441 294.474 253.39 294.261 253.287 294.078C253.188 293.891 253.035 293.744 252.829 293.637C252.627 293.531 252.372 293.477 252.063 293.477C251.766 293.477 251.518 293.523 251.319 293.614C251.121 293.702 250.972 293.822 250.873 293.975C250.774 294.123 250.725 294.291 250.725 294.478C250.725 294.619 250.759 294.747 250.828 294.861C250.9 294.976 251.007 295.082 251.148 295.182C251.289 295.281 251.462 295.374 251.668 295.462C251.874 295.549 252.112 295.635 252.383 295.719C252.837 295.856 253.235 296.011 253.579 296.182C253.925 296.354 254.215 296.547 254.448 296.76C254.68 296.974 254.856 297.216 254.974 297.486C255.092 297.757 255.151 298.064 255.151 298.407C255.151 298.769 255.081 299.093 254.94 299.379C254.799 299.665 254.595 299.908 254.328 300.106C254.061 300.304 253.742 300.455 253.373 300.558C253.003 300.661 252.589 300.712 252.132 300.712C251.72 300.712 251.314 300.659 250.913 300.552C250.513 300.441 250.149 300.275 249.821 300.054C249.497 299.833 249.238 299.551 249.043 299.208C248.849 298.865 248.751 298.459 248.751 297.99H250.473C250.473 298.249 250.513 298.468 250.593 298.647C250.673 298.827 250.786 298.971 250.931 299.082C251.079 299.193 251.255 299.273 251.457 299.322C251.663 299.372 251.888 299.397 252.132 299.397C252.429 299.397 252.673 299.355 252.864 299.271C253.058 299.187 253.201 299.071 253.293 298.922C253.388 298.773 253.436 298.605 253.436 298.419ZM260.916 292.27H262.626V297.772C262.626 298.413 262.489 298.952 262.215 299.391C261.944 299.829 261.568 300.159 261.088 300.38C260.611 300.601 260.062 300.712 259.441 300.712C258.819 300.712 258.266 300.601 257.782 300.38C257.302 300.159 256.924 299.829 256.65 299.391C256.379 298.952 256.244 298.413 256.244 297.772V292.27H257.959V297.772C257.959 298.146 258.019 298.451 258.137 298.687C258.255 298.924 258.425 299.097 258.646 299.208C258.871 299.318 259.136 299.374 259.441 299.374C259.753 299.374 260.018 299.318 260.236 299.208C260.457 299.097 260.625 298.924 260.739 298.687C260.857 298.451 260.916 298.146 260.916 297.772V292.27ZM269.392 299.259V300.598H265.2V299.259H269.392ZM265.755 292.27V300.598H264.039V292.27H265.755ZM272.795 292.27V300.598H271.085V292.27H272.795ZM275.357 292.27V293.614H268.563V292.27H275.357ZM278.16 292.27V300.598H276.45V292.27H278.16ZM286.544 292.27V300.598H284.829L281.483 295.016V300.598H279.767V292.27H281.483L284.834 297.858V292.27H286.544ZM294.637 296.245V299.545C294.507 299.702 294.307 299.871 294.037 300.054C293.766 300.234 293.417 300.388 292.99 300.518C292.563 300.647 292.046 300.712 291.44 300.712C290.902 300.712 290.412 300.624 289.97 300.449C289.528 300.27 289.147 300.009 288.826 299.665C288.51 299.322 288.266 298.903 288.094 298.407C287.923 297.908 287.837 297.338 287.837 296.697V296.177C287.837 295.536 287.919 294.966 288.083 294.467C288.251 293.967 288.489 293.546 288.798 293.203C289.107 292.86 289.474 292.598 289.901 292.419C290.329 292.24 290.803 292.15 291.326 292.15C292.05 292.15 292.645 292.269 293.11 292.505C293.575 292.737 293.93 293.062 294.174 293.477C294.422 293.889 294.574 294.362 294.631 294.896H292.967C292.925 294.613 292.845 294.367 292.727 294.158C292.609 293.948 292.439 293.784 292.218 293.666C292 293.548 291.718 293.489 291.371 293.489C291.085 293.489 290.83 293.548 290.605 293.666C290.384 293.78 290.197 293.95 290.044 294.175C289.892 294.4 289.776 294.678 289.696 295.01C289.616 295.342 289.575 295.727 289.575 296.165V296.697C289.575 297.132 289.617 297.517 289.701 297.852C289.785 298.184 289.909 298.464 290.073 298.693C290.241 298.918 290.447 299.088 290.691 299.202C290.935 299.317 291.219 299.374 291.543 299.374C291.814 299.374 292.039 299.351 292.218 299.305C292.401 299.259 292.548 299.204 292.658 299.139C292.773 299.071 292.86 299.006 292.921 298.945V297.469H291.354V296.245H294.637Z" fill="white"/>
<g filter="url(#filter0_d_3194_13687)">
<path d="M58.742 279.82L56.4772 286.723H54.6528L57.7469 278.395H58.9079L58.742 279.82ZM60.6237 286.723L58.3531 279.82L58.1701 278.395H59.3425L62.4538 286.723H60.6237ZM60.5207 283.623V284.967H56.1226V283.623H60.5207ZM67.95 283.96H69.6601C69.6258 284.521 69.4713 285.018 69.1968 285.453C68.9261 285.888 68.5467 286.227 68.0587 286.471C67.5745 286.715 66.9911 286.837 66.3086 286.837C65.7748 286.837 65.2963 286.746 64.8731 286.563C64.4498 286.376 64.0876 286.109 63.7864 285.762C63.489 285.415 63.2621 284.995 63.1058 284.504C62.9495 284.012 62.8713 283.461 62.8713 282.851V282.273C62.8713 281.663 62.9514 281.112 63.1115 280.62C63.2755 280.125 63.5081 279.703 63.8093 279.356C64.1143 279.009 64.4784 278.742 64.9017 278.556C65.3249 278.369 65.7977 278.275 66.32 278.275C67.014 278.275 67.5992 278.401 68.0758 278.653C68.5563 278.904 68.928 279.251 69.1911 279.694C69.458 280.136 69.6181 280.639 69.6715 281.204H67.9557C67.9367 280.868 67.8699 280.584 67.7556 280.351C67.6412 280.115 67.4677 279.938 67.2351 279.82C67.0063 279.698 66.7013 279.637 66.32 279.637C66.0341 279.637 65.7843 279.69 65.5708 279.797C65.3573 279.903 65.1781 280.065 65.0332 280.283C64.8883 280.5 64.7796 280.775 64.7072 281.106C64.6386 281.434 64.6043 281.819 64.6043 282.262V282.851C64.6043 283.282 64.6367 283.661 64.7015 283.989C64.7663 284.313 64.8654 284.587 64.9989 284.812C65.1361 285.034 65.3115 285.201 65.5251 285.316C65.7424 285.426 66.0036 285.482 66.3086 285.482C66.667 285.482 66.9625 285.424 67.1951 285.31C67.4277 285.196 67.605 285.026 67.727 284.801C67.8528 284.576 67.9271 284.296 67.95 283.96ZM75.6138 283.96H77.3239C77.2896 284.521 77.1351 285.018 76.8606 285.453C76.5899 285.888 76.2105 286.227 75.7225 286.471C75.2382 286.715 74.6549 286.837 73.9724 286.837C73.4386 286.837 72.9601 286.746 72.5369 286.563C72.1136 286.376 71.7514 286.109 71.4502 285.762C71.1528 285.415 70.9259 284.995 70.7696 284.504C70.6133 284.012 70.5351 283.461 70.5351 282.851V282.273C70.5351 281.663 70.6152 281.112 70.7753 280.62C70.9393 280.125 71.1719 279.703 71.4731 279.356C71.7781 279.009 72.1422 278.742 72.5655 278.556C72.9887 278.369 73.4615 278.275 73.9838 278.275C74.6778 278.275 75.263 278.401 75.7396 278.653C76.2201 278.904 76.5918 279.251 76.8549 279.694C77.1218 280.136 77.2819 280.639 77.3353 281.204H75.6195C75.6005 280.868 75.5337 280.584 75.4194 280.351C75.305 280.115 75.1315 279.938 74.8989 279.82C74.6701 279.698 74.3651 279.637 73.9838 279.637C73.6979 279.637 73.4481 279.69 73.2346 279.797C73.0211 279.903 72.8419 280.065 72.697 280.283C72.5521 280.5 72.4434 280.775 72.371 281.106C72.3024 281.434 72.268 281.819 72.268 282.262V282.851C72.268 283.282 72.3005 283.661 72.3653 283.989C72.4301 284.313 72.5292 284.587 72.6627 284.812C72.7999 285.034 72.9753 285.201 73.1888 285.316C73.4062 285.426 73.6674 285.482 73.9724 285.482C74.3308 285.482 74.6263 285.424 74.8589 285.31C75.0915 285.196 75.2688 285.026 75.3908 284.801C75.5166 284.576 75.5909 284.296 75.6138 283.96ZM84.0383 285.384V286.723H79.6059V285.384H84.0383ZM80.1663 278.395V286.723H78.4506V278.395H80.1663ZM83.4606 281.787V283.091H79.6059V281.787H83.4606ZM84.0326 278.395V279.739H79.6059V278.395H84.0326ZM89.3743 284.544C89.3743 284.395 89.3515 284.261 89.3057 284.143C89.2638 284.021 89.1837 283.911 89.0655 283.812C88.9473 283.709 88.7814 283.608 88.5679 283.508C88.3544 283.409 88.078 283.306 87.7386 283.2C87.3612 283.078 87.0028 282.94 86.6634 282.788C86.3279 282.635 86.0305 282.458 85.7712 282.256C85.5157 282.05 85.3137 281.812 85.165 281.541C85.0201 281.27 84.9476 280.956 84.9476 280.597C84.9476 280.25 85.0239 279.936 85.1764 279.654C85.3289 279.368 85.5424 279.124 85.817 278.922C86.0915 278.716 86.4156 278.557 86.7892 278.447C87.1667 278.336 87.5804 278.281 88.0303 278.281C88.6442 278.281 89.1799 278.392 89.6374 278.613C90.095 278.834 90.4496 279.137 90.7012 279.522C90.9567 279.907 91.0844 280.348 91.0844 280.843H89.3801C89.3801 280.599 89.3286 280.386 89.2256 280.203C89.1265 280.016 88.974 279.869 88.7681 279.762C88.566 279.656 88.3106 279.602 88.0017 279.602C87.7043 279.602 87.4565 279.648 87.2582 279.739C87.0599 279.827 86.9112 279.947 86.8121 280.1C86.713 280.248 86.6634 280.416 86.6634 280.603C86.6634 280.744 86.6977 280.872 86.7664 280.986C86.8388 281.101 86.9456 281.207 87.0866 281.307C87.2277 281.406 87.4012 281.499 87.6071 281.587C87.813 281.674 88.0513 281.76 88.322 281.844C88.7757 281.981 89.1742 282.136 89.5173 282.307C89.8643 282.479 90.1541 282.672 90.3866 282.885C90.6192 283.099 90.7946 283.341 90.9128 283.611C91.031 283.882 91.0901 284.189 91.0901 284.532C91.0901 284.894 91.0196 285.218 90.8785 285.504C90.7374 285.79 90.5334 286.033 90.2665 286.231C89.9996 286.429 89.6813 286.58 89.3114 286.683C88.9416 286.786 88.5279 286.837 88.0703 286.837C87.6586 286.837 87.2525 286.784 86.8521 286.677C86.4518 286.566 86.0877 286.4 85.7598 286.179C85.4357 285.958 85.1764 285.676 84.9819 285.333C84.7875 284.99 84.6903 284.584 84.6903 284.115H86.4118C86.4118 284.374 86.4518 284.593 86.5319 284.772C86.6119 284.952 86.7244 285.096 86.8693 285.207C87.018 285.318 87.1934 285.398 87.3955 285.447C87.6014 285.497 87.8263 285.522 88.0703 285.522C88.3677 285.522 88.6118 285.48 88.8024 285.396C88.9969 285.312 89.1398 285.196 89.2314 285.047C89.3267 284.898 89.3743 284.73 89.3743 284.544ZM96.592 284.544C96.592 284.395 96.5692 284.261 96.5234 284.143C96.4815 284.021 96.4014 283.911 96.2832 283.812C96.165 283.709 95.9991 283.608 95.7856 283.508C95.5721 283.409 95.2957 283.306 94.9563 283.2C94.5789 283.078 94.2204 282.94 93.8811 282.788C93.5456 282.635 93.2482 282.458 92.9889 282.256C92.7334 282.05 92.5314 281.812 92.3827 281.541C92.2378 281.27 92.1653 280.956 92.1653 280.597C92.1653 280.25 92.2416 279.936 92.3941 279.654C92.5466 279.368 92.7601 279.124 93.0347 278.922C93.3092 278.716 93.6333 278.557 94.0069 278.447C94.3844 278.336 94.7981 278.281 95.248 278.281C95.8619 278.281 96.3976 278.392 96.8551 278.613C97.3127 278.834 97.6673 279.137 97.9189 279.522C98.1744 279.907 98.3021 280.348 98.3021 280.843H96.5978C96.5978 280.599 96.5463 280.386 96.4433 280.203C96.3442 280.016 96.1917 279.869 95.9858 279.762C95.7837 279.656 95.5283 279.602 95.2194 279.602C94.922 279.602 94.6742 279.648 94.4759 279.739C94.2776 279.827 94.1289 279.947 94.0298 280.1C93.9307 280.248 93.8811 280.416 93.8811 280.603C93.8811 280.744 93.9154 280.872 93.9841 280.986C94.0565 281.101 94.1633 281.207 94.3043 281.307C94.4454 281.406 94.6189 281.499 94.8248 281.587C95.0307 281.674 95.269 281.76 95.5397 281.844C95.9934 281.981 96.3919 282.136 96.735 282.307C97.082 282.479 97.3718 282.672 97.6043 282.885C97.8369 283.099 98.0123 283.341 98.1305 283.611C98.2487 283.882 98.3078 284.189 98.3078 284.532C98.3078 284.894 98.2373 285.218 98.0962 285.504C97.9551 285.79 97.7511 286.033 97.4842 286.231C97.2173 286.429 96.899 286.58 96.5291 286.683C96.1593 286.786 95.7456 286.837 95.288 286.837C94.8763 286.837 94.4702 286.784 94.0698 286.677C93.6695 286.566 93.3054 286.4 92.9775 286.179C92.6534 285.958 92.3941 285.676 92.1996 285.333C92.0052 284.99 91.908 284.584 91.908 284.115H93.6295C93.6295 284.374 93.6695 284.593 93.7496 284.772C93.8296 284.952 93.9421 285.096 94.087 285.207C94.2357 285.318 94.4111 285.398 94.6132 285.447C94.8191 285.497 95.044 285.522 95.288 285.522C95.5854 285.522 95.8295 285.48 96.0201 285.396C96.2146 285.312 96.3575 285.196 96.4491 285.047C96.5444 284.898 96.592 284.73 96.592 284.544Z" fill="white"/>
<circle cx="76.1345" cy="232.802" r="36.6032" fill="#3B3A3A"/>
<g clip-path="url(#clip0_3194_13687)">
<path d="M60.193 239.783L69.1494 248.74L92.0464 225.851L83.0815 216.886L60.193 239.783ZM54.2221 253.716C54.0248 254.513 54.4194 254.908 55.2173 254.711L67.1591 250.73L58.2027 241.774L54.2221 253.716ZM96.027 212.906C92.055 208.925 88.0658 211.911 88.0658 211.911C87.4138 212.408 85.0803 214.896 85.0803 214.896L94.0367 223.853C94.0367 223.853 96.516 221.519 97.0221 220.867C97.0221 220.867 100.008 216.895 96.027 212.906Z" fill="white"/>
</g>
</g>
<g filter="url(#filter1_d_3194_13687)">
<path d="M138.822 200.582H136.7V199.244H138.822C139.15 199.244 139.417 199.191 139.623 199.084C139.829 198.973 139.98 198.821 140.075 198.627C140.17 198.432 140.218 198.213 140.218 197.969C140.218 197.721 140.17 197.49 140.075 197.277C139.98 197.063 139.829 196.892 139.623 196.762C139.417 196.632 139.15 196.568 138.822 196.568H137.295V203.551H135.58V195.224H138.822C139.474 195.224 140.033 195.342 140.498 195.578C140.967 195.811 141.325 196.133 141.573 196.545C141.821 196.956 141.945 197.427 141.945 197.957C141.945 198.495 141.821 198.96 141.573 199.353C141.325 199.746 140.967 200.049 140.498 200.262C140.033 200.476 139.474 200.582 138.822 200.582ZM148.482 202.212V203.551H144.29V202.212H148.482ZM144.845 195.224V203.551H143.129V195.224H144.845ZM152.966 196.648L150.701 203.551H148.877L151.971 195.224H153.132L152.966 196.648ZM154.848 203.551L152.577 196.648L152.394 195.224H153.567L156.678 203.551H154.848ZM154.745 200.451V201.795H150.347V200.451H154.745ZM164.227 195.224V203.551H162.511L159.166 197.969V203.551H157.45V195.224H159.166L162.517 200.811V195.224H164.227Z" fill="white"/>
<circle cx="149.634" cy="149.627" r="36.6032" fill="#3B3A3A"/>
<path d="M131.33 129.496H133.16V131.326H131.33V129.496ZM133.16 131.326H134.99V133.156H133.16V131.326ZM134.99 133.156H136.821V134.987H134.99V133.156ZM129.5 156.949H131.33V158.779H129.5V156.949ZM131.33 155.118H133.16V156.949H131.33V155.118ZM133.16 153.288H134.99V155.118H133.16V153.288ZM167.933 156.949H169.764V158.779H167.933V156.949ZM166.103 155.118H167.933V156.949H166.103V155.118ZM164.273 153.288H166.103V155.118H164.273V153.288ZM166.103 129.496H167.933V131.326H166.103V129.496ZM164.273 131.326H166.103V133.156H164.273V131.326ZM162.443 133.156H164.273V134.987H162.443V133.156ZM129.5 142.307H133.16V144.137H129.5V142.307ZM155.122 160.609V166.099H153.292V167.929H151.462V169.76H147.802V167.929H145.971V166.099H144.141V160.609H155.122ZM162.443 136.817H160.613V134.987H158.783V133.156H156.952V131.326H153.292V129.496H145.971V131.326H142.311V133.156H140.481V134.987H138.651V136.817H136.821V140.477H134.99V147.798H136.821V151.458H138.651V153.288H140.481V155.118H142.311V156.949H144.141V158.779H155.122V156.949H156.952V155.118H158.783V153.288H160.613V151.458H162.443V147.798H164.273V140.477H162.443V136.817ZM140.481 140.477H142.311V138.647H144.141V136.817H145.971V134.987H151.462V136.817H145.971V138.647H144.141V140.477H142.311V144.137H140.481V140.477ZM166.103 142.307H169.764V144.137H166.103V142.307Z" fill="white"/>
</g>
<g filter="url(#filter2_d_3194_13687)">
<path d="M228.934 149.837V158.164H227.224V149.837H228.934ZM231.324 149.837H232.777L234.916 155.951L237.055 149.837H238.508L235.5 158.164H234.333L231.324 149.837ZM230.541 149.837H231.988L232.251 155.796V158.164H230.541V149.837ZM237.844 149.837H239.297V158.164H237.581V155.796L237.844 149.837ZM244.044 155.196H241.922V153.857H244.044C244.372 153.857 244.639 153.804 244.845 153.697C245.051 153.587 245.201 153.434 245.297 153.24C245.392 153.045 245.44 152.826 245.44 152.582C245.44 152.334 245.392 152.104 245.297 151.89C245.201 151.677 245.051 151.505 244.845 151.375C244.639 151.246 244.372 151.181 244.044 151.181H242.517V158.164H240.801V149.837H244.044C244.696 149.837 245.255 149.955 245.72 150.191C246.189 150.424 246.547 150.746 246.795 151.158C247.043 151.57 247.167 152.041 247.167 152.571C247.167 153.108 247.043 153.573 246.795 153.966C246.547 154.359 246.189 154.662 245.72 154.875C245.255 155.089 244.696 155.196 244.044 155.196ZM253.704 156.826V158.164H249.512V156.826H253.704ZM250.066 149.837V158.164H248.351V149.837H250.066ZM260.275 156.826V158.164H255.843V156.826H260.275ZM256.403 149.837V158.164H254.688V149.837H256.403ZM259.698 153.228V154.532H255.843V153.228H259.698ZM260.27 149.837V151.181H255.843V149.837H260.27ZM262.06 149.837H263.512L265.651 155.951L267.79 149.837H269.243L266.235 158.164H265.068L262.06 149.837ZM261.276 149.837H262.723L262.986 155.796V158.164H261.276V149.837ZM268.58 149.837H270.032V158.164H268.317V155.796L268.58 149.837ZM277.124 156.826V158.164H272.692V156.826H277.124ZM273.252 149.837V158.164H271.537V149.837H273.252ZM276.547 153.228V154.532H272.692V153.228H276.547ZM277.119 149.837V151.181H272.692V149.837H277.119ZM284.902 149.837V158.164H283.187L279.841 152.582V158.164H278.125V149.837H279.841L283.192 155.425V149.837H284.902ZM289.947 149.837V158.164H288.237V149.837H289.947ZM292.509 149.837V151.181H285.715V149.837H292.509Z" fill="white"/>
<circle cx="259.431" cy="104.236" r="36.6032" fill="#3B3A3A"/>
<path d="M266.757 85.9375C268.157 85.9374 269.505 86.4725 270.524 87.4333C271.543 88.394 272.156 89.7078 272.238 91.1059L272.247 91.428V117.05C272.247 118.451 271.712 119.798 270.751 120.817C269.791 121.836 268.477 122.449 267.079 122.532L266.757 122.541H252.115C250.715 122.541 249.367 122.006 248.349 121.045C247.33 120.084 246.716 118.77 246.634 117.372L246.625 117.05V91.428C246.625 90.0275 247.16 88.68 248.121 87.661C249.082 86.6421 250.395 86.0288 251.793 85.9467L252.115 85.9375H266.757ZM259.436 111.56C258.988 111.56 258.555 111.724 258.22 112.022C257.885 112.32 257.671 112.731 257.619 113.176L257.606 113.39L257.619 113.622C257.672 114.067 257.886 114.477 258.221 114.775C258.556 115.072 258.988 115.236 259.436 115.236C259.884 115.236 260.316 115.072 260.651 114.775C260.986 114.477 261.201 114.067 261.253 113.622L261.266 113.408L261.253 113.176C261.201 112.731 260.987 112.32 260.652 112.022C260.317 111.724 259.884 111.56 259.436 111.56ZM261.266 89.5978H257.606L257.392 89.6106C256.947 89.6635 256.537 89.8778 256.24 90.2127C255.942 90.5476 255.778 90.98 255.778 91.428C255.778 91.8759 255.942 92.3083 256.24 92.6433C256.537 92.9782 256.947 93.1924 257.392 93.2453L257.606 93.2581H261.266L261.48 93.2453C261.925 93.1924 262.335 92.9782 262.633 92.6433C262.93 92.3083 263.094 91.8759 263.094 91.428C263.094 90.98 262.93 90.5476 262.633 90.2127C262.335 89.8778 261.925 89.6635 261.48 89.6106L261.266 89.5978Z" fill="white"/>
</g>
<g filter="url(#filter3_d_3194_13687)">
<path d="M359.706 196.985V205.312H357.996V196.985H359.706ZM362.269 196.985V198.329H355.474V196.985H362.269ZM368.834 203.974V205.312H364.402V203.974H368.834ZM364.962 196.985V205.312H363.247V196.985H364.962ZM368.257 200.377V201.681H364.402V200.377H368.257ZM368.829 196.985V198.329H364.402V196.985H368.829ZM374.17 203.133C374.17 202.985 374.148 202.851 374.102 202.733C374.06 202.611 373.98 202.501 373.862 202.401C373.743 202.298 373.577 202.197 373.364 202.098C373.15 201.999 372.874 201.896 372.535 201.789C372.157 201.667 371.799 201.53 371.459 201.378C371.124 201.225 370.827 201.048 370.567 200.846C370.312 200.64 370.11 200.402 369.961 200.131C369.816 199.86 369.744 199.546 369.744 199.187C369.744 198.84 369.82 198.526 369.972 198.244C370.125 197.958 370.338 197.714 370.613 197.511C370.888 197.306 371.212 197.147 371.585 197.037C371.963 196.926 372.376 196.871 372.826 196.871C373.44 196.871 373.976 196.981 374.433 197.203C374.891 197.424 375.246 197.727 375.497 198.112C375.753 198.497 375.88 198.937 375.88 199.433H374.176C374.176 199.189 374.125 198.976 374.022 198.793C373.923 198.606 373.77 198.459 373.564 198.352C373.362 198.245 373.107 198.192 372.798 198.192C372.5 198.192 372.253 198.238 372.054 198.329C371.856 198.417 371.707 198.537 371.608 198.69C371.509 198.838 371.459 199.006 371.459 199.193C371.459 199.334 371.494 199.462 371.562 199.576C371.635 199.69 371.742 199.797 371.883 199.896C372.024 199.996 372.197 200.089 372.403 200.177C372.609 200.264 372.847 200.35 373.118 200.434C373.572 200.571 373.97 200.726 374.313 200.897C374.66 201.069 374.95 201.261 375.183 201.475C375.415 201.688 375.591 201.931 375.709 202.201C375.827 202.472 375.886 202.779 375.886 203.122C375.886 203.484 375.816 203.808 375.675 204.094C375.533 204.38 375.329 204.622 375.063 204.821C374.796 205.019 374.477 205.17 374.107 205.272C373.738 205.375 373.324 205.427 372.866 205.427C372.455 205.427 372.049 205.374 371.648 205.267C371.248 205.156 370.884 204.99 370.556 204.769C370.232 204.548 369.972 204.266 369.778 203.923C369.584 203.58 369.486 203.173 369.486 202.705H371.208C371.208 202.964 371.248 203.183 371.328 203.362C371.408 203.541 371.52 203.686 371.665 203.797C371.814 203.907 371.989 203.988 372.192 204.037C372.397 204.087 372.622 204.111 372.866 204.111C373.164 204.111 373.408 204.07 373.598 203.986C373.793 203.902 373.936 203.785 374.027 203.637C374.123 203.488 374.17 203.32 374.17 203.133ZM380.776 196.985V205.312H379.066V196.985H380.776ZM383.338 196.985V198.329H376.544V196.985H383.338Z" fill="white"/>
<circle cx="369.259" cy="151.384" r="36.6032" fill="#3B3A3A"/>
<path d="M364.227 169.689L363.495 163.833C363.099 163.68 362.725 163.497 362.375 163.284C362.025 163.07 361.682 162.841 361.345 162.597L355.9 164.885L350.867 156.192L355.58 152.623C355.549 152.409 355.534 152.204 355.534 152.006V150.771C355.534 150.572 355.549 150.366 355.58 150.152L350.867 146.583L355.9 137.89L361.345 140.178C361.68 139.934 362.031 139.705 362.397 139.492C362.763 139.278 363.129 139.095 363.495 138.942L364.227 133.086H374.293L375.025 138.942C375.422 139.095 375.796 139.278 376.147 139.492C376.499 139.705 376.841 139.934 377.176 140.178L382.62 137.89L387.653 146.583L382.941 150.152C382.971 150.366 382.987 150.572 382.987 150.771V152.004C382.987 152.203 382.956 152.409 382.895 152.623L387.608 156.192L382.575 164.885L377.176 162.597C376.84 162.841 376.489 163.07 376.123 163.284C375.757 163.497 375.391 163.68 375.025 163.833L374.293 169.689H364.227ZM369.352 157.793C371.121 157.793 372.631 157.168 373.881 155.917C375.132 154.667 375.757 153.157 375.757 151.388C375.757 149.618 375.132 148.109 373.881 146.858C372.631 145.607 371.121 144.982 369.352 144.982C367.552 144.982 366.034 145.607 364.798 146.858C363.562 148.109 362.945 149.618 362.946 151.388C362.947 153.157 363.565 154.667 364.8 155.917C366.035 157.168 367.552 157.793 369.352 157.793Z" fill="white"/>
</g>
<g filter="url(#filter4_d_3194_13687)">
<path d="M415.788 281.787V283.125H411.441V281.787H415.788ZM411.95 278.395V286.723H410.234V278.395H411.95ZM417.012 278.395V286.723H415.302V278.395H417.012ZM421.993 279.82L419.728 286.723H417.904L420.998 278.395H422.159L421.993 279.82ZM423.875 286.723L421.604 279.82L421.421 278.395H422.594L425.705 286.723H423.875ZM423.772 283.623V284.967H419.374V283.623H423.772ZM433.254 278.395V286.723H431.539L428.193 281.141V286.723H426.477V278.395H428.193L431.544 283.983V278.395H433.254ZM437.304 286.723H435.491L435.502 285.384H437.304C437.754 285.384 438.133 285.283 438.442 285.081C438.751 284.875 438.983 284.576 439.14 284.183C439.3 283.791 439.38 283.316 439.38 282.759V282.353C439.38 281.926 439.334 281.551 439.243 281.226C439.155 280.902 439.023 280.63 438.848 280.409C438.673 280.187 438.457 280.022 438.202 279.911C437.946 279.797 437.653 279.739 437.321 279.739H435.456V278.395H437.321C437.878 278.395 438.387 278.491 438.848 278.681C439.313 278.868 439.715 279.137 440.055 279.488C440.394 279.839 440.655 280.258 440.838 280.746C441.025 281.23 441.118 281.77 441.118 282.365V282.759C441.118 283.35 441.025 283.89 440.838 284.378C440.655 284.866 440.394 285.285 440.055 285.636C439.719 285.983 439.317 286.252 438.848 286.442C438.383 286.629 437.868 286.723 437.304 286.723ZM436.463 278.395V286.723H434.747V278.395H436.463ZM448.428 282.502V283.794H445.196V282.502H448.428ZM459.66 282.365V282.759C459.66 283.392 459.574 283.96 459.403 284.464C459.231 284.967 458.989 285.396 458.677 285.75C458.364 286.101 457.99 286.37 457.556 286.557C457.125 286.744 456.646 286.837 456.12 286.837C455.598 286.837 455.119 286.744 454.685 286.557C454.254 286.37 453.88 286.101 453.564 285.75C453.247 285.396 453.001 284.967 452.826 284.464C452.654 283.96 452.568 283.392 452.568 282.759V282.365C452.568 281.728 452.654 281.16 452.826 280.66C452.997 280.157 453.239 279.728 453.552 279.373C453.869 279.019 454.242 278.748 454.673 278.561C455.108 278.374 455.586 278.281 456.109 278.281C456.635 278.281 457.113 278.374 457.544 278.561C457.979 278.748 458.352 279.019 458.665 279.373C458.982 279.728 459.226 280.157 459.397 280.66C459.573 281.16 459.66 281.728 459.66 282.365ZM457.927 282.759V282.353C457.927 281.911 457.887 281.522 457.807 281.186C457.727 280.851 457.609 280.569 457.453 280.34C457.296 280.111 457.106 279.94 456.881 279.825C456.656 279.707 456.398 279.648 456.109 279.648C455.819 279.648 455.561 279.707 455.337 279.825C455.115 279.94 454.927 280.111 454.77 280.34C454.618 280.569 454.502 280.851 454.421 281.186C454.341 281.522 454.301 281.911 454.301 282.353V282.759C454.301 283.198 454.341 283.587 454.421 283.926C454.502 284.261 454.62 284.546 454.776 284.778C454.932 285.007 455.123 285.18 455.348 285.299C455.573 285.417 455.83 285.476 456.12 285.476C456.41 285.476 456.667 285.417 456.892 285.299C457.117 285.18 457.306 285.007 457.458 284.778C457.611 284.546 457.727 284.261 457.807 283.926C457.887 283.587 457.927 283.198 457.927 282.759ZM462.611 278.395V286.723H460.896V278.395H462.611ZM465.929 281.953V283.291H462.142V281.953H465.929ZM466.329 278.395V279.739H462.142V278.395H466.329ZM469.04 278.395V286.723H467.324V278.395H469.04ZM472.357 281.953V283.291H468.571V281.953H472.357ZM472.757 278.395V279.739H468.571V278.395H472.757Z" fill="white"/>
<circle cx="442.174" cy="232.802" r="36.6032" fill="#3B3A3A"/>
<path d="M460.478 224.625V241.947C460.478 243.348 459.943 244.695 458.982 245.714C458.022 246.733 456.708 247.347 455.31 247.429L454.988 247.438H429.365C427.965 247.438 426.617 246.903 425.599 245.942C424.58 244.981 423.966 243.668 423.884 242.27L423.875 241.947V224.625L441.161 236.15L441.373 236.27C441.623 236.393 441.898 236.456 442.177 236.456C442.455 236.456 442.73 236.393 442.98 236.27L443.192 236.15L460.478 224.625Z" fill="white"/>
<path d="M454.986 218.156C456.962 218.156 458.696 219.199 459.662 220.768L442.175 232.426L424.688 220.768C425.146 220.023 425.777 219.398 426.526 218.946C427.276 218.494 428.122 218.228 428.996 218.169L429.364 218.156H454.986Z" fill="white"/>
</g>
<defs>
<filter id="filter0_d_3194_13687" x="24.89" y="181.55" width="102.486" height="121.521" filterUnits="userSpaceOnUse" color-interpolation-filters="sRGB">
<feFlood flood-opacity="0" result="BackgroundImageFix"/>
<feColorMatrix in="SourceAlpha" type="matrix" values="0 0 0 0 0 0 0 0 0 0 0 0 0 0 0 0 0 0 127 0" result="hardAlpha"/>
<feOffset/>
<feGaussianBlur stdDeviation="7.32064"/>
<feComposite in2="hardAlpha" operator="out"/>
<feColorMatrix type="matrix" values="0 0 0 0 0 0 0 0 0 0.46 0 0 0 0 1 0 0 0 1 0"/>
<feBlend mode="normal" in2="BackgroundImageFix" result="effect1_dropShadow_3194_13687"/>
<feBlend mode="normal" in="SourceGraphic" in2="effect1_dropShadow_3194_13687" result="shape"/>
</filter>
<filter id="filter1_d_3194_13687" x="98.39" y="98.3821" width="102.486" height="121.525" filterUnits="userSpaceOnUse" color-interpolation-filters="sRGB">
<feFlood flood-opacity="0" result="BackgroundImageFix"/>
<feColorMatrix in="SourceAlpha" type="matrix" values="0 0 0 0 0 0 0 0 0 0 0 0 0 0 0 0 0 0 127 0" result="hardAlpha"/>
<feOffset/>
<feGaussianBlur stdDeviation="7.32064"/>
<feComposite in2="hardAlpha" operator="out"/>
<feColorMatrix type="matrix" values="0 0 0 0 0 0 0 0 0 0.46 0 0 0 0 1 0 0 0 1 0"/>
<feBlend mode="normal" in2="BackgroundImageFix" result="effect1_dropShadow_3194_13687"/>
<feBlend mode="normal" in="SourceGraphic" in2="effect1_dropShadow_3194_13687" result="shape"/>
</filter>
<filter id="filter2_d_3194_13687" x="208.187" y="52.9915" width="102.501" height="121.529" filterUnits="userSpaceOnUse" color-interpolation-filters="sRGB">
<feFlood flood-opacity="0" result="BackgroundImageFix"/>
<feColorMatrix in="SourceAlpha" type="matrix" values="0 0 0 0 0 0 0 0 0 0 0 0 0 0 0 0 0 0 127 0" result="hardAlpha"/>
<feOffset/>
<feGaussianBlur stdDeviation="7.32064"/>
<feComposite in2="hardAlpha" operator="out"/>
<feColorMatrix type="matrix" values="0 0 0 0 0 0 0 0 0 0.46 0 0 0 0 1 0 0 0 1 0"/>
<feBlend mode="normal" in2="BackgroundImageFix" result="effect1_dropShadow_3194_13687"/>
<feBlend mode="normal" in="SourceGraphic" in2="effect1_dropShadow_3194_13687" result="shape"/>
</filter>
<filter id="filter3_d_3194_13687" x="318.007" y="100.14" width="102.494" height="121.525" filterUnits="userSpaceOnUse" color-interpolation-filters="sRGB">
<feFlood flood-opacity="0" result="BackgroundImageFix"/>
<feColorMatrix in="SourceAlpha" type="matrix" values="0 0 0 0 0 0 0 0 0 0 0 0 0 0 0 0 0 0 127 0" result="hardAlpha"/>
<feOffset/>
<feGaussianBlur stdDeviation="7.32064"/>
<feComposite in2="hardAlpha" operator="out"/>
<feColorMatrix type="matrix" values="0 0 0 0 0 0 0 0 0 0.46 0 0 0 0 1 0 0 0 1 0"/>
<feBlend mode="normal" in2="BackgroundImageFix" result="effect1_dropShadow_3194_13687"/>
<feBlend mode="normal" in="SourceGraphic" in2="effect1_dropShadow_3194_13687" result="shape"/>
</filter>
<filter id="filter4_d_3194_13687" x="390.921" y="181.55" width="102.494" height="121.521" filterUnits="userSpaceOnUse" color-interpolation-filters="sRGB">
<feFlood flood-opacity="0" result="BackgroundImageFix"/>
<feColorMatrix in="SourceAlpha" type="matrix" values="0 0 0 0 0 0 0 0 0 0 0 0 0 0 0 0 0 0 127 0" result="hardAlpha"/>
<feOffset/>
<feGaussianBlur stdDeviation="7.32064"/>
<feComposite in2="hardAlpha" operator="out"/>
<feColorMatrix type="matrix" values="0 0 0 0 0 0 0 0 0 0.46 0 0 0 0 1 0 0 0 1 0"/>
<feBlend mode="normal" in2="BackgroundImageFix" result="effect1_dropShadow_3194_13687"/>
<feBlend mode="normal" in="SourceGraphic" in2="effect1_dropShadow_3194_13687" result="shape"/>
</filter>
<clipPath id="clip0_3194_13687">
<rect width="43.9239" height="43.9239" fill="white" transform="translate(54.1719 210.84)"/>
</clipPath>
</defs>
</svg>
