<svg width="2130" height="1571" viewBox="0 0 2130 1571" fill="none" xmlns="http://www.w3.org/2000/svg">
<g filter="url(#filter0_di_3566_13448)">
<mask id="mask0_3566_13448" style="mask-type:luminance" maskUnits="userSpaceOnUse" x="126" y="84" width="1878" height="1320">
<path d="M1920.53 84H209.466C163.369 84 126 121.369 126 167.466V1320.35C126 1366.45 163.369 1403.82 209.466 1403.82H1920.53C1966.63 1403.82 2004 1366.45 2004 1320.35V167.466C2004 121.369 1966.63 84 1920.53 84Z" fill="white"/>
</mask>
<g mask="url(#mask0_3566_13448)">
<path d="M126 167.466C126 121.369 163.369 84 209.466 84H1920.53C1966.63 84 2004 121.369 2004 167.466V1320.35C2004 1366.45 1966.63 1403.81 1920.53 1403.81H209.466C163.369 1403.81 126 1366.45 126 1320.35V167.466Z" fill="white" fill-opacity="0.04"/>
<mask id="mask1_3566_13448" style="mask-type:luminance" maskUnits="userSpaceOnUse" x="126" y="84" width="1878" height="1320">
<path d="M126 167.466C126 121.369 163.369 84 209.466 84H1920.53C1966.63 84 2004 121.369 2004 167.466V1320.35C2004 1366.45 1966.63 1403.81 1920.53 1403.81H209.466C163.369 1403.81 126 1366.45 126 1320.35V167.466Z" fill="white"/>
</mask>
<g mask="url(#mask1_3566_13448)">
<path d="M209.449 89.2192H1920.51V78.7856H209.449V89.2192ZM1998.77 167.469V1320.35H2009.2V167.469H1998.77ZM1920.51 1398.6H209.449V1409.03H1920.51V1398.6ZM131.199 1320.35V167.469H120.766V1320.35H131.199ZM209.449 1398.6C166.233 1398.6 131.199 1363.57 131.199 1320.35H120.766C120.766 1369.33 160.471 1409.03 209.449 1409.03V1398.6ZM1998.77 1320.35C1998.77 1363.57 1963.73 1398.6 1920.51 1398.6V1409.03C1969.49 1409.03 2009.2 1369.33 2009.2 1320.35H1998.77ZM1920.51 89.2192C1963.73 89.2192 1998.77 124.253 1998.77 167.469H2009.2C2009.2 118.491 1969.49 78.7856 1920.51 78.7856V89.2192ZM209.449 78.7856C160.471 78.7856 120.766 118.491 120.766 167.469H131.199C131.199 124.253 166.233 89.2192 209.449 89.2192V78.7856Z" fill="url(#paint0_linear_3566_13448)"/>
</g>
<g filter="url(#filter1_f_3566_13448)">
<path d="M1894.45 1800.28C2113.41 1800.28 2290.92 1622.78 2290.92 1403.81C2290.92 1184.85 2113.41 1007.35 1894.45 1007.35C1675.49 1007.35 1497.98 1184.85 1497.98 1403.81C1497.98 1622.78 1675.49 1800.28 1894.45 1800.28Z" fill="white" fill-opacity="0.15"/>
</g>
</g>
</g>
<circle cx="1066" cy="981" r="250" fill="#C4C4C4" fill-opacity="0.1"/>
<path d="M1038.06 882V973H1019.38V882H1038.06ZM1094.44 882V973H1075.75V882H1094.44ZM1122.44 882V896.688H1048.19V882H1122.44Z" fill="white"/>
<path d="M965.41 1041.57H971.25C971.133 1043.48 970.605 1045.18 969.668 1046.66C968.743 1048.15 967.448 1049.31 965.781 1050.14C964.128 1050.97 962.135 1051.39 959.805 1051.39C957.982 1051.39 956.348 1051.08 954.902 1050.45C953.457 1049.82 952.22 1048.9 951.191 1047.72C950.176 1046.53 949.401 1045.1 948.867 1043.42C948.333 1041.74 948.066 1039.86 948.066 1037.78V1035.8C948.066 1033.72 948.34 1031.84 948.887 1030.16C949.447 1028.47 950.241 1027.03 951.27 1025.84C952.311 1024.66 953.555 1023.75 955 1023.11C956.445 1022.47 958.06 1022.15 959.844 1022.15C962.214 1022.15 964.212 1022.58 965.84 1023.44C967.48 1024.3 968.75 1025.49 969.648 1027C970.56 1028.51 971.107 1030.23 971.289 1032.15H965.43C965.365 1031.01 965.137 1030.04 964.746 1029.24C964.355 1028.43 963.763 1027.83 962.969 1027.43C962.188 1027.01 961.146 1026.8 959.844 1026.8C958.867 1026.8 958.014 1026.98 957.285 1027.35C956.556 1027.71 955.944 1028.27 955.449 1029.01C954.954 1029.75 954.583 1030.69 954.336 1031.82C954.102 1032.94 953.984 1034.26 953.984 1035.77V1037.78C953.984 1039.25 954.095 1040.54 954.316 1041.66C954.538 1042.77 954.876 1043.71 955.332 1044.48C955.801 1045.23 956.4 1045.8 957.129 1046.2C957.871 1046.57 958.763 1046.76 959.805 1046.76C961.029 1046.76 962.038 1046.57 962.832 1046.18C963.626 1045.79 964.232 1045.21 964.648 1044.44C965.078 1043.67 965.332 1042.71 965.41 1041.57ZM998.457 1036.12V1037.46C998.457 1039.63 998.164 1041.57 997.578 1043.29C996.992 1045 996.165 1046.47 995.098 1047.68C994.03 1048.88 992.754 1049.8 991.27 1050.43C989.798 1051.07 988.164 1051.39 986.367 1051.39C984.583 1051.39 982.949 1051.07 981.465 1050.43C979.993 1049.8 978.717 1048.88 977.637 1047.68C976.556 1046.47 975.716 1045 975.117 1043.29C974.531 1041.57 974.238 1039.63 974.238 1037.46V1036.12C974.238 1033.94 974.531 1032 975.117 1030.3C975.703 1028.58 976.53 1027.11 977.598 1025.9C978.678 1024.69 979.954 1023.77 981.426 1023.13C982.91 1022.49 984.544 1022.17 986.328 1022.17C988.125 1022.17 989.759 1022.49 991.23 1023.13C992.715 1023.77 993.991 1024.69 995.059 1025.9C996.139 1027.11 996.973 1028.58 997.559 1030.3C998.158 1032 998.457 1033.94 998.457 1036.12ZM992.539 1037.46V1036.08C992.539 1034.57 992.402 1033.24 992.129 1032.09C991.855 1030.95 991.452 1029.98 990.918 1029.2C990.384 1028.42 989.733 1027.84 988.965 1027.45C988.197 1027.04 987.318 1026.84 986.328 1026.84C985.339 1026.84 984.46 1027.04 983.691 1027.45C982.936 1027.84 982.292 1028.42 981.758 1029.2C981.237 1029.98 980.84 1030.95 980.566 1032.09C980.293 1033.24 980.156 1034.57 980.156 1036.08V1037.46C980.156 1038.96 980.293 1040.29 980.566 1041.45C980.84 1042.6 981.243 1043.57 981.777 1044.36C982.311 1045.14 982.962 1045.73 983.73 1046.14C984.499 1046.54 985.378 1046.74 986.367 1046.74C987.357 1046.74 988.236 1046.54 989.004 1046.14C989.772 1045.73 990.417 1045.14 990.938 1044.36C991.458 1043.57 991.855 1042.6 992.129 1041.45C992.402 1040.29 992.539 1038.96 992.539 1037.46ZM1025.82 1022.56V1051H1019.96L1008.54 1031.94V1051H1002.68V1022.56H1008.54L1019.98 1041.64V1022.56H1025.82ZM1045.72 1043.56C1045.72 1043.05 1045.64 1042.6 1045.49 1042.19C1045.35 1041.77 1045.07 1041.4 1044.67 1041.06C1044.26 1040.71 1043.7 1040.36 1042.97 1040.02C1042.24 1039.68 1041.3 1039.33 1040.14 1038.97C1038.85 1038.55 1037.62 1038.08 1036.46 1037.56C1035.32 1037.04 1034.3 1036.44 1033.42 1035.75C1032.55 1035.04 1031.86 1034.23 1031.35 1033.3C1030.85 1032.38 1030.61 1031.31 1030.61 1030.08C1030.61 1028.9 1030.87 1027.82 1031.39 1026.86C1031.91 1025.88 1032.64 1025.05 1033.57 1024.36C1034.51 1023.66 1035.62 1023.12 1036.89 1022.74C1038.18 1022.36 1039.6 1022.17 1041.13 1022.17C1043.23 1022.17 1045.06 1022.55 1046.62 1023.3C1048.18 1024.06 1049.39 1025.1 1050.25 1026.41C1051.13 1027.73 1051.56 1029.23 1051.56 1030.92H1045.74C1045.74 1030.09 1045.57 1029.36 1045.21 1028.73C1044.88 1028.1 1044.36 1027.6 1043.65 1027.23C1042.96 1026.87 1042.09 1026.68 1041.04 1026.68C1040.02 1026.68 1039.17 1026.84 1038.5 1027.15C1037.82 1027.45 1037.31 1027.86 1036.97 1028.38C1036.63 1028.89 1036.46 1029.46 1036.46 1030.1C1036.46 1030.58 1036.58 1031.02 1036.82 1031.41C1037.06 1031.8 1037.43 1032.17 1037.91 1032.5C1038.39 1032.84 1038.98 1033.16 1039.69 1033.46C1040.39 1033.76 1041.2 1034.05 1042.13 1034.34C1043.68 1034.81 1045.04 1035.34 1046.21 1035.92C1047.4 1036.51 1048.39 1037.17 1049.18 1037.89C1049.97 1038.62 1050.57 1039.45 1050.98 1040.38C1051.38 1041.3 1051.58 1042.35 1051.58 1043.52C1051.58 1044.76 1051.34 1045.86 1050.86 1046.84C1050.38 1047.82 1049.68 1048.64 1048.77 1049.32C1047.86 1050 1046.77 1050.51 1045.51 1050.86C1044.24 1051.21 1042.83 1051.39 1041.27 1051.39C1039.86 1051.39 1038.48 1051.21 1037.11 1050.84C1035.74 1050.47 1034.5 1049.9 1033.38 1049.14C1032.27 1048.39 1031.39 1047.43 1030.72 1046.25C1030.06 1045.08 1029.73 1043.7 1029.73 1042.09H1035.61C1035.61 1042.98 1035.74 1043.73 1036.02 1044.34C1036.29 1044.95 1036.67 1045.45 1037.17 1045.82C1037.68 1046.2 1038.27 1046.48 1038.96 1046.64C1039.67 1046.81 1040.44 1046.9 1041.27 1046.9C1042.29 1046.9 1043.12 1046.76 1043.77 1046.47C1044.43 1046.18 1044.92 1045.79 1045.23 1045.28C1045.56 1044.77 1045.72 1044.2 1045.72 1043.56ZM1071.27 1022.56H1077.11V1041.35C1077.11 1043.54 1076.64 1045.38 1075.7 1046.88C1074.78 1048.38 1073.5 1049.5 1071.86 1050.26C1070.23 1051.01 1068.35 1051.39 1066.23 1051.39C1064.11 1051.39 1062.22 1051.01 1060.57 1050.26C1058.93 1049.5 1057.64 1048.38 1056.7 1046.88C1055.77 1045.38 1055.31 1043.54 1055.31 1041.35V1022.56H1061.17V1041.35C1061.17 1042.63 1061.37 1043.67 1061.78 1044.48C1062.18 1045.28 1062.76 1045.88 1063.52 1046.25C1064.28 1046.63 1065.19 1046.82 1066.23 1046.82C1067.3 1046.82 1068.2 1046.63 1068.95 1046.25C1069.7 1045.88 1070.27 1045.28 1070.66 1044.48C1071.07 1043.67 1071.27 1042.63 1071.27 1041.35V1022.56ZM1100.21 1046.43V1051H1085.9V1046.43H1100.21ZM1087.79 1022.56V1051H1081.93V1022.56H1087.79ZM1111.84 1022.56V1051H1106V1022.56H1111.84ZM1120.59 1022.56V1027.15H1097.38V1022.56H1120.59ZM1130.16 1022.56V1051H1124.32V1022.56H1130.16ZM1158.79 1022.56V1051H1152.93L1141.5 1031.94V1051H1135.64V1022.56H1141.5L1152.95 1041.64V1022.56H1158.79ZM1186.43 1036.14V1047.41C1185.98 1047.94 1185.3 1048.52 1184.38 1049.14C1183.45 1049.76 1182.26 1050.28 1180.8 1050.73C1179.34 1051.17 1177.58 1051.39 1175.51 1051.39C1173.67 1051.39 1172 1051.09 1170.49 1050.49C1168.98 1049.88 1167.68 1048.99 1166.58 1047.82C1165.5 1046.64 1164.67 1045.21 1164.08 1043.52C1163.5 1041.81 1163.2 1039.87 1163.2 1037.68V1035.9C1163.2 1033.71 1163.48 1031.77 1164.04 1030.06C1164.62 1028.36 1165.43 1026.92 1166.48 1025.75C1167.54 1024.57 1168.8 1023.68 1170.25 1023.07C1171.71 1022.46 1173.33 1022.15 1175.12 1022.15C1177.59 1022.15 1179.62 1022.56 1181.21 1023.36C1182.8 1024.16 1184.01 1025.26 1184.84 1026.68C1185.69 1028.09 1186.21 1029.7 1186.41 1031.53H1180.72C1180.58 1030.56 1180.31 1029.72 1179.9 1029.01C1179.5 1028.29 1178.92 1027.73 1178.16 1027.33C1177.42 1026.92 1176.46 1026.72 1175.27 1026.72C1174.3 1026.72 1173.42 1026.92 1172.66 1027.33C1171.9 1027.72 1171.26 1028.3 1170.74 1029.07C1170.22 1029.83 1169.82 1030.79 1169.55 1031.92C1169.28 1033.05 1169.14 1034.37 1169.14 1035.86V1037.68C1169.14 1039.16 1169.28 1040.48 1169.57 1041.62C1169.86 1042.76 1170.28 1043.71 1170.84 1044.5C1171.41 1045.26 1172.12 1045.84 1172.95 1046.23C1173.78 1046.62 1174.75 1046.82 1175.86 1046.82C1176.78 1046.82 1177.55 1046.74 1178.16 1046.59C1178.79 1046.43 1179.29 1046.24 1179.67 1046.02C1180.06 1045.79 1180.36 1045.56 1180.57 1045.36V1040.32H1175.21V1036.14H1186.43Z" fill="white"/>
<path d="M379.27 980.426L371.535 1004H365.305L375.871 975.562H379.836L379.27 980.426ZM385.695 1004L377.941 980.426L377.316 975.562H381.32L391.945 1004H385.695ZM385.344 993.414V998.004H370.324V993.414H385.344ZM410.715 994.566H416.555C416.438 996.48 415.91 998.18 414.973 999.664C414.048 1001.15 412.753 1002.31 411.086 1003.14C409.432 1003.97 407.44 1004.39 405.109 1004.39C403.286 1004.39 401.652 1004.08 400.207 1003.45C398.762 1002.82 397.525 1001.9 396.496 1000.72C395.48 999.534 394.706 998.102 394.172 996.422C393.638 994.742 393.371 992.861 393.371 990.777V988.805C393.371 986.721 393.645 984.84 394.191 983.16C394.751 981.467 395.546 980.029 396.574 978.844C397.616 977.659 398.859 976.747 400.305 976.109C401.75 975.471 403.365 975.152 405.148 975.152C407.518 975.152 409.517 975.582 411.145 976.441C412.785 977.301 414.055 978.486 414.953 979.996C415.865 981.507 416.411 983.225 416.594 985.152H410.734C410.669 984.007 410.441 983.036 410.051 982.242C409.66 981.435 409.068 980.829 408.273 980.426C407.492 980.009 406.451 979.801 405.148 979.801C404.172 979.801 403.319 979.983 402.59 980.348C401.861 980.712 401.249 981.266 400.754 982.008C400.259 982.75 399.888 983.688 399.641 984.82C399.406 985.94 399.289 987.255 399.289 988.766V990.777C399.289 992.249 399.4 993.544 399.621 994.664C399.842 995.771 400.181 996.708 400.637 997.477C401.105 998.232 401.704 998.805 402.434 999.195C403.176 999.573 404.068 999.762 405.109 999.762C406.333 999.762 407.342 999.566 408.137 999.176C408.931 998.785 409.536 998.206 409.953 997.438C410.383 996.669 410.637 995.712 410.715 994.566ZM436.887 994.566H442.727C442.609 996.48 442.082 998.18 441.145 999.664C440.22 1001.15 438.924 1002.31 437.258 1003.14C435.604 1003.97 433.612 1004.39 431.281 1004.39C429.458 1004.39 427.824 1004.08 426.379 1003.45C424.934 1002.82 423.697 1001.9 422.668 1000.72C421.652 999.534 420.878 998.102 420.344 996.422C419.81 994.742 419.543 992.861 419.543 990.777V988.805C419.543 986.721 419.816 984.84 420.363 983.16C420.923 981.467 421.717 980.029 422.746 978.844C423.788 977.659 425.031 976.747 426.477 976.109C427.922 975.471 429.536 975.152 431.32 975.152C433.69 975.152 435.689 975.582 437.316 976.441C438.957 977.301 440.227 978.486 441.125 979.996C442.036 981.507 442.583 983.225 442.766 985.152H436.906C436.841 984.007 436.613 983.036 436.223 982.242C435.832 981.435 435.24 980.829 434.445 980.426C433.664 980.009 432.622 979.801 431.32 979.801C430.344 979.801 429.491 979.983 428.762 980.348C428.033 980.712 427.421 981.266 426.926 982.008C426.431 982.75 426.06 983.688 425.812 984.82C425.578 985.94 425.461 987.255 425.461 988.766V990.777C425.461 992.249 425.572 993.544 425.793 994.664C426.014 995.771 426.353 996.708 426.809 997.477C427.277 998.232 427.876 998.805 428.605 999.195C429.348 999.573 430.24 999.762 431.281 999.762C432.505 999.762 433.514 999.566 434.309 999.176C435.103 998.785 435.708 998.206 436.125 997.438C436.555 996.669 436.809 995.712 436.887 994.566ZM465.656 999.43V1004H450.52V999.43H465.656ZM452.434 975.562V1004H446.574V975.562H452.434ZM463.684 987.145V991.598H450.52V987.145H463.684ZM465.637 975.562V980.152H450.52V975.562H465.637ZM483.879 996.559C483.879 996.051 483.801 995.595 483.645 995.191C483.501 994.775 483.228 994.397 482.824 994.059C482.421 993.707 481.854 993.362 481.125 993.023C480.396 992.685 479.452 992.333 478.293 991.969C477.004 991.552 475.78 991.083 474.621 990.562C473.475 990.042 472.46 989.436 471.574 988.746C470.702 988.043 470.012 987.229 469.504 986.305C469.009 985.38 468.762 984.306 468.762 983.082C468.762 981.897 469.022 980.823 469.543 979.859C470.064 978.883 470.793 978.049 471.73 977.359C472.668 976.656 473.775 976.116 475.051 975.738C476.34 975.361 477.753 975.172 479.289 975.172C481.385 975.172 483.215 975.549 484.777 976.305C486.34 977.06 487.551 978.095 488.41 979.41C489.283 980.725 489.719 982.229 489.719 983.922H483.898C483.898 983.089 483.723 982.359 483.371 981.734C483.033 981.096 482.512 980.595 481.809 980.23C481.118 979.866 480.246 979.684 479.191 979.684C478.176 979.684 477.329 979.84 476.652 980.152C475.975 980.452 475.467 980.862 475.129 981.383C474.79 981.891 474.621 982.464 474.621 983.102C474.621 983.583 474.738 984.02 474.973 984.41C475.22 984.801 475.585 985.165 476.066 985.504C476.548 985.842 477.141 986.161 477.844 986.461C478.547 986.76 479.361 987.053 480.285 987.34C481.835 987.809 483.195 988.336 484.367 988.922C485.552 989.508 486.542 990.165 487.336 990.895C488.13 991.624 488.729 992.451 489.133 993.375C489.536 994.299 489.738 995.348 489.738 996.52C489.738 997.757 489.497 998.863 489.016 999.84C488.534 1000.82 487.837 1001.64 486.926 1002.32C486.014 1003 484.927 1003.51 483.664 1003.86C482.401 1004.21 480.988 1004.39 479.426 1004.39C478.02 1004.39 476.633 1004.21 475.266 1003.84C473.898 1003.47 472.655 1002.9 471.535 1002.14C470.428 1001.39 469.543 1000.43 468.879 999.254C468.215 998.082 467.883 996.695 467.883 995.094H473.762C473.762 995.979 473.898 996.728 474.172 997.34C474.445 997.952 474.829 998.447 475.324 998.824C475.832 999.202 476.431 999.475 477.121 999.645C477.824 999.814 478.592 999.898 479.426 999.898C480.441 999.898 481.275 999.755 481.926 999.469C482.59 999.182 483.078 998.785 483.391 998.277C483.716 997.77 483.879 997.197 483.879 996.559ZM508.527 996.559C508.527 996.051 508.449 995.595 508.293 995.191C508.15 994.775 507.876 994.397 507.473 994.059C507.069 993.707 506.503 993.362 505.773 993.023C505.044 992.685 504.1 992.333 502.941 991.969C501.652 991.552 500.428 991.083 499.27 990.562C498.124 990.042 497.108 989.436 496.223 988.746C495.35 988.043 494.66 987.229 494.152 986.305C493.658 985.38 493.41 984.306 493.41 983.082C493.41 981.897 493.671 980.823 494.191 979.859C494.712 978.883 495.441 978.049 496.379 977.359C497.316 976.656 498.423 976.116 499.699 975.738C500.988 975.361 502.401 975.172 503.938 975.172C506.034 975.172 507.863 975.549 509.426 976.305C510.988 977.06 512.199 978.095 513.059 979.41C513.931 980.725 514.367 982.229 514.367 983.922H508.547C508.547 983.089 508.371 982.359 508.02 981.734C507.681 981.096 507.16 980.595 506.457 980.23C505.767 979.866 504.895 979.684 503.84 979.684C502.824 979.684 501.978 979.84 501.301 980.152C500.624 980.452 500.116 980.862 499.777 981.383C499.439 981.891 499.27 982.464 499.27 983.102C499.27 983.583 499.387 984.02 499.621 984.41C499.868 984.801 500.233 985.165 500.715 985.504C501.197 985.842 501.789 986.161 502.492 986.461C503.195 986.76 504.009 987.053 504.934 987.34C506.483 987.809 507.844 988.336 509.016 988.922C510.201 989.508 511.19 990.165 511.984 990.895C512.779 991.624 513.378 992.451 513.781 993.375C514.185 994.299 514.387 995.348 514.387 996.52C514.387 997.757 514.146 998.863 513.664 999.84C513.182 1000.82 512.486 1001.64 511.574 1002.32C510.663 1003 509.576 1003.51 508.312 1003.86C507.049 1004.21 505.637 1004.39 504.074 1004.39C502.668 1004.39 501.281 1004.21 499.914 1003.84C498.547 1003.47 497.303 1002.9 496.184 1002.14C495.077 1001.39 494.191 1000.43 493.527 999.254C492.863 998.082 492.531 996.695 492.531 995.094H498.41C498.41 995.979 498.547 996.728 498.82 997.34C499.094 997.952 499.478 998.447 499.973 998.824C500.48 999.202 501.079 999.475 501.77 999.645C502.473 999.814 503.241 999.898 504.074 999.898C505.09 999.898 505.923 999.755 506.574 999.469C507.238 999.182 507.727 998.785 508.039 998.277C508.365 997.77 508.527 997.197 508.527 996.559Z" fill="white"/>
<circle cx="440" cy="820" r="125" fill="#C4C4C4" fill-opacity="0.1"/>
<g clip-path="url(#clip0_3566_13448)">
<path d="M385.57 843.848L416.156 874.434L494.349 796.27L463.734 765.655L385.57 843.848ZM365.179 891.426C364.506 894.151 365.853 895.498 368.578 894.825L409.359 881.231L378.773 850.645L365.179 891.426ZM507.943 752.061C494.379 738.467 480.756 748.663 480.756 748.663C478.529 750.362 470.56 758.858 470.56 758.858L501.146 789.444C501.146 789.444 509.613 781.475 511.342 779.248C511.342 779.248 521.537 765.684 507.943 752.061Z" fill="white"/>
</g>
<path d="M652.648 709.863H645.402V705.293H652.648C653.768 705.293 654.68 705.111 655.383 704.746C656.086 704.368 656.6 703.848 656.926 703.184C657.251 702.52 657.414 701.771 657.414 700.938C657.414 700.091 657.251 699.303 656.926 698.574C656.6 697.845 656.086 697.259 655.383 696.816C654.68 696.374 653.768 696.152 652.648 696.152H647.434V720H641.574V691.562H652.648C654.875 691.562 656.783 691.966 658.371 692.773C659.973 693.568 661.197 694.668 662.043 696.074C662.889 697.48 663.312 699.089 663.312 700.898C663.312 702.734 662.889 704.323 662.043 705.664C661.197 707.005 659.973 708.04 658.371 708.77C656.783 709.499 654.875 709.863 652.648 709.863ZM685.637 715.43V720H671.32V715.43H685.637ZM673.215 691.562V720H667.355V691.562H673.215ZM700.949 696.426L693.215 720H686.984L697.551 691.562H701.516L700.949 696.426ZM707.375 720L699.621 696.426L698.996 691.562H703L713.625 720H707.375ZM707.023 709.414V714.004H692.004V709.414H707.023ZM739.406 691.562V720H733.547L722.121 700.938V720H716.262V691.562H722.121L733.566 710.645V691.562H739.406Z" fill="white"/>
<circle cx="691" cy="536" r="125" fill="#C4C4C4" fill-opacity="0.1"/>
<path d="M628.5 467.25H634.75V473.5H628.5V467.25ZM634.75 473.5H641V479.75H634.75V473.5ZM641 479.75H647.25V486H641V479.75ZM622.25 561H628.5V567.25H622.25V561ZM628.5 554.75H634.75V561H628.5V554.75ZM634.75 548.5H641V554.75H634.75V548.5ZM753.5 561H759.75V567.25H753.5V561ZM747.25 554.75H753.5V561H747.25V554.75ZM741 548.5H747.25V554.75H741V548.5ZM747.25 467.25H753.5V473.5H747.25V467.25ZM741 473.5H747.25V479.75H741V473.5ZM734.75 479.75H741V486H734.75V479.75ZM622.25 511H634.75V517.25H622.25V511ZM709.75 573.5V592.25H703.5V598.5H697.25V604.75H684.75V598.5H678.5V592.25H672.25V573.5H709.75ZM734.75 492.25H728.5V486H722.25V479.75H716V473.5H703.5V467.25H678.5V473.5H666V479.75H659.75V486H653.5V492.25H647.25V504.75H641V529.75H647.25V542.25H653.5V548.5H659.75V554.75H666V561H672.25V567.25H709.75V561H716V554.75H722.25V548.5H728.5V542.25H734.75V529.75H741V504.75H734.75V492.25ZM659.75 504.75H666V498.5H672.25V492.25H678.5V486H697.25V492.25H678.5V498.5H672.25V504.75H666V517.25H659.75V504.75ZM747.25 511H759.75V517.25H747.25V511Z" fill="white"/>
<path d="M960.93 536.562V565H955.09V536.562H960.93ZM969.094 536.562H974.055L981.359 557.441L988.664 536.562H993.625L983.352 565H979.367L969.094 536.562ZM966.418 536.562H971.359L972.258 556.914V565H966.418V536.562ZM991.359 536.562H996.32V565H990.461V556.914L991.359 536.562ZM1012.53 554.863H1005.29V550.293H1012.53C1013.65 550.293 1014.56 550.111 1015.27 549.746C1015.97 549.368 1016.48 548.848 1016.81 548.184C1017.13 547.52 1017.3 546.771 1017.3 545.938C1017.3 545.091 1017.13 544.303 1016.81 543.574C1016.48 542.845 1015.97 542.259 1015.27 541.816C1014.56 541.374 1013.65 541.152 1012.53 541.152H1007.32V565H1001.46V536.562H1012.53C1014.76 536.562 1016.67 536.966 1018.25 537.773C1019.86 538.568 1021.08 539.668 1021.93 541.074C1022.77 542.48 1023.2 544.089 1023.2 545.898C1023.2 547.734 1022.77 549.323 1021.93 550.664C1021.08 552.005 1019.86 553.04 1018.25 553.77C1016.67 554.499 1014.76 554.863 1012.53 554.863ZM1045.52 560.43V565H1031.2V560.43H1045.52ZM1033.1 536.562V565H1027.24V536.562H1033.1ZM1067.96 560.43V565H1052.82V560.43H1067.96ZM1054.74 536.562V565H1048.88V536.562H1054.74ZM1065.99 548.145V552.598H1052.82V548.145H1065.99ZM1067.94 536.562V541.152H1052.82V536.562H1067.94ZM1074.05 536.562H1079.02L1086.32 557.441L1093.62 536.562H1098.59L1088.31 565H1084.33L1074.05 536.562ZM1071.38 536.562H1076.32L1077.22 556.914V565H1071.38V536.562ZM1096.32 536.562H1101.28V565H1095.42V556.914L1096.32 536.562ZM1125.5 560.43V565H1110.36V560.43H1125.5ZM1112.28 536.562V565H1106.42V536.562H1112.28ZM1123.53 548.145V552.598H1110.36V548.145H1123.53ZM1125.48 536.562V541.152H1110.36V536.562H1125.48ZM1152.06 536.562V565H1146.2L1134.78 545.938V565H1128.92V536.562H1134.78L1146.22 555.645V536.562H1152.06ZM1169.29 536.562V565H1163.45V536.562H1169.29ZM1178.04 536.562V541.152H1154.84V536.562H1178.04Z" fill="white"/>
<circle cx="1066" cy="381" r="125" fill="#C4C4C4" fill-opacity="0.1"/>
<path d="M1091 318.5C1095.78 318.5 1100.38 320.327 1103.86 323.608C1107.34 326.889 1109.44 331.376 1109.72 336.15L1109.75 337.25V424.75C1109.75 429.533 1107.92 434.134 1104.64 437.614C1101.36 441.094 1096.87 443.188 1092.1 443.469L1091 443.5H1041C1036.22 443.5 1031.62 441.673 1028.14 438.392C1024.66 435.111 1022.56 430.624 1022.28 425.85L1022.25 424.75V337.25C1022.25 332.467 1024.08 327.866 1027.36 324.386C1030.64 320.906 1035.13 318.812 1039.9 318.531L1041 318.5H1091ZM1066 406C1064.47 406 1062.99 406.562 1061.85 407.579C1060.7 408.597 1059.97 409.998 1059.79 411.519L1059.75 412.25L1059.79 413.044C1059.97 414.563 1060.71 415.963 1061.85 416.979C1062.99 417.994 1064.47 418.556 1066 418.556C1067.53 418.556 1069.01 417.994 1070.15 416.979C1071.29 415.963 1072.03 414.563 1072.21 413.044L1072.25 412.312L1072.21 411.519C1072.03 409.998 1071.3 408.597 1070.15 407.579C1069.01 406.562 1067.53 406 1066 406ZM1072.25 331H1059.75L1059.02 331.044C1057.5 331.224 1056.1 331.956 1055.08 333.1C1054.07 334.244 1053.51 335.72 1053.51 337.25C1053.51 338.78 1054.07 340.256 1055.08 341.4C1056.1 342.544 1057.5 343.276 1059.02 343.456L1059.75 343.5H1072.25L1072.98 343.456C1074.5 343.276 1075.9 342.544 1076.92 341.4C1077.93 340.256 1078.49 338.78 1078.49 337.25C1078.49 335.72 1077.93 334.244 1076.92 333.1C1075.9 331.956 1074.5 331.224 1072.98 331.044L1072.25 331Z" fill="white"/>
<path d="M1407.38 697.562V726H1401.54V697.562H1407.38ZM1416.12 697.562V702.152H1392.92V697.562H1416.12ZM1438.55 721.43V726H1423.41V721.43H1438.55ZM1425.32 697.562V726H1419.46V697.562H1425.32ZM1436.57 709.145V713.598H1423.41V709.145H1436.57ZM1438.53 697.562V702.152H1423.41V697.562H1438.53ZM1456.77 718.559C1456.77 718.051 1456.69 717.595 1456.54 717.191C1456.39 716.775 1456.12 716.397 1455.71 716.059C1455.31 715.707 1454.74 715.362 1454.02 715.023C1453.29 714.685 1452.34 714.333 1451.18 713.969C1449.89 713.552 1448.67 713.083 1447.51 712.562C1446.37 712.042 1445.35 711.436 1444.46 710.746C1443.59 710.043 1442.9 709.229 1442.39 708.305C1441.9 707.38 1441.65 706.306 1441.65 705.082C1441.65 703.897 1441.91 702.823 1442.43 701.859C1442.95 700.883 1443.68 700.049 1444.62 699.359C1445.56 698.656 1446.67 698.116 1447.94 697.738C1449.23 697.361 1450.64 697.172 1452.18 697.172C1454.28 697.172 1456.11 697.549 1457.67 698.305C1459.23 699.06 1460.44 700.095 1461.3 701.41C1462.17 702.725 1462.61 704.229 1462.61 705.922H1456.79C1456.79 705.089 1456.61 704.359 1456.26 703.734C1455.92 703.096 1455.4 702.595 1454.7 702.23C1454.01 701.866 1453.14 701.684 1452.08 701.684C1451.07 701.684 1450.22 701.84 1449.54 702.152C1448.87 702.452 1448.36 702.862 1448.02 703.383C1447.68 703.891 1447.51 704.464 1447.51 705.102C1447.51 705.583 1447.63 706.02 1447.86 706.41C1448.11 706.801 1448.48 707.165 1448.96 707.504C1449.44 707.842 1450.03 708.161 1450.73 708.461C1451.44 708.76 1452.25 709.053 1453.18 709.34C1454.73 709.809 1456.09 710.336 1457.26 710.922C1458.44 711.508 1459.43 712.165 1460.23 712.895C1461.02 713.624 1461.62 714.451 1462.02 715.375C1462.43 716.299 1462.63 717.348 1462.63 718.52C1462.63 719.757 1462.39 720.863 1461.91 721.84C1461.42 722.816 1460.73 723.643 1459.82 724.32C1458.9 724.997 1457.82 725.512 1456.55 725.863C1455.29 726.215 1453.88 726.391 1452.32 726.391C1450.91 726.391 1449.52 726.208 1448.16 725.844C1446.79 725.466 1445.55 724.9 1444.43 724.145C1443.32 723.389 1442.43 722.426 1441.77 721.254C1441.11 720.082 1440.77 718.695 1440.77 717.094H1446.65C1446.65 717.979 1446.79 718.728 1447.06 719.34C1447.34 719.952 1447.72 720.447 1448.21 720.824C1448.72 721.202 1449.32 721.475 1450.01 721.645C1450.71 721.814 1451.48 721.898 1452.32 721.898C1453.33 721.898 1454.17 721.755 1454.82 721.469C1455.48 721.182 1455.97 720.785 1456.28 720.277C1456.61 719.77 1456.77 719.197 1456.77 718.559ZM1479.33 697.562V726H1473.49V697.562H1479.33ZM1488.08 697.562V702.152H1464.88V697.562H1488.08Z" fill="white"/>
<circle cx="1441" cy="542" r="125" fill="#C4C4C4" fill-opacity="0.1"/>
<path d="M1423.81 604.5L1421.31 584.5C1419.96 583.979 1418.68 583.354 1417.49 582.625C1416.29 581.896 1415.12 581.115 1413.97 580.281L1395.37 588.094L1378.19 558.406L1394.28 546.219C1394.18 545.49 1394.12 544.787 1394.12 544.112V539.894C1394.12 539.215 1394.18 538.51 1394.28 537.781L1378.19 525.594L1395.37 495.906L1413.97 503.719C1415.11 502.885 1416.31 502.104 1417.56 501.375C1418.81 500.646 1420.06 500.021 1421.31 499.5L1423.81 479.5H1458.19L1460.69 499.5C1462.04 500.021 1463.32 500.646 1464.52 501.375C1465.72 502.104 1466.89 502.885 1468.03 503.719L1486.62 495.906L1503.81 525.594L1487.72 537.781C1487.82 538.51 1487.87 539.215 1487.87 539.894V544.106C1487.87 544.785 1487.77 545.49 1487.56 546.219L1503.66 558.406L1486.47 588.094L1468.03 580.281C1466.89 581.115 1465.69 581.896 1464.44 582.625C1463.19 583.354 1461.94 583.979 1460.69 584.5L1458.19 604.5H1423.81ZM1441.31 563.875C1447.35 563.875 1452.51 561.74 1456.78 557.469C1461.05 553.198 1463.19 548.042 1463.19 542C1463.19 535.958 1461.05 530.802 1456.78 526.531C1452.51 522.26 1447.35 520.125 1441.31 520.125C1435.17 520.125 1429.98 522.26 1425.76 526.531C1421.54 530.802 1419.43 535.958 1419.44 542C1419.44 548.042 1421.55 553.198 1425.77 557.469C1429.99 561.74 1435.17 563.875 1441.31 563.875Z" fill="white"/>
<path d="M1602.55 987.145V991.715H1587.7V987.145H1602.55ZM1589.44 975.562V1004H1583.58V975.562H1589.44ZM1606.73 975.562V1004H1600.89V975.562H1606.73ZM1623.74 980.426L1616 1004H1609.77L1620.34 975.562H1624.3L1623.74 980.426ZM1630.16 1004L1622.41 980.426L1621.79 975.562H1625.79L1636.41 1004H1630.16ZM1629.81 993.414V998.004H1614.79V993.414H1629.81ZM1662.2 975.562V1004H1656.34L1644.91 984.938V1004H1639.05V975.562H1644.91L1656.36 994.645V975.562H1662.2ZM1676.02 1004H1669.83L1669.87 999.43H1676.02C1677.56 999.43 1678.86 999.085 1679.91 998.395C1680.96 997.691 1681.76 996.669 1682.29 995.328C1682.84 993.987 1683.11 992.366 1683.11 990.465V989.078C1683.11 987.62 1682.96 986.337 1682.64 985.23C1682.35 984.124 1681.9 983.193 1681.3 982.438C1680.7 981.682 1679.96 981.116 1679.09 980.738C1678.22 980.348 1677.21 980.152 1676.08 980.152H1669.71V975.562H1676.08C1677.98 975.562 1679.72 975.888 1681.3 976.539C1682.89 977.177 1684.26 978.095 1685.42 979.293C1686.58 980.491 1687.47 981.923 1688.09 983.59C1688.73 985.243 1689.05 987.086 1689.05 989.117V990.465C1689.05 992.483 1688.73 994.326 1688.09 995.992C1687.47 997.659 1686.58 999.091 1685.42 1000.29C1684.27 1001.47 1682.9 1002.39 1681.3 1003.04C1679.71 1003.68 1677.95 1004 1676.02 1004ZM1673.15 975.562V1004H1667.29V975.562H1673.15ZM1714.01 989.586V994H1702.98V989.586H1714.01ZM1752.37 989.117V990.465C1752.37 992.626 1752.08 994.566 1751.49 996.285C1750.91 998.004 1750.08 999.469 1749.01 1000.68C1747.94 1001.88 1746.67 1002.8 1745.18 1003.43C1743.71 1004.07 1742.08 1004.39 1740.28 1004.39C1738.5 1004.39 1736.86 1004.07 1735.38 1003.43C1733.91 1002.8 1732.63 1001.88 1731.55 1000.68C1730.47 999.469 1729.63 998.004 1729.03 996.285C1728.45 994.566 1728.15 992.626 1728.15 990.465V989.117C1728.15 986.943 1728.45 985.003 1729.03 983.297C1729.62 981.578 1730.44 980.113 1731.51 978.902C1732.59 977.691 1733.87 976.767 1735.34 976.129C1736.82 975.491 1738.46 975.172 1740.24 975.172C1742.04 975.172 1743.67 975.491 1745.14 976.129C1746.63 976.767 1747.9 977.691 1748.97 978.902C1750.05 980.113 1750.89 981.578 1751.47 983.297C1752.07 985.003 1752.37 986.943 1752.37 989.117ZM1746.45 990.465V989.078C1746.45 987.568 1746.32 986.24 1746.04 985.094C1745.77 983.948 1745.37 982.984 1744.83 982.203C1744.3 981.422 1743.65 980.836 1742.88 980.445C1742.11 980.042 1741.23 979.84 1740.24 979.84C1739.25 979.84 1738.37 980.042 1737.61 980.445C1736.85 980.836 1736.21 981.422 1735.67 982.203C1735.15 982.984 1734.75 983.948 1734.48 985.094C1734.21 986.24 1734.07 987.568 1734.07 989.078V990.465C1734.07 991.962 1734.21 993.29 1734.48 994.449C1734.75 995.595 1735.16 996.565 1735.69 997.359C1736.23 998.141 1736.88 998.733 1737.64 999.137C1738.41 999.54 1739.29 999.742 1740.28 999.742C1741.27 999.742 1742.15 999.54 1742.92 999.137C1743.69 998.733 1744.33 998.141 1744.85 997.359C1745.37 996.565 1745.77 995.595 1746.04 994.449C1746.32 993.29 1746.45 991.962 1746.45 990.465ZM1762.45 975.562V1004H1756.59V975.562H1762.45ZM1773.78 987.711V992.281H1760.85V987.711H1773.78ZM1775.14 975.562V980.152H1760.85V975.562H1775.14ZM1784.4 975.562V1004H1778.54V975.562H1784.4ZM1795.73 987.711V992.281H1782.8V987.711H1795.73ZM1797.1 975.562V980.152H1782.8V975.562H1797.1Z" fill="white"/>
<circle cx="1690" cy="820" r="125" fill="#C4C4C4" fill-opacity="0.1"/>
<path d="M1752.5 792.094V851.25C1752.5 856.033 1750.67 860.634 1747.39 864.114C1744.11 867.594 1739.62 869.688 1734.85 869.969L1733.75 870H1646.25C1641.47 870 1636.87 868.173 1633.39 864.892C1629.91 861.611 1627.81 857.124 1627.53 852.35L1627.5 851.25V792.094L1686.53 831.45L1687.26 831.862C1688.11 832.28 1689.05 832.497 1690 832.497C1690.95 832.497 1691.89 832.28 1692.74 831.862L1693.47 831.45L1752.5 792.094Z" fill="white"/>
<path d="M1733.75 770C1740.5 770 1746.42 773.563 1749.72 778.919L1690 818.731L1630.28 778.919C1631.85 776.374 1634 774.241 1636.56 772.697C1639.12 771.153 1642.01 770.243 1644.99 770.044L1646.25 770H1733.75Z" fill="white"/>
<defs>
<filter id="filter0_di_3566_13448" x="0.800392" y="0.53371" width="2128.4" height="1570.22" filterUnits="userSpaceOnUse" color-interpolation-filters="sRGB">
<feFlood flood-opacity="0" result="BackgroundImageFix"/>
<feColorMatrix in="SourceAlpha" type="matrix" values="0 0 0 0 0 0 0 0 0 0 0 0 0 0 0 0 0 0 127 0" result="hardAlpha"/>
<feOffset dy="41.7333"/>
<feGaussianBlur stdDeviation="62.5998"/>
<feComposite in2="hardAlpha" operator="out"/>
<feColorMatrix type="matrix" values="0 0 0 0 0 0 0 0 0 0 0 0 0 0 0 0 0 0 0.5 0"/>
<feBlend mode="normal" in2="BackgroundImageFix" result="effect1_dropShadow_3566_13448"/>
<feBlend mode="normal" in="SourceGraphic" in2="effect1_dropShadow_3566_13448" result="shape"/>
<feColorMatrix in="SourceAlpha" type="matrix" values="0 0 0 0 0 0 0 0 0 0 0 0 0 0 0 0 0 0 127 0" result="hardAlpha"/>
<feOffset/>
<feGaussianBlur stdDeviation="62.5998"/>
<feComposite in2="hardAlpha" operator="arithmetic" k2="-1" k3="1"/>
<feColorMatrix type="matrix" values="0 0 0 0 1 0 0 0 0 1 0 0 0 0 1 0 0 0 0.15 0"/>
<feBlend mode="normal" in2="shape" result="effect2_innerShadow_3566_13448"/>
</filter>
<filter id="filter1_f_3566_13448" x="976.318" y="485.68" width="1836.26" height="1836.27" filterUnits="userSpaceOnUse" color-interpolation-filters="sRGB">
<feFlood flood-opacity="0" result="BackgroundImageFix"/>
<feBlend mode="normal" in="SourceGraphic" in2="BackgroundImageFix" result="shape"/>
<feGaussianBlur stdDeviation="260.833" result="effect1_foregroundBlur_3566_13448"/>
</filter>
<linearGradient id="paint0_linear_3566_13448" x1="162.499" y1="84.0024" x2="2046.55" y2="1339.97" gradientUnits="userSpaceOnUse">
<stop stop-color="#3F3F3F"/>
<stop offset="1" stop-color="#282828"/>
</linearGradient>
<clipPath id="clip0_3566_13448">
<rect width="150" height="150" fill="white" transform="translate(365 745)"/>
</clipPath>
</defs>
</svg>
